<mxfile host="65bd71144e">
    <diagram id="K1zG-EIvaXZYtxI3hSHW" name="Page-1">
        <mxGraphModel dx="1914" dy="1011" grid="1" gridSize="10" guides="1" tooltips="1" connect="1" arrows="1" fold="1" page="1" pageScale="1" pageWidth="1600" pageHeight="1600" math="0" shadow="0">
            <root>
                <mxCell id="0"/>
                <mxCell id="1" parent="0"/>
                <mxCell id="2" value="" style="rounded=0;whiteSpace=wrap;html=1;align=center;strokeWidth=2;dashed=1;glass=0;shadow=0;" vertex="1" parent="1">
                    <mxGeometry x="360" y="860" width="440" height="120" as="geometry"/>
                </mxCell>
                <mxCell id="3" value="Frontend Team" style="text;html=1;strokeColor=none;fillColor=none;align=center;verticalAlign=middle;whiteSpace=wrap;rounded=0;" vertex="1" parent="1">
                    <mxGeometry x="405" y="860" width="90" height="40" as="geometry"/>
                </mxCell>
                <mxCell id="8" value="Frontend Software Engineer" style="rounded=1;whiteSpace=wrap;html=1;shadow=0;glass=0;sketch=0;strokeWidth=2;" vertex="1" parent="1">
                    <mxGeometry x="390" y="900" width="120" height="60" as="geometry"/>
                </mxCell>
                <mxCell id="9" value="" style="rounded=0;whiteSpace=wrap;html=1;align=center;strokeWidth=2;dashed=1;glass=0;shadow=0;" vertex="1" parent="1">
                    <mxGeometry x="500" y="740" width="600" height="120" as="geometry"/>
                </mxCell>
                <mxCell id="10" value="Middle Management" style="text;html=1;strokeColor=none;fillColor=none;align=center;verticalAlign=middle;whiteSpace=wrap;rounded=0;" vertex="1" parent="1">
                    <mxGeometry x="538" y="740" width="125" height="40" as="geometry"/>
                </mxCell>
                <mxCell id="11" value="Product Designer" style="rounded=1;whiteSpace=wrap;html=1;shadow=0;glass=0;sketch=0;strokeWidth=2;" vertex="1" parent="1">
                    <mxGeometry x="530" y="900" width="120" height="60" as="geometry"/>
                </mxCell>
                <mxCell id="13" value="" style="ellipse;whiteSpace=wrap;html=1;aspect=fixed;rounded=1;shadow=0;glass=0;sketch=0;strokeWidth=2;" vertex="1" parent="1">
                    <mxGeometry x="670" y="915" width="30" height="30" as="geometry"/>
                </mxCell>
                <mxCell id="14" value="" style="ellipse;whiteSpace=wrap;html=1;aspect=fixed;rounded=1;shadow=0;glass=0;sketch=0;strokeWidth=2;" vertex="1" parent="1">
                    <mxGeometry x="710" y="915" width="30" height="30" as="geometry"/>
                </mxCell>
                <mxCell id="15" value="" style="ellipse;whiteSpace=wrap;html=1;aspect=fixed;rounded=1;shadow=0;glass=0;sketch=0;strokeWidth=2;" vertex="1" parent="1">
                    <mxGeometry x="750" y="915" width="30" height="30" as="geometry"/>
                </mxCell>
                <mxCell id="16" value="" style="rounded=0;whiteSpace=wrap;html=1;align=center;strokeWidth=2;dashed=1;glass=0;shadow=0;" vertex="1" parent="1">
                    <mxGeometry x="800" y="860" width="440" height="120" as="geometry"/>
                </mxCell>
                <mxCell id="17" value="Backend Software Engineer" style="rounded=1;whiteSpace=wrap;html=1;shadow=0;glass=0;sketch=0;strokeWidth=2;" vertex="1" parent="1">
                    <mxGeometry x="827" y="900" width="120" height="60" as="geometry"/>
                </mxCell>
                <mxCell id="18" value="Security Engineer" style="rounded=1;whiteSpace=wrap;html=1;shadow=0;glass=0;sketch=0;strokeWidth=2;" vertex="1" parent="1">
                    <mxGeometry x="967" y="900" width="120" height="60" as="geometry"/>
                </mxCell>
                <mxCell id="19" value="" style="ellipse;whiteSpace=wrap;html=1;aspect=fixed;rounded=1;shadow=0;glass=0;sketch=0;strokeWidth=2;" vertex="1" parent="1">
                    <mxGeometry x="1107" y="915" width="30" height="30" as="geometry"/>
                </mxCell>
                <mxCell id="20" value="" style="ellipse;whiteSpace=wrap;html=1;aspect=fixed;rounded=1;shadow=0;glass=0;sketch=0;strokeWidth=2;" vertex="1" parent="1">
                    <mxGeometry x="1147" y="915" width="30" height="30" as="geometry"/>
                </mxCell>
                <mxCell id="21" value="" style="ellipse;whiteSpace=wrap;html=1;aspect=fixed;rounded=1;shadow=0;glass=0;sketch=0;strokeWidth=2;" vertex="1" parent="1">
                    <mxGeometry x="1187" y="915" width="30" height="30" as="geometry"/>
                </mxCell>
                <mxCell id="23" value="Backend Team" style="text;html=1;strokeColor=none;fillColor=none;align=center;verticalAlign=middle;whiteSpace=wrap;rounded=0;" vertex="1" parent="1">
                    <mxGeometry x="834" y="860" width="106" height="40" as="geometry"/>
                </mxCell>
                <mxCell id="24" value="Frontend Team Manager" style="rounded=1;whiteSpace=wrap;html=1;shadow=0;glass=0;sketch=0;strokeWidth=2;" vertex="1" parent="1">
                    <mxGeometry x="530" y="780" width="120" height="60" as="geometry"/>
                </mxCell>
                <mxCell id="25" value="Backend Team Manager" style="rounded=1;whiteSpace=wrap;html=1;shadow=0;glass=0;sketch=0;strokeWidth=2;" vertex="1" parent="1">
                    <mxGeometry x="947" y="780" width="120" height="60" as="geometry"/>
                </mxCell>
                <mxCell id="26" value="" style="ellipse;whiteSpace=wrap;html=1;aspect=fixed;rounded=1;shadow=0;glass=0;sketch=0;strokeWidth=2;" vertex="1" parent="1">
                    <mxGeometry x="745" y="795" width="30" height="30" as="geometry"/>
                </mxCell>
                <mxCell id="27" value="" style="ellipse;whiteSpace=wrap;html=1;aspect=fixed;rounded=1;shadow=0;glass=0;sketch=0;strokeWidth=2;" vertex="1" parent="1">
                    <mxGeometry x="785" y="795" width="30" height="30" as="geometry"/>
                </mxCell>
                <mxCell id="28" value="" style="ellipse;whiteSpace=wrap;html=1;aspect=fixed;rounded=1;shadow=0;glass=0;sketch=0;strokeWidth=2;" vertex="1" parent="1">
                    <mxGeometry x="825" y="795" width="30" height="30" as="geometry"/>
                </mxCell>
                <mxCell id="29" value="" style="shape=image;verticalLabelPosition=bottom;labelBackgroundColor=default;verticalAlign=top;aspect=fixed;imageAspect=0;image=data:image/png,iVBORw0KGgoAAAANSUhEUgAAAgAAAAIACAYAAAD0eNT6AAAABHNCSVQICAgIfAhkiAAAAAlwSFlzAAAOxAAADsQBlSsOGwAAABl0RVh0U29mdHdhcmUAd3d3Lmlua3NjYXBlLm9yZ5vuPBoAACAASURBVHic7d13eFR12sbxe2ZSSE/ogdB7E+lIkSaiKCpWFFRsrw3brrq6tl3BjgV7BRVQFBFRiooIigLSi3TpvQfSZzIz7x8RF5WSzJw5Z2bO93Nde+21SX7P88AmnDun/SQAAAAAAAAAAAAAAAAAAAAAAAAAAAAAAAAAAAAAAAAAAAAAAAAAAAAAAAAAAAAAAAAAAAAAAAAAAAAAAAAAAAAAAAAAAAAAAAAAAAAAAAAAAAAAAAAAAAAAAAAAAAAAAAAAAAAAAAAAAAAAAAAAAAAAAAAAAAAAAAAAAAAAAAAAAAAAAAAAAAAAAAAAAAAAAAAAAAAAAAAAAAAAAAAAAAAAAAAAAAAAAAAAAAAAAAAAAAAAsJ7D6gGOUVlSiqR0ScmSYq0dB0AU8EvaK2m1pGKLZkiR1FhSmkX9YT2PpFxJ2ZJyVPI9aTkrAoBTUitJ3SWdppIfjIYqOfADQCgclDRW0jCZ949vK0n/kdRHUrxJPREZsiWt/f0/yyXNlLRUks/MIcwKAMmSLpbUX1I3SRkm9QWAY+1Xyb9Fs0Pc525JwyW5QtwH0eOgpB8kTZT0uaS8UDcMdQDoIek6lfzAJYW4FwCURp6kzpKWhaj+LZLeCFFt2EOuSkLAKEmzQtUkVAHgLElDJXUMUX0ACMYKSafL+FOutSWtEaf8YZwlkp6S9JlK7mkxjNPIYpJ6qSRVTxcHfwDhq4WkfiGo+09x8IexWkn6VCVBoIeRhY0KANUkfSzpO5Xc2AcA4e6iENS8MAQ1AUlqKel7ldzMmmlEQSMCwLUqecRmgAG1AMAsjQyulyCphsE1gb+6SiXH3KuDLRTMPQCJkl6TNDjYIQDAbBmV6+QPeHDyaqPqFeTsi3n/0e4tjaoHlMJ7ku6UlB/I4pgAm9aT9KWkpgGuBwBLpVasmSi/2hhVLyGpomJiy6nYU2hUSeBUbpDUQdIFkjaVdXEglwCaq+RZRQ7+ACJW9QYG36fscKha/XbG1gROrbmkOSp5qqVMyhoAukv6SVL1sjYCgHARG5+oBq37Gl63acfLDK8JlEJVlbwvoFtZFpUlAHSWNEW8zxpAhGt79m1KTKloeN06LXqpRuPOhtcFSiFN0lRJnUq7oLQBoLmkr1Ry4x8ARKymHS/V6d0Hh6x+76uHq2L1JiGrD5xEokqO1aW6RF+a91TXUMmphcqBzwQA1iqXlK5OF96ndufcITlC9xb0mNh4NWzbT+7CHO3fsUZ+v6n7uwAJKrkp8FOV7Dx4Qqf6KYiV9KNMeqtfQnJ5JadnKrZcopzOQB9QAIASMbHllJxeVVXrtFbtZt0UG2/uliS5h3Zp06/fa/+O1crPOSCf12Nqf5Sdz+dXgcdraE2/zyuvO19FOXvkzj9kaO2T+Fkl9+2dcBvsUwWA5yTda+BAx3R2qGrt01WjYSdVq99OFao1UnxCakhaAQBQGoVunzbtC91GfMWFOcrd/5uyty7SoS2/6PDOX2XwK/6P9bSkB0/0yZMFgL6SJp/ia8osIbm8mne+Uo3aXaiU8jxMAAAIH6EOAH/rd3indq+cqh1LP5OnINvo8j6VHMu/Od4nT3RwT5K0SlJNo6aIT0xT27NvVdOOlykmrpxRZQEAMIzZAeAor6dQu5ZP1OZ5I1VceNJL92W1WVIzHedtgSe6CXCYSlKDIRq1vVDn3vCqshp0lNPFtX0AQHgq9vqVnW/+vRpOV4xSq7VQ1eb95M47oLz9vxlVOl0lv+x//9dPHO8MQFNJS1VyA2BQYuOT1O2y/4TkhRsAABjNqjMAf7Vn9TdaN/1peT0FRpRzq2Sn3rXHfvB4ZwBeV8le2UFJSquiC28bpayGpjxAAABA0Kw6A/BXyZXqq0LdLjqw4Ud53QHt9XMsl6SKkiYc+8G/ngFoIulXBblNcGqFLF1w60hu8gMARJRwOQNwVOGRXVr26RAVHN4RbCmvSs7wrzv6gb8e6B88zsfKJCG5vM77v7c4+AMAEKRyqZk67dKXFZdUIdhSLkkPHPuBYw/2VSVdGVT1mDidd9ObSq9UO5gyAADgdwnp1dX8oufkdAV9a94gSVWO/o9jA8BASUHdot/pgvtUqUazYEoAAIC/SK3aVHXPHBJsmVgd84v+sQHg6mCqZjU8Q827XBVMCQAAcAJZrS9Xeo02wZb541h/NACcJqlloNVcMXHqevFDwQ4FAABOyKGGZ90X7KWA1ip5MdAfASCoB/WbdLxE6ZXrBFMCAACcQmL52qra7Pxgy5wr/S8A9Ai0itMVo9O7XxfsMAAAoBRqtr9aDueJXuRbKj2kkgAQJ6lzoFVqN+vBI38AAJikXFo1VajbJZgSZ0qKdarkekDAm2Q3andhMEMAAIAyqtL03GCWJ0tq5VTJm4ECEhufqJqNg0ohAACgjCrU7SxXbFA76zZ1SmoU6OrMOq2NeDEBAAAoA6crVqnVTgumRMPgAkDdoJ9HBAAAAUjPahXM8sZOSbUDXZ1RpV4wzQEAQIASKwT1+H1tp6SUQFfz7D8AANZILF8zmOWpMZJSA12dkJwRTHNT+bwe7Vg/X5tXztTB3euVn3NABTkHFJ+YqsTUSkqrWFO1mnZTzcZdFRufaOmsRQVHtGXVD9q6+kflHNypvMN75XHnKyG5vBJTKqpi9caq3aynMuu2DvZZ0KAdObBdm379Xjt/m6+8w3uUd2Sf/H6fElMqKCmtqjLrtFLt5j1Vvmp9S+cEgGgTmxDUMTjFIalAUkC3Ev7fs4vliokPZoCQ8xTla9ms97Xshw/lLsw55de7YuLVuP1FatvnNiWmVDRhwv/JObhDv0x7WRuWTJPP5z3l1yckl1erXjeqeecr5YqJM2HC/9m5YaF+mfqSdm9aUqqvr5DZUO373qnazQJ+5xQAhFyh26dN+/KsHqNUfMVF+nFEt0CXFzgk+QNdfesLKwNdaoqNy6frxwlDVZBzoMxrY+MS1O6cIWrZfbDxg/2F3+fVgm9e19KZI+Utdpd5fUpGNXUfMFRZDTqGYLo/K8zL1qxPHtGmX78PaH1m3TbqNfBppWRUM3gyAAheJAUASZr1fOD/7rsk/SfQxe363B5w45Dy+7Vk5kj9OP6/8hTlB1TC5y3WtrVzlL13s2o1PVNOV1A7JZ+QpyhP00ffq1Xzxstfit/6j8ddmKP1i6fIFROnzDqtDZ7wf7L3bdZXb95Y6t/6jyf30C6tWzRZVWq24A2SAMJOsdev7HyP1WOU2ua57wa81nnqL4k8c758TvMmvyC/3xd0rd+WTNU3o+4K+OB8MsWeQn35xg0B/zZ9LL/Pq3mTX9CS798zYLK/y963WZ+/dKWy924KulZh3iFNfvv/ggoSAIDgRF0AWLtgkpb98IGhNbeu+UlzvxpuaE35/Zr16WPau3WFoWV/mfKSNq+caWhNd2Guvh55p4oKjhhW01vs1rSRd+jIge2G1QQAlF5UBYAjB7bph/H/CUntZT98qK2rZxtWb83CSVq/aLJh9Y7y+32aMfZBFeQeNKzm7AnDdGjPBsPqHVWYd0gzxz1keF0AwKlFVQD4ZcqIgG6iK615k18w5FKAt7hIC6a9YsBEx+cuzNGi6W8ZUuvAzrVav3iKIbWOZ+eGhdq8clbI6gMAji9qAsCBXev027KvQ99j6TdB11k551PlZu82YKKT9fhEudl7gq4zf9rLhtxLcfIeI0JaHwDwd1ETADYs+VryB/xEY+n7LJ0WdI3flkw1YJKT83k92rTiu6BqFBXkaOuanw2a6MQO7FynQ3s2hrwPAOB/oiYAbPp1hil9tq2dI4+7IOD1eUf2ao/BN/6dyOYgny7YuuoH+bzmPA4T7KwAgLKJigDgLszRwd2/mdKr2FOo/TtWB7x+z+blppypkKRdm5YE1Wv35qUGTnNyuzYtNq0XACBKAkDe4X0m9wv82nowa8vKW1ykwvzDAa83c9a8w3tN6wUAiJIAkH/E3AAQTL/8nP0GTlKKfhEya94RAgAAmCkqAoDZO+I5nYG/FtjhNPevPJhXGDsc5s3qCtGrlgEAxxcVASAptZKp/RJTKwe81vxZA+8XzNqy9wr87xQAUHZREQAS0yqb+ttqUloQASCtioGTnFxsfJLiyiUHvD45vaqB05ycmX8vAIAoCQCxcQmqXLO5Kb3iyqWoUlaTgNdn1m0bsp0F/yqrQYeg1ler186gSU6tev32pvUCAERJAJCk2s17mtKnVrNucrpiA14fn5CianXbGjjRiQX7d1KjcWfFxiUYNM3J1W7W3ZQ+AIASURMA6rc615TfrBu2Pj/oGg3a9jNgkpOLjU9S7WY9gqoRE1tOdVqcZdBEJ1atXlullK8e8j4AgP+JmgCQWj5LTTteFtIe1eq1Vc0mXYOu06hNP5WvWt+AiU6sVY/rVS4pPeg67c4dIldMnAETnViHvneHtD4A4O+iJgBIUtuzb1V8QkpIajucLp3R717DanU8/x+G1DqepLQqOq3bNYbUSi2fpeadBxhS63jqntZbVeu0Cll9AMDxRVUASEipoN7XvBCS9wKc0e9eVa7ZwrB6tZp20+k9rjes3lGumHj1GfyiYuMTDavZ8fx/qlo94+9bSK2QpW6XPWZ4XQDAqUVVAJCkGo06qdMF9xlas0mHS9TSoN+oj9Xx/HuCvk5/LIfDqR5XPK4qtVoaVlMqeZnQ2de8oNTyWYbVjE9M03k3valySRmG1QQAlF7UBQBJOu3Mq9X76ucUE1suuEIOh1r1vEHdLv+PIXP9vbxTfa4boVY9bwi6Vmx8ovoMfkkN2gR/k+LxJKRU0CX3jDPk0cC0SrV08Z1jlV65jgGTAQAC4ZL0n0AXt+tzu3GTGKx8ZgNlNTxDe7f9qoKcA2Ven5yRqZ4DhqlF14FyOBwhmLCEw+FUVsMzlJJRTXs2L1VxAFsNV63TSn1veE2ZdduEYML/iYlLUIPWfVXsLtS+7avk9/vKtN7hcKpxuwt1znUjePEPgLBU7PUrO9+cbdCNsHnuuwGvdUgKeL/YW19YGXBjs/j9Pq1fNFlLvn+vVFsGJ2dkqkWXq9Si60C5YuJNmPB/PEV5WjJzpFbNHV+q0FKpRjO1Oetm1WnRy4Tp/uzIge1a8M1r2rj8WxW7C0/6tU5XrGo16ap259yhCtUamjQhAJRdodunTfvyrB6j1GY93zHgtVEfAI51eP9WbV45Uwd3rVd+zn4V5BxUfEKKktKqKK1iTdVseqYqZTW1ekz5/T7t2bJcW1fPVs7BHco9vFueonwlplRUYmolVazWWLWbdVdyRqbVo6rYU6jt6+Zqx/r5yju8W3lH9snv9ysxpYKS06uqap1Wqtm4i+LKhebpDAAwEgGglCItAAAAcDJ2CgBReRMgAAA4OQIAAAA2RAAAAMCGCAAAANgQAQAAABsiAAAAYEMEAAAAbIgAAACADREAAACwIQIAAAA2RAAAAMCGCAAAANgQAQAAABsiAAAAYEMEAAAAbIgAAACADREAAACwIQIAAAA2RAAAAMCGCAAAANiQQ5I/0MWpFbIMHAUAAGv5/VKxN+DDoukKDu8IeG1QAQAAAEQmLgEAAGBDBAAAAGyIAAAAgA0RAAAAsCECAAAANkQAAADAhggAAADYEAEAAAAbIgAAAGBDBAAAAGyIAAAAgA0RAAAAsCECAAAANhQTzOJZC9YZNQcAAJYr9km5HpfVY5TaRV3qBbw2qABQo1adYJYDABBWin0OHXFHTgAIBpcAAACwIQIAAAA2RAAAAMCGCAAAANgQAQAAABsiAAAAYEMEAAAAbIgAAACADREAAACwIQIAAAA2RAAAAMCGCAAAANgQAQAAABsiAAAAYEMEAAAAbIgAAACADREAAACwIQIAAAA2RAAAAMCGCAAAANgQAQAAABsiAAAAYEMEAAAAbIgAAACADcVYPYCRDmcf0pHD2TpyOFt+v9/qcYBSSUvPUGpautLSM6weJST8fr/27NqhvLw8FeTnWT2O4ZxOp1JS05SeUV4pqWlWjwOUWkQHgD27dmjKpM80Z/b3Wr5koQ7s32v1SEDAKlSsrNNatVWnrj113oWXqkpmdatHCojf79fiBXM1feok/TL3R61bvVKFhQVWj2WKylUydVqrdurS/Syd2+9iVaxUxeqRgBNySAr4V+UNez0GjlJ6Sxb9ojdeelqzvpsmr9dryQxAKDmdTvXo3Ve33v2AWrXpYPU4peJxuzXhk9F69/XntWnDeqvHsZwrJkZ9+l6kW+9+QE2bt7R6HJRSsc+hI26X1WOUWruajoDXRlQA2L9vj4Y9cq+++nycqX0BK11wyZV66PHnwvq3ybmzZ+rRfw3Rxt/WWT1K2HE6nbrsqsH616NPR+1lnmhCACglMwPAnNnf655brtH+fXtM6wmEi4qVqujFNz9Up649rR7lT7xer55/8hG9/epw7rs5hWpZNfXyOx9FzBkdu7JTAIiIpwC++GysrhtwPgd/2Nb+fXt03YDzNXH8GKtH+YPbXaQhNwzQW688x8G/FHZu36qBF52l6dMmWT0KICkCAsDkiZ/oviHXq9hjzf0GQLgo9nh035DrNfHT0VaPIq/Xq3tuuUbfTv3C6lEiSlFRoW6//gpCAMJCWF8CWLp4vgZc0EMetzukfYBIEhsXp3FfztTprdtbNsOwR/6pUW+9bFn/SJeYmKTPv5mjBo2aWj0K/oJLAGEgLzdHd910FQd/4C88brfuuukq5eXmWNJ/5vSpev/tVyzpHS3y8/N0x41Xyu0usnoU2FjYBoARzz2u7du2WD0GEJa2b9uil4cPNb1vQUG+/vvgXVzzN8D6tav0zmsvWD0GbCwsA8CuHdv04XuvWz0GENbef+dV7dhubkge/d7r2rZ1s6k9o9mbI57RoYP7rR4DNhWWAeC9N1/i1D9wCsUej0a+OcK0fh6329R+dpCfn6fR771h9RiwqbALAB63W1+M/8jqMYCI8MX4saZdR541Y5r27d1tSi87+ezjD+Tz+aweAzYUdgFg/rzZnBIDSin70EHNnzvblF7fTOaRv1DYsX2LVi5fYvUYsKGwCwDzfppl9QhARDHrZ2buz+b0saN5/N3CAmG3G+DqlcuDWh/jdKlBRg0lxMQbNBEQOoVet9Yd3KpiX+CbWgX7M1Ma2YcOaPfO7UHVSE5JU1atenI4An9uORwV5Odp6+b18gWxMZkZ/x8CfxV2AWDLpt8CXtuycgN90f8ZZaVUNnAiILS25+xV/4kPaOnewDbSCeZnprQ2b9oQ1Pqrb7lPt9//pFwxYfdPjiG2b9mguwefpy0b1ga0fvNGdk+E+cLuEsCRw4cDXjui1z0c/BFxslIqa0SvewJefzg728Bpju/I4cB7ZNWqpyEPPB21B3+p5M9418PDA14fzN8vEKiwCwCFhQUBr21esa6BkwDmOa1y/YDXFhbkGzjJ8RUF8XNZt2EzOZ1h90+N4Ro2aRnw2oKCwP9+gUCF3U9lMG8YczrC7o8DlIpTgV8XN+OtfEH9XLoi573qwQgm5PBmRVghes/JAYDNZR86qMUL5mrf3j3yh/m7BlLS0tS0+emqU6+B1aPYBgEAAKLMlk0bNPyJh/XN1C/kLS62epwyadq8pf7x4OPq0buv1aNEPc6ZA0AUmfXdNPXr1U5Tv/ws4g7+krTq12W6ceCFeuo/93NpJMQIAAAQJZYvWajbr7/Csq2ijfTu6y/q9RefsnqMqEYAAIAo4PP59NC9twb1JFW4GfHc4/pt7Wqrx4haBAAAiAI/zZquVSuWWj2Gobxer95/9xWrx4haBAAAiAIzv5tm9QghMXN6dP65wgEBAACiwNbNG60eIST27NqhoqJCq8eISgQAAIgCvjB/zj9Qfr9f3iA2WsKJEQAAIApUq55l9QghkVG+ohITk6weIyoRAAAgCnTp3tvqEUKiW88+Vo8QtQgAABAFzurTTzVrR9eGaA6HQ4Ouv8XqMaIWAQAAokBsXJwee/KlqNp5ccA1N6pV245WjxG1ouc7BQBsrvtZ5+rxZ16VKybyt3k5u+9FeuyJl6weI6oRAAAgilx57U0a+/l0NTutldWjBCSjfEU9+sSLem3kJ4qNi7N6nKgW+TERAPAn7Tp20ZffzdfK5Us0f+5s7dq5TXl5uVaPdUJxsXGqWLmqmp/WSh27dFd8fDmrR7IFAgAARKlmp7WK2DMBCD0uAQAAYEMEAAAAbIgAAACADREAAACwIQIAAAA2RAAAAMCGCAAAANgQAQAAABsiAAAAYEMEAAAAbIgAAACADREAAACwIQIAAAA2RAAAAMCGCAAAANhQjNUDAABCo7CwQCuWLtLunduVl5tr9Tghk5ySoqrVstTi9DaKjy9n9TgRgwAAAFFmz64dGvHc4/pywjgVFORbPY5pEpOS1f+ygbrj3odVqXJVq8cJe1wCAIAoMn/ubPXt3kafjBlpq4O/JOXn5Wrs+2/pvO5ttGThPKvHCXsEAACIEmtX/6obB16o7EMHrB7FUgf279X1V/bTxt/WWT1KWCMAAEAU8Pv9eugftygvN8fqUcLCkcPZ+vc/brZ6jLBGAACAKDDvp1lasugXq8cIKwvm/aRF8+dYPUbYIgAAQBSY8e1kq0cIS99/O8XqEcIWASDKuL0eHSrMkcdXbPUoAEy0eeNvVo8QlrZs2mD1CGGLxwAj3NYje/TZ2u81ffN8Ld6zVgcLj/zxuUqJ6WpTpbHOrtNBlzbqqcykChZOCiCUij0eq0cIS253kdUjhC0CQITakL1dQ+eM0rjV0+X1+477Nfvys/X1pnn6etM8/WvWaxrU7Bz9u+O1qp2WafK0AEIts3qW1SOEpcxq/L2cCJcAIoxffo1Y9IlavX+txq765oQH/7/y+Io1asVktRg1UI/+9I7yPIUhnhSAmTqf2cvqEcJS1x69rR4hbBEAIojb69H1U4fp3pmvqKA4sNNahcVuPTXvAzV770qNWfWN/PIbPCUAK5x17gWqklnd6jHCSo2atXVmzz5WjxG2CAARwi+/bv7maY1Z9Y0h9Xbk7tN1U4fqjDE3ac6OFYbUBGCdcuUS9Miw5+VwOKweJSw4nU49+uRLiouLt3qUsEUAiBDD539k2MH/WIt2r1H3j2/T9dOGaWfufsPrAzDPuf0u0b8efcr2IcDpdOrhoc+r59nnWT1KWCMARIC1B7fovz+/G7L6fvk1euXXavbelXrml9EqLHaHrBeA0Lrp9n/q3bGTVKdeA6tHsUT9Rk006pMpuvamIVaPEvZ4CiACPPbTuyryhv4Rn1xPgR6e/ZbeWjpR/+3yf7q62Tkh7wnAeN3POldde5ytBXNna/7c2dq3d7d8pbxhOBI5HU5VrpKpDp27qU37TnK5XFaPFBEIAGFu8+Fdmrj+B1N7bsvZq+unDdOHK6fqhR53qUWleqb2BxA8l8uljl26q2OX7laPgjDFJYAw99na7y1L7rO2Lla7D6/T7dOHa3/BYUtmAACEBgEgzM3cutjS/l6/T28v+0JN3r1Cz80fK7cJlyIAAKFHAAhzy/ett3oESVJ2Ua7+/eMbavPhdfpmEzuOAUCkIwCEMZ/fp7352VaP8SdrDmzW+RP+qXPG361V+zdZPQ4AIEAEgDCW5ykM2zt3Z2xZqHajr9f9s17V4aJcq8dBiDmdgf9TUey2x2OlHk/gf067P7cPaxAAwli4HvyPcns9enHhODV69wq9snh8qfclQOQpl5AY8No1vy5WUWGBgdOEpyXzZwe8NikpycBJgNIhACBoBwoO6x/fj1DH0Tdq9valVo+DEMjICHwr6f17d+mhIVdq57bovGTk8bg1+7uvNGLYvQHXyChf0cCJgNLhPQBRKiU2Uc93vllDF47Rttx9pvRcunedeo4bovPqddJLPe9h2+EoUrtufTkcDvn9gW0e9cO3k/TDt5MMnip62PWtfbAWZwCiWK+sVpp+wTN6pO1AJcWWM63vlA1zdNqoQfr3j28ox51vWl+ETlJyCgepEGreso3VI8CGCABRLtYZo8GN+2j6Bc9oQIMecpp0s1FBcZGemz9WzUdepdErv2bb4SjQqWtPq0eIWvzdwgoEAJuokpChJzpcpwnnPKbWlcz7TW5n7n5dP22YOo35P83b+atpfWG8vhdeZvUIUalp85aqW7+h1WPAhggANnNahbr6tM/DeqXrEFVLCvzGrrJauHu1zvzoVl351SPalrPXtL4wTvszuqpeg0ZWjxF1Lh90g9UjwKYIADbkkEN9a7XXN/2e1p2n9Ve8K9aUvn759dnamWox8io9Pmck2w5HGIfDoVvuvN/qMaJK5SqZuuyqwVaPAZsiANhYYky87jqtv2Zc+Jz61+1sWt88T6GGzhmppu8N0OiVX5vWF8G76LJBatm6ndVjRI37Hh6mcuUSrB4DNkUAgDITy2t4p5s1tveDapxRw7S+R7cd7v3pnVqxb4NpfRE4p9OpYc+9rri4eKtHiXhdu/dW/8uvtnoM2BjvAcAfOlZpoq/6DtOkTT/rqcXjdKDwiCl9Z21drLYfXqermvTWM92HqHJihil9EZimLU7XQ0OH67F/3WH1KBGrarUsPf/6+yF9BfDa1b9qwrgP9MucH7V39y4VFRUa3sPpdKlCpUpq0qylzr/oMvXq04/XGkcQAgD+xOlwqH/dLuqZ1UpvrZyikau/lsdXHPK+Pr9PY1Z9oykb5+i+9oN0V5vLFWfSvQkou0HX3aId27bo7VeHWz1KxElLz9CocZNVoWLlkNT3uN0a+vA/9PGH78jnC/3ruQ8d3K/f1q7WV5+PU8vW7TTi7Y9Uo2btkPdF8LgEgONKi0vS/a0u19Tzn1D36i1N63uoMEf//vENtfrgWk3bONe0vii7fz36lO5/5Emrx4golSpX1ZjPp6th42YhqV/s8ejGgRdq7PtvmXLw/6tlixfo4j6dtHnjb6b3RtkRAHBSdVMz9V6Pf+rDXv9S/bTqaji1oAAAHGlJREFUpvVdd3CrLvj8Pp0z/m6tPrDZtL4om5vvuE+vj/pUqWnpVo8S9tqf0VWTps9T0+ahC9QvPP2Yfvrhu5DVL42DB/bp1sGXylsc+jOHCA4BAKXSObOZppw3TI+0HaiU2MB3hiurGVsWqs0Hg3XP9yPYdjhM9TmvvybPXKje515o9ShhKTUtXY89NUJjPp+uKpmhC9G7d27XqLdeDln9sli3ZqXGf/yB1WPgFAgAKLUYp0uDG/fRrIuG69rGZ8vlMOfbx+Mr1quLx7PtcBirnlVLb37wmSZ8/bPOOf9ixcbFWT2S5TKr19A/Hvivfli4XtfccJtcLldI+039coLc7qKQ9iiLSZ+NtXoEnAI3AaLM0uOT9WjbQbqkbhcNXThWC/auNaXv0W2HR6+cphd63KUuWebdm4DSOb11e7028hNlHzqgWTO+1i8//6A1q1Zo+9YtOpx9UF6v1+oRQyIhIVEVKlZSnXoNdXrbDup8Zi+1ad9JTqd5v2MtW7LAtF6lsXTRfPn9fp4KCGMEAASsWfnaGnf2Q5qxfYkeXzha23P3m9J3yZ516jHudrYdDmPpGRV00aUDddGlA60exTYO7jdn2+/ScruLlJtzRCmpaVaPghPgEgCC1iurlb7p97Tub3W5EmOs2XY411NgWl8gHKWlh9f7M2JiY5WUnGL1GDgJAgAMUc4Vp5ubna/vLnhG/et2lkPmbjt8+vvXaObWRab0BMJRkxA+XRCIxk1bmHoJBGXH/zswVJXEDA3vdLMmnPuYWlWsb1rfLYd3qc+nd+vxOSNN6wmEk3P7XRJWB9zzL7rc6hFwCuHz3YKo0rJCXX3a5xE91fEGVSxnzjVAv/waOmekhs0dZUo/IJzUrd9Q/S8fZPUYkqQqmdU18LpbrB4Dp0AAQMg4HQ5dXr+bZlz4rG5q2lexTnPuOX3855H6ePV0U3oB4eSxJ19SoybNLZ0hPr6cXntvnBITkyydA6dGAEDIJccm6IHWA/R1vyfVK6tVyPv55ded3z2v7Tl7Q94LCCdJySn66IsZ6tq9tyX9q1bL0tgvvlOrth0t6Y+yIQDANLVTqurt7vdozFkPqFF6aLcdzi7K1X/nvBfSHkA4Ss8or/c/naq3PvxcZ53TT8kpqSHtFxsXp9NatdWD/3lW381dqVZtOoS0H4zDewBgujOqNtVX5z2useu+14hlnyvbnReSPmNXfqNHO92gGimh2XUNCGdnndNPZ53TT5KUn58nj9sdkj7h9vghSo8AAEu4HC5d06i3LqzTSSOWT9SYtTPk9Rv7ljiPr1jj18zQP9pdaWhdINIkJiZJXJPHX3AJAJZKi0vSo20H6avzHlenqsZvkfr1pnmG1wSAaEAAQFholF5Do8/6l97odpdqGnjKfsmetfLLb1g9AIgWBACElbNrtNH0fs/okbYDlRybEHS97KJcHS4KzT0GABDJCAAIO0e3HZ5+wTPqUKVJ0PWyC3MMmAoAogsBAGEp252nN1dO1kIDthpOjDVvgyIAiBQ8BYCwUuzzavS67/Ty8ok64s4Pup7L4VR6fLIBkwFAdCEAIGz8vGulhi0aq3XZ2w2r2bhCbcW5Yg2rBwDRggAAy208sktPLPpIs3YsM7z2GdWsfS86AIQrAgAsk+PJ1yvLv9AHa6er2GfsS4COurRRz5DUBYBIRwCA6Xx+vyZt+llPL/5E+wsPh6xP4wq11aNm65DVB4BIRgCAqX7Zs0bDFo7RqkNbQ97rv51vlNPBgy4AcDwEAJhiR95+Pb14nKZumW9Kv/4Nuuniht1N6QUAkYgAgJAqKHbr7VVT9PbKKSr0hmY3sr9qUqG23urzgCm9ACBSEQAQEn759eWmuXp2yafanX/QtL5NK9bRlEueV0a5FNN6AkAkIgDAcMsPbNTjC8doyb7fTO17Yf2uevfch3jxDwCUAgEAhtlbkK3hS8dr4saf5PObtwNfZlIFPd39dl3V5GzTeqJsij0e5eXl6siRw5KJ3xuITMkpKSqXkKiEhESrR4lqBAAErdjn1Zh13+nFZZ8r11NgWt9YZ4xuPr2//tvlRqXGJZnWF6e2acN6fff1l5r38w9at2aldu3YJj8HfpRRekYFNWjURO06dtGZPfuobYfOcjgcVo8VNQgACMqM7Us0bNFYbc3Za2rf8+p10gs97lLd9Oqm9sWJ+f1+zfjmK7396vNaNH+O1eMgCmQfOqAF837Sgnk/6fWXnlaNWnU0+KY7dMXVN3B2wABhFwDi4uKVp7Jv3+qQQ/G88900G47s0hMLx+qHnctN7duofC0N73GHzqnT0dS+OLlVvy7To/fdriWLfrF6FESxbVs2aejD/9Dbrz2vh4cOV98LLrV6pIgWdgGgStVMHTq4v8zrKiamsemLCbLdeXp5+USNWTtDXn9oXt97POXLperhTtfp1tMvVozTZVpfnJzf79fIN0fo2WH/VrHHY/U4sIk9u3bojhuv1PeXTdHjz76ixCRu/A1E2AWADp27ac2qFWVe16NmmxBMg6O8fq/G//ajnl/2mQ4Wlv0MTaBinC4Nbn6eHu/yf6qUmG5aX5ya1+vVo/8aonEfvmv1KLCpiePH6Lf1q/XeR1+qQsXKVo8TccLuPamXXjlYTmfZxxrc/LwQTANJmrt7lfpNeVQP/TLK1IN/j5pttOCakXrj7Ps5+IcZv9+vh++9lYM/LLdi6SIN7N9bh7MPWT1KxAm7ANC0eUtdPuj6Mq25oH5X9a7dPkQT2deWnD26Y/arGvTd01qbvc20vvXSs/Rxv6H69vIRal6xnml9UXqvPv+EPh07yuoxAEnS+rWrNOSGAfJ6zbssGQ3CLgBI0mNPvqROXUu3jWvrKo008tyHQjyRveQXF2nE8ok6Z/KDpr27X5KSYsvpkU7Xa9l1o3Vpox6m9UXZzJ87W688P8zqMYA/mTP7e73x0tNWjxFRwjIAxMXFa9S4ybr5jvsUFxd/3K+Jcbp08+n9NXPAa0rjzW+G8MuviRt/Us9J9+rl5RPl9hab0tchhwY17aM1N36qRztdz9McYczjduuR+27jNy2EpVdffFIb1q+1eoyIEXY3AR4VExur+x95UtfeeLu+njxRy5Ys0KHftqpaYTm1rNxAlzbqqdppmVaPGTWWHdiooQvGaMl+c1/f2y6zqV7seZc6ZDYztS8CM27Me/pt3RqrxwCOy+N26/knH9Hroz61epSIELYB4KgqmdV17U1DJEkpC3YpY2bo95G3kz35h/Tc0k/1xcY58su8N7VVT66koV1v1qBmfeQQb/aKBF6vV++8+rzVYwAnNX3aJG1Yv1b1GjSyepSwF/YBAKFR6HXrgzXf6tUVXyq/uNC0vgkx8RrS+lL9+4zBSo5NMK0vgvfzD99px/YtVo8BnJTP59OEcR/o/keetHqUsEcAsKEZ25fo8YWjtT237C9cCsZ59TrppZ73cOkmQk37aoLVIwClMnXSeAJAKRAAbGTlwc0aunCsFuw19yaZVlUa6oUed6lLVktT+8JYc2fPtHoEoFS2bd2sbVs3q0bN2laPEtYIADaQXZSrl1d8oTFrv5PX7zOtb4WEND10xmDd1uoSuRxh+cAJSunI4Wxt27o5qBpOl1Op1crL6eJ7ASeXsydbngJ3UDVWrVhCADgFAkAUO7pN70vLJirHk29a36Pb9P6n8w08ohklNm8M7umQNoO66/xnrlF8Mvd94NR8xV4tHDNLk+55T35fYDcnB/s9awcEgChV6HWrz1cPanPOblP79qvXRc92H6L6GVmm9kVoHT4c+GtW07Mq6qKXbpQrlk2cUDrOGJfaD+6lzXPWaOknPwVUI/vQQYOnij6ci4tSHl+xqQf/huVr6suLn9Pn/Z/m4B+FCgsCP4NUtUVNDv4ISFbrwF8FXpCfZ+Ak0YkzAAhKRrkU3dd+kO5qcznbMUcxvz/wd0S4Yjj4IzDOIL53gvmetQsCQBhLiDn+a5DDgdPh1FVNeuvZ7newUx8ARCACQBiLc8UqMbac8j3mvainNHrWbKMXet6lZhXrWj0KACBABIAw16h8TS3Zs87qMSRJNVIq679d/k9XNzvH6lEAAEEiAIS5dlWbWh4AUuIS9UCHa3RX2yvYqQ8AogRPAYS5ixqcaVlvhxy6tFEPLbtujO7vMIiDPwBEEc4AhLkeNduoTlo1bTq809S+Has114s971Lbqk1M7QsAMAdnAMJcjNOlBzteY1q/rJTK+uC8R/XjVW9w8AeAKEYAiADXNu+rrlmnh7RHQky87ms/UMuvG6Ormpwthxwh7QcAsBYBIAI4HU6NPPchVUksH5L6lzbqoRXXj9WTZ96qlLjEkPQAAIQXAkCEqJ2WqUkXP6vy5VINq9mycgN9P+BVfdxvqGqlVjWsLgAg/EVMAMjPy9WW3VuVXZRr9SiWaVO1sX686g01yKgRVJ3KiRl68+z7Nf/q90J+aQEAEJ7C+imAvNwcvf/2K5o04SNtWL/2j4/XTsvUFY3P0j1tB6hCQpqFE5qvUflaWnjNKD360zt6Y+nncns9pV5bLiZOt55+sR46YzDb9AKAzYVtAFi2eIFuve4y7dm142+f23x4l575ZbTeWTZJH/V7XL1qtbVgQuskxpbT8B536M42l+uVxeM1fs0M7cjdd8Kvr5WWqQGNz9LtrS9VZlIFEycFAISrsAwAq1cu16BLzlZ+3slP9x8sPKJ+E+7VtMteVLcarUyaLnzUTK2i57oP0TPdbtPqA5u1eM867czdp8NFuUqPT1FWamW1rtxQjSrU4q5+AMCfhF0A8BYX686brjzlwf8oj69YgyY/ptU3fqLk2IQQTxeenA6nmlWsy+Y8AIBSC7ubAL/8/GNt/K1s777fnXdQby2dGKKJAACIPmEXAL6eHNiBfMK6WcYOAgBAFAu7ALB21YqA1v26b4PBkwAAEL3CLgAcOnQwoHUFxUXK8xQaPA0AANEp7AKA3+8PeK3P7zNwEgAAolfYBQAAABB6BAAAAGyIAAAAgA0RAAAAsCECAAAANkQAAADAhggAAADYEAEAAAAbIgAAAGBDBAAAAGyIAAAAgA0RAAAAsCECAAAANkQAAADAhggAAADYEAEAAAAbIgAAAGBDBAAAAGyIAAAAgA0RAAAAOMph9QDmIQAAAPA7v9/qCcxDAAAA4HcEAAAAbMjvt881AAIAAAC/81o9gIkIAAAA/M7r4wwAAAC24+USAAAA9uLzO+TjJkAAAOzFY6PT/xIBAAAASQQAAABsx++XPF4CAAAAtuL2OmWjy/+SCAAAAKjQZqf/JQIAAMDmPD6HrZ7/PyrsAkBMTEzAaw8X5Ro4CWCe7CC+d11B/MyUlsMR+D+O3mI7vVsNRvIF8b1Tlu/ZguKwOxSaIuz+1IlJyQGv/WTNdwZOAphn3OrpAa9NSk4xcJLjK5eQGPDaXcu3yOshBKDsti/eEPDahMSkUn2d2+tQsQ1/+5ek0P/qUEaVq1TVrh3bAlr78Oy3tD1nn3rVaquEmHiDJwOMV1BcpBlbFurNpZ8HXKNK1UwDJzq+9PTyAa89vOOAvrj7XZ3/9DWKT0kwcCpEK1+xVwvHzNKy8T8HXCM949Tfs35J+cWugHtEurALAHXrN9ayxQsCWlvs8+rVxeP16uLxBk8FhK969RuHvEetOvWCWr9ozCwt+fhHpVYrL6cr7E48hq345ARVbV5TzS5oryZ92wR1Kaasdq/cqiXjZmvLvLXK3XfE1H1yc/Zky1PgDqpG7br1T/k1+cVOW73576/CLgC0aXeGJn462uoxgIjRpn2nkPdITUtXjVp1tG3LpoBr+Lw+ZW/bb+BU9rDr1y1aMm62qp9eR1e8d4cq1g/tGZ/iQo++un+UFo6eJX8EHx2btmh10s97vA4V2fTa/1Fh96fv0qO3qSkXiGQOh0NdevQ2pVenrj1M6YPj27F0k97o9Yj2rArsEmlpFBd6NPKiJ7Tgg5kRffCvUauOatSsfcLPe/1Sro1P/R8VdgGgRs3aat3uDKvHACJC63ZnnPQfOiOde8GlpvTBiRVk52n0lcODPj1+IlMe/FCb564NSW0zndvvkhN+zi8p1+My84pG2Aq7ACBJ19xwm9UjABHBzJ+VTl17KqtGLdP64fgObt6ree98a3jdfet2asEH3xte12xOp1OXXjn4uJ/zS8pxu2z5zP/xhGUAOPeCS1W/YehvbAIiWf1GTUz9rdzlcummIfea1g8ntmTcbMNrLvtsjnxen+F1zdbnvP6q16DR3z7u90u5bpdtH/k7nrAMAC6XS48/+xr3AgAn8diTL8nlMvc65hUDryech4HdK7fKnVdoaM2t89cZWs8KcXHxuvehYX/7uM9f8pu/3Xb7O5WwewrgqA6dztTAwTdrzKg3rR4FCDtXX3+rOnXtaXrf2Lg4DRv+hgb2P0teLy/3sVL5PamqXLu6YfU8+4wNFFYY8s+H/vb4n8fnUJ7HZevH/U7EIQW+AdKGvR4DR/m7oqJCDbr4bC1eMDekfYBI0rrdGRo7cbri4qx72dVrLz6lF5561LL+kBav26u09AzD6l11US/9MudHw+qZrUu3szTqkylyOktObPslFRU7VVAc3bv8tasZ+FmNsLwEcFR8fDm9M+YLNWl2mtWjAGGhcdMWemfMF5Ye/CXptrsf0GVXDbZ0BjurllXT0IO/JDWO4H9nGzdtoVffG/fHwd/rcyjH7VJ+lB/8gxXWAUAqeZ3jR1/MUIfO3aweBbBUxy7d9fGk70v1itNQczgceuL5N3XltTdZPYotnReCmz/7Ruhjni1bt9PoCd8oJTVNXr9DuR6XDnOzX6mEfQCQSt5CNnr817rt7gdM2fkMCCeumBjdfs+D+vDTaUpNS7d6nD+4XC4Ne+51PTLsBcXGxVk9jm2kpKbppiH/NLxu2w6ddWbPPobXDaVLBlyjsRO/U2r5ysr1uHSkyCW3lwN/aYX1PQDHs3rlcj356H2aMzvyn1cFTqXzmb3078efU+OmLawe5aTWrFqhR+8fokXz51g9SlRzuVx64/3P1KvP+SGpv2/vbvXv0yngDdnMklm9hh4a+oJ6nHOxirwOef32PegHcw9AxAWAo5Ys+kXjPnxHX0+eqNycI5bNARgtOSVV55zfXwOuuUmt2nSwepxS8/v9mjl9qt5+dbgW/vKz/LxqzVBp6Rl6/rX31aN335D22bVjm24ZfKl+XbY4pH0CUbNOfV11w53qd/mNiivHzpKShQFg4Tbrf8C9xcVauXS+Vi5boC0b1ir70H7lHjksnz/yX2iB6Od0OJWcmqb0jIqqVa+RmrVsp2ant4/4S13bt2zQD99O0sI5M7Vhza/avXOrfD5+JgNRp34T9ex7iQbedI9Sg9iWuSx8Xq+mfD5ak8d/oGULflZxsTW/7GVUqKQ6DZqqVfuu6tTjXLVofQbvh/kLywLAgq3WBwAA4c/n9So394hyj2RzZqCUYmJiVb5SFcXGWnt/hd/v18H9e1RYkG9az6TkVCUmJSsuvpxpPSNVMAEgsn/NABARnC6XUtMylJpm7KNrCD2Hw6EKlapaPQZCICKeAgAAAMYiAAAAYEMEAAAAbIgAAACADREAAACwIQIAAAA2RAAAAMCGCAAAANgQAQAAABsiAAAAYEMEAAAAbIgAAACADREAAACwIQIAAAA2RAAAAMCGCAAAANgQAQAAABtySioMdLG7KOClAAAgCEWFBcEsL3BKyg10dX5ewEsBAEAQ8nKPBLM8xykp4AqHDuwNpjkAAAjQoQP7glkeXADYsnFdMM0BAECAtgZ3DD7ilLQl0NUb160MpjkAAAjQxvWrglm+2SlpbaCrly74KZjmAAAgQIvn/RDM8jXBBYD5s+XxuIMZAAAAlJG7qFDLFv4cTIl1TkkBn0MoyM/Tz99PDWYAAABQRj/NmBLsY4CrnJIWS8oLtMLUz0cHMwAAACijaRPHBLM8V9ISpyS3pIAv5s+e/pV2btsUzCAAAKCUdmzdqNkzJgdT4kdJnqOvAp4ZaJXiYo9Gv/lcMIMAAIBSev/1p+UtLg6mxExJcvz+P1pIWh5opdjYOI39Zqnq1G8SzEAAAOAkNq5bqYHntFJxsSeYMs30+z0AkrRC0tJAK3k8bj338BD5/f5gBgIAACfg9/v1zMO3B3vwX6zfb/53HfPBZElnB1px57ZNSs0or+atOgQzGAAAOI6P33tJE8e+HWyZZyT9Iv3vEoAkVZW0TVJMoFVjY+P0zoTZanZ6++DGAwAAf1ixeJ5uvqxbsO/e8UiqIWmPVLId8FG7JX0UVGWPW/dcd762bAj43UIAAOAY27ds0L03XmTEi/fG6PeDv/TnMwCS1FjSSv05GJRZ9Zp19ca4GcrMqh1MGQAAbG3ntk26dUAvIx6390pqKumPHYT+eqBfI2lCsF12bN2oG/p31vrVAT9YAACAra1ftUw39O9s1Lt2xuuYg7/055sAj/pV0k0n+Fyp5eflaNrEMaparaYaNDktmFIAANjKlAkf6v6bL9GR7INGlCuSdIWkA8d+8HgH+f0qeSKgS7AdPR63Zn49Udu3bFDLtp2VkJgcbEkAAKLWgX279dSDN+vdEUNV7Anqcb9jPaOSMwB/8td7AI5KUslzgjWN6p6Smq7r73xYlwy6RQmJSUaVBQAg4uXn5WrC6Dc08pUnlJtz2MjSm1Ty4p+/7Rx0ogAgSedKmnKKrymzjAqVdMnVt+q8S65RVq16RpYGACCibNv8m6ZO+FCfjX5D2Qf3G13ep5Jj+bfH++SpDu7PSrrP6IkkyeFwqNnp7dXxzLPV+ozuatikpdIyKoSiFQAAYeHwoQNat3qZFs2ZqXk/fqtVyxaE8i26T0n694k+eaoAECtplqROBg50QunlK6pqtZpKTE5RTEysGS0BAAgpj8etgrxc7d65NRS/5Z/IbEk9JZ1w16DSnN7PkjT39/8GAADhbaukMyTtPNkXleaFP9sl9ZFkyLMIAAAgZA5IOkenOPhLpX/j3yqV3EiQF8RQAAAgdAokXShpdWm+uCyv/J0v6TxJhj6fAAAAgpatkt/8fy7tgkAe8Wsm6WtxTwAAAOFgl6S+kpaWZVEgm/6slHSmpBUBrAUAAMZZppIb/sp08JcCf99/tqRRklIldQiwBgAACNxoSf1V8gr/MjPiLX8DJb0qKd2AWgAA4OSyJd0m6eNgigS149/vVkh6X1IVSafJ4FcHAwCAP4xXyQ3584ItZPTBurukFyS1MrguAAB2tkjSPyT9aFTBQG4CPJlZklpL6q2StwcCAIDAzZF0gaR2MvDgL4X+dP2Zkq6XdLGklBD3AgAgGuRImqCSm+0NPegfy6zr9UkquVPxIpVcJmDbPwAA/me/Ss6ifyFpoqT8UDe04oY9p0puFuwhqYWkJpIaScqwYBYAAMx2UNI6lbyyd4WkmZKWS/KZOUQ43bFfQVKaSoJAskq2IgYAINJ5JOVKOqSSR/jYXA8AAAAAAAAAAAAAAAAAAAAAAAAAAAAAAAAAAAAAAAAAAAAAAAAAAAAAAAAAAAAAAAAAAAAAAAAAAAAAAAAAAAAAAAAAAAAAAAAAAAAAAAAAAAAAAAAAAAAAAAAAAAAAAAAAAAAAAAAAAAAAAAAAAAAAAAAAAAAAAAAAAAAAAAAAAAAAAAAAAAAAAAAAAAAAAAAAAAAAAAAAAAAAAAAAAAAAAAAAAAAAAAAAAAAAAAAAAAAAfvf/gFt7Y7YLbUYAAAAASUVORK5CYII=;" vertex="1" parent="1">
                    <mxGeometry x="368" y="864" width="32" height="32" as="geometry"/>
                </mxCell>
                <mxCell id="30" value="" style="shape=image;verticalLabelPosition=bottom;labelBackgroundColor=default;verticalAlign=top;aspect=fixed;imageAspect=0;image=data:image/png,iVBORw0KGgoAAAANSUhEUgAAAgAAAAIACAYAAAD0eNT6AAAABHNCSVQICAgIfAhkiAAAAAlwSFlzAAAOxAAADsQBlSsOGwAAABl0RVh0U29mdHdhcmUAd3d3Lmlua3NjYXBlLm9yZ5vuPBoAACAASURBVHic7N13fFvV2cDxnyRLsi2v2LETCFmE7MUKBBIgm02AUtqXWWaYZZQOKNBQoIPSMkrTNxDCfFva0jLCzCKETRjZg+wEyHAST9nWfv+4djHBQ9I5V/dKer6fz/3QJrrPfSwrOs899wwHItuUAYOBPkDf5v+WN/95y+ECPICv+Rw/EAQiwN5WRyWwGdjS/N+1zX8uhBBWGAFcCYzH+H5zAeuBJcCi5mOrRbnFYyRG/hOA3s1/thVYCMwElluUl0hD5cAZwG+BN4CvgJjJx1fA683XPAPoavpPKYTIdocDLwFROv+O2gw8AVzMN42s1eLJPwL8BfBalKOwuQKMRvevGHfjZjf28R5rgBnA6XzTqyCEEKoSafjtWBAkk/8ijO96ISgFLgfeBJqwvrHv7GjC6I24tDl3IYRI1HDgn6g1/O0dXzfHvhI42Kb5vwcUmpSbsDkPcA7wKsazeasb9WSPAPAK8D3ArfUdEkJkIjMb/lQUBDrzlyIgy/QBfg/sxPrGW/exE/hd888ohBCtWdHw6ywIzMpfioAscDjwNBDC+g+/2UcEmAMco+WdE0KkMzs1/MkUBKnIX4qADDUGWID1H3CrjnlIISBENtIxuM+qYzPGoMJU5v8OMjAwYxwOvIb1H2S7HK8Ahyq9o0KIdJAOd/x2PaQnIM11BR4Cwlj/YbLbEcF4DNIt6XdXCGFX0vDrOaQISEMu4GagFus/QHY/qoEbmt8zIUR6k4Zf/yFFQBoZDnyE9R+adDs+w3hUIoRIP9Lwm3tIEWBzOcB00nsev9VHELgD6Q0QIl1Iw5+6Q4oAm+qDMWrT6g9IphwfAock8gsQQqSUNPzWHFIE2MwPkGf9Zhw1GKsjCiHsQxp+6w8pAmwgB2OlO/mHYO4xE1lWWAirScNvr6PNIsCx/x8IU5QC/wbGWZwHAC4X9OkJAw6BwQNgQD/j/xcXgS8ffD7oUmz8bwB/A1TVgN8P9X6orYMt22HdBli7Htath61fQiRi7c/VykKM3oAqqxMRIsscDvwKY+dPy9uXHhVFeDw57N5bj78xaHU6VnsXOBmob/kDy39BWaAfxqI+A6xKoLAAjj8Gxh8H48bAsMHg9ei9RiAIK1bD2+/DwsWw+AOjWLDQWuAUjFW5hBDmygUeBK4AnBbnQo+KIob1706Xorz//llDY5Dd+/zs2ldv+4Igz+umMRAyI/S3igApAMw1GngZKE/1hYcOgh+eBROPh1GHQU5Oaq8fDsPHn8GCxfDcC7B6XWqv32w3xp3Ix5ZcXYjskINxkzPZ6kTaavjbY8eCoCX/Qp+Xt5dsorLKlLuot4EpQFAKAPMcj7GEbcoGX5R2gXNOhwvPhbGjU3XV+KxaC8/8E578O+yqTOml/cCZwPyUXlWI7PEgxuJclkmk4W/PfwuCvfXs3pfagqCt/MORqJlFwCPA9VIAmOMU4Hkg+U9jAsaNgZuvgZMmgNvmw99CIXh9AfxphvG4IEUagbOBN1J2RSGyw6HAp1jU7a+j4W+PvzFIpckFQWf5m1gERICRUgDodwrwAqD5KXsbF5oEt90EY442+0rmePdDuPcBeGNBSi4XBKYiRYAQOs0Ark71Rc1s+NujsyBIJH8Ti4AHpQDQazzwKibf+Z91Ktz+Ezh8hJlXSZ1Pl8Hd98NLr5t+qUaMATBvm34lIbLDGmBQqi5mRcPfnmQKgmTzN6kIWCUFgD6jMfavN21P5oGHwF/uMwb2ZaJ5i+C6n8MXG029TB0wEVhi6lWEyA6NGDMATGWnhr89/sYgu/fVs3uvn301DdQ1BMhxOcnPdVNRWsDBPcsoKUz+rTKhCKiTAkCPvhjL0VaYETwvF372Y7j1Rv3T9+wmFIIZs+H235g6jXAPcAywwbQrCJEdYmYG71ZWyMiB3SktzjfzMmkjHImy+JPN7N5X3/mL4yAFgLpS4H1goBnBp4yHmX+EPr3MiG5fm7fCtJ8YvQImWQOMQRYLEkKFKQWANPzt01kESAGgJgej23+c9sA58OtfwM9/DE7Ll9WwRjQKv30Qpt9nrCtggvnASRgjYoUQidNaAEjDHx9dRYAUAGr+BNykO+hBB8LfHoXjbDaX3yqLP4DzroSvdpgS/vfAL0yJLETm01IApMMzfrsJR6I8P3eFUgwpAJL3A+A53UFPmgjPzICuZbojp7fKvXDBVTD3Le2hY8D3MfZqEEIkRqkAkIZfzXOvL1M6P0s7l5UdDDyqO+jFP4Q5/yeNf1vKy+C15+CKC7WHdgCPA320RxZCdOi4I/pK428hKQASlwM8CxTpDPrjK+GJP6d+zf504nLBzD/BnddpD12M8Tt1aY8shBA2JQVA4m7HmEKmhdMJD/3GOBzyQKZTDgfcdSv88XrtgyPHALdpjSiEEDYmBUBiRqKxkXA64clHjLt/u/h8roerTs5jUB83vgonvgong/q4ufqUPJbOtckiBF644Yfw+C+0FwF3AMO1RhRCCJuSDuf4uYBZgLbtdu6/y9i5zw6a/A6uPTOXJz9vJLrf362rj7Lu4xCPnQeXHJ7HIy824c03df2PTjny4cKToL4Rrn9AW1g3xu/4WGRqoBAiw0kPQPxuBI7UFey2m+CmlG+h0bYmv4NJozzMbqPxby0CzPqskcmjPAQarH1e4WieJnz1WfDz87WGPgrQP8pACCFsRgqA+HQD7tQV7KIfwD02etp8zdRc3tsdiPv17+wKcP1Zpi//3bFWA4fvuRIuPVVr9LuB7lojCiGEzUgBEJ/foGnU/0kTYfbD9hnw9/lcD08tbUz4vNmfNrJsvranIQlzeFv9bwfMuAUmj9IWvhC4S1s0IYSwISkAOnc48CMdgQ460Fjkx2WjyWYzH3B12O3fngjw6IMWDiFx8a0RLDkueOp2OLCrtitchjHoUwghMpIUAJ27Fw3vU06Osbyv3Rb5eWtN8ovsL1xpzgL98WrdCwBQ0QX+71dGMaCBC7hHSyQhhLAhKQA6dizGZjHK7r7Vnmv7f9WQ/GD3LxXO1cL73T86biTccYm2K5wG2PC3JoQQ6mQaYMfu1hFkynj42fU6IunnjybzAMBQr3CuDg532wuR33oBLF4KCz7Rcpm7gBO1RBJCZLTqukY2bNvLrr31+BuDxGJQmO+hW9dC+vUso6TQ4sHT+5ECoH2jgAmqQfJy4X/vz94tfU3VzqfX6YRHfwbDL4KGJuWrTMGYGvixciQhREaKRGN8vvorNmzf+52/q/UHqPUH2LBtD/16lnHY4B64nPYYBS7NUvt+qiPI7T+Bvr11RBLf0UH52rs7/PQ8bVe6UVskIURGCUeiLFqysc3Gv7VYDDZs28vbn2wiErV2IbUWUgC0rQ9wlmqQ/gfDT65VT0a0o5P+q5+fDwN7abnSuRg7QAohxH+FI1HeXrKJyn3+uM/ZvbeepWu+NjGr+EkB0Lar0fB45K/3g9cmy+dnIkcnn16PGx7Sc+/uAq7QEkkIkRH+2/hXxd/4t9iwfQ/VderPJ1VJAfBdHuBi1SBnnQoTj9eQjWhfHJ/eSUfC6WO0XO1HaNwHQgiRvlQafzAeB2zs5JFBKkgB8F1TMZb+VXLbTRoyER2LcxzNnZdoWXmxO6B3wWEhRNpRbfxb7Npbrymj5EkB8F0/Ug1w8iQ48lANmYiOxdmoHzZA2zLBl2qJIoRIS+FIlMWfbFZu/AH8jUENGamRAuDbugCTVIPcJmPGbeeOH2kJcyJQqiWSECKttDT+u/fpuXOPRKxdRwWkANjfORhjAJI2fiyMlbXjbOeYYTB2hHIYD3CGejZCiHSiu/G3CykAvu0c1QA3Xa0jDRGXBAvom3+o5arnaokihEgLmdr4gxQArfmAE1QCVHSFk5TXDhRxS7AAOHk0lJcoX3U8kK8cRQhhe5nc+IMUAK1NpM3tZeJ33jngloliKRNLcC8idw6cq16g5QLjlKMIIWwt0xt/kAKgtZNVA1woncOplcRmhBfo2dZHyw6RQgh7yobGH6QAaG2iyslDBsLh6oPMRCLCiZ8yajAMUl8eWOmzIoSwr2xp/EEKgBblwCEqAf7nbE2ZiPglUQAAnKvefA9GpgMKkXGyqfGHuJdSyXhnAi+oBPjgDRh9pKZsUsjRVe382B49eSQjugNiVYmf995yOOE65cufDryiHEWI9GbptnbuHBe+PDfduxbSt0cpxYW5ScfStcJfOlHe8CZDKM3cLyyQlf8sEUrutKOGQEEe1DcqXf1YpAAQwlKhcITqugjVdU2s3VxJt7JCRg7sTmlxYhN1dK7wl07kEYBBqfk+/hjIkVIq5WKB5M5z58AY9fEaI5UjCCG02rW3jrnvr+etjzexr6YhrnOyrdu/NSkADErNwfjjdKUh4hYh6R4AgHGHKWcwXDmCEMIU8RYC2dz4gxQAAF2BA1QCjB+rKRMRt2Tv/ltMOFw5hZ4Ye0cIIWyqo0Ig2xt/kAIAYJDKyS4XDFWKIJKi9vyeIX3Bqf7pl9+8EGlg/0JAGn+DPLmGvion9+kJXqXtg0QyYvE93mtXnhd6VcCWnUph+gAfqGUihEgVoxCoI8/rpjGg8AwxQ0gPgPElnrSBSqsHiGSpFgAAA9QXBFIqHoUQ1pDG3yAFAPRWOXlgf11ppCdH144PX4WTQX3cXH1KHkvn6ukqiQVIahng/WlYEbCPehZCfGNaScnUyT7f533d7qY8pzOW53TG+rrdTZN9vs+ndelyutX5taHO6gRE0mrlEQB0UzlZegA61hCNsq4+yrqPQzx2HlxyeB6PvNiEN19h/RBNj+3691QOUaEhDSG4pry8YF1Dw/uPVVcP33+Ty83RqHdzKHSoy+9/eaLPt3xgfv6YGZWVdnl4vR0YYnUSIinbpAdAcUnXPuqNSNaIALM+a2TyKA+BhuQXoYxp+urrqzT3A4AyDWmILHdNeXnBe3V1Wxf4/d9p/FuLAAv8/hHv1NZuv6GiQunGRaN5VidgJW96b/86TwoAYx+ApBUX6Uoje7yzK8D1ZyW5ZGdEz/N/gCKfcgjFhZSFgHUNDe8va2qK+0ZkRSBQMr+m5gubFAGz0PJALv2MGTmEuTPuxeFIyxX1I8AsKQCgWOXkAvVGJCvN/rSRZfMTr55jdWhbfbwwsdVC21KiIQ2RxaaVlExd5PcnvKjUqkCgaF5Nzfobu3ZV78dSsxL4X4tzSLkxI4fw8gO/4pjhg7jyrLTcHfwvwGopAMCrcnJhga40sksEePTBxIegxGr15VCgXgAofXaE2BQK3ZXs7fPqQKBwbl3dOhsUATcDCyzOIWVaGv/C/DwA/nDjZYw7Iq0WBp0P3AIyCwBAaWi6FADJW7gywf18wxDTuFeHhh4AKQCEkvXBoNJiUqsDgcJ5dXVrLX4cEAROAR4hwx8H7N/4A+R6PMx5cDpXfe8UnE5bPw6IAA9j/K5CINsBg7GrvCvZkwNfgyeNFwJS3Q5YRYHTSd3ujoY9fVtsD0R367t+IAS+iUohIshiWkJBntMZa4zG/2+gPUO83rophYUDH9yzZ4eGtFQMBS4DJmNMk82YW6S2Gv/9rdy4lVkvvsHCJcvZtnM3DU2Ka5arqwe2AHOBx4HVrf9SCoAsLwAKK5zUa/gCSuraLie1u+K/dmQ9ShsA7U8KAGG1fKcz2hCNavketlER0FoIhX8jexf+o80Gd+XGrdw7+zn+s/B9YjFNg4I6cOyIwcx5cHqHjb9utf4Guk78oUqIEJ30cMsjAKP7Kmn1ab599IH5Sdc+ynrkxX/tWD1aG3+AOvXZBJaX9yK9VbhcSt8/rdnkccD+lL4hv9y1p80/H9avN3+/9+d8+OSfOO24o0wdiT9m5JCUN/4A23dWqobo9L2XAkCxAKizy3IcSZowxLob2InD4r92rO3vASVSAAir9fd41uiMZ6PZAS2UWrF5H33e4d8fNrAf//nD7Xz67MN8b+IY7YXAsSMGd9rtb5a5nfzscdjV2QukAFD8Eq9N84Uwp90YSf75hwIXcOXN8Q0CjDXqm/vfWr0UAMJi/b3eW12aGy0bzQ4A2Kpy8uyX5xKJ4xGlGT0CY0YO4ZWH7rKk8Y9Eozw5R3mNpW2dvUAKAKhWOTndHwEcOiXIJYen/gN++ag8RkyIr08/ptwT1jYNPQBVGtIQWWzGvn1vjMvPX647ro0eB3yicvLqTduY+e/X4359S4+AaiHQ0u1fkJfkgmWKZvzrVdZs3q4aZkVnL5ACAJQ6l9O9BwDgkRebOK5b6ma0Hd/dy8P/aYrrtbFGfUv/7q9WvXjbqyENkeUG5uePGe71Kt2ItGVVIFBkgxUDF6sG+NnDj7NwybKEzlEpBE44fLiljf+CJcv4xZ9n6wi1pLMXSAGg+CW+RblIs543P8a8JUGuOCLP1McBLmDaqDzmLQniyYtv5G5M47S//W1WHyttwsgEkW1mVFbWn1hSMtCsIsDiMQHvobg2QDAU5oyb7+Iv/3olrscBrSVSCLicTq79/mm8+tBdljT+4UiEP/9jDmfcNJ1QWHk5hSjwVmcvkmmAxlrWlyV78o1XwQP3aMzGYsvmu3n0wRwWrgyzvSGCX3GKoM/ppGe+i4nDcrjy5nDc3f5gLPsbNbHAuulh+PPzSiEeA67Uk43Idrd061bxZnX1uhWBgPYlpi2eIvgBMFpHoCEH9+KS0ycz6ahD6X1gt4Qb6lUbt/LMawuZ++FnbNtZSSQapc+B3Zg4aiSXTT2RwX1Tu7tbfWMTW7/exbyPP+eJl+fp6PZv8SFwTGcvkgIA7gB+nezJp0yCV5/TmI0wxCCyEcU5Gh075RaY+7FSiNuA3+rJRoiMLQIuxViERjtfXi69D6hg4qiRXHrGFIb2623GZbRZuXErs1+ay8JPlrF1x278jfE9Ck3CJcCTnb1ICgC4AHgm2ZP79YENSsNcRFt0r/rXlkPOhS07lUKcB/xdTzZCGDKwCMgDvkRx6/XOuJxOrjz7ZP5ww2V43PZanysQCnHLA7N47MU3iEZNX7hoL9ATaOzshTIGADarnLxlO1i/2mOGCULUpJH/LRoDsE29wFD67AjRlvt37dpt1pgAi6YINgJPmH2RSDTKX59/ldNvmk4wlOA+IyYKhEKcfuN0Zv7n9VQ0/gCziaPxBykAANapnByJwKq1ulIRANGv0bblb3tWbQYNKyArfXaEaE8GFgG/B/al4kJvfbKcnz1syhOHpPzkgVks+rTTGXm67AXui/fFUgAYI7m/Ugmw6D1NmQhie8xZ9Gd/Cz9VDrENWQdAmCjDioBK4NYUXYuZ/36d1Zs6XQfHdC2bA6XQrSQwO0kKAIPSQhxvvaMrjewWazS/67/FIuVVNtU+M0LEI8OKgFkYMwJMF4lGeUJ9JT1ls1+am6pufzDm/SfU9SEFgCGxVSb2s/gDCGneqCbrRCD6JaZ3/QMEQ/CeevMtBYBIiQwqAqLAhaRo/Yz5Hy9NxWU6tGBJynLYA/wPxnscNykADEpVaV09fGL9Zy2tRb9G+25/7fl4DfjVZ9+8ryEVIeKSQUXARuAsUrCPxrYdJk8jioOGHf3iEQLOxXhvE2KvuRLWeR/j3jPpaZHz34ZjRulLKJvE9hiL/qSKhuf/UVLUlSky13VlZYPqwuGz/NHo4fui0UF7I5ED6yKR/EAs5qqLRnMaYzFHqNVe9/fv6nRzt6StDgQKHbD2hoqKAQ/t3m3ehQzvAtMwZgaYNhW9riGugfCmqjdvnn+LKHA5caz61xZZB+Aba4GByZ48ZCCsksGACYvVNnf9p9CwC2Ct2vigVcAwPdmIbHFTUVHpbqfzpt2h0Kkbg6HBm0PB3JQ9HY7TUK+3dlJxcSqKAIDvAc8Cpq27G/zwZbNCx8Uz+gwzwwcwFvxJei0S6QH4xkIUCoDV6+DTZXDESI0ZZbiYH6JK8y8S9/Fq5cYfYIGGVEQWmA7ObSUl124Mha57rL6+f300auubrlWBQJGzpmbtNeXlPWdUVpq0Ddd//Rv4GngZ6GrytTJNFcajlLdVgsgYgG/Ev+dkO575p440skOsqXmd/xTfAj37ppYwKZ3XI9LP9aWlRecUFT07K8fdNLu6+uG3/f4Bdm/8W6wIBErWNTSkqj/zA4w165UasiyzCDgKDe+ZFADfWIjiwJS/PS+zAeISguhWEhyvquGyYfjnQuUwTciXlWjHTUVFpWcVFr74XE3tvudra8//MhxyW51TMhb5/SOmlZRMTdHlNgDjgYtJ0WJBaaoGuBGYiPGeKZMC4Bt+jMoqaZV74XXpHO5YECJbUNwgNDmvfQB7apTDLARSsFSRSDcXlpTc9VxDw64X6uqmVkbCZu6sbboIsCkUmp7CS8aAp4EhwD3IVtut7cF4TwYAD6Hx1kkKgG/7l2qAB/6qI43MFGuCyGZSNt1vfw/8Q0sYPVFExri2rOzoo/Lyvn6muvrOHeFwxoyr2hAMDrbgsrswdmjtBVylGuyztVpulK289lUY78UdgPZ5jVIAfNt/UNyAdtF78O6HmrLJIDE/RLdgyZ0/wOKl8K760j0B4CX1bESmuLC4+J5nq6o++LixMZXr6qfErkjEY+HlG4GZqkHuedy6vdo1XXsmcW7skwwpAL6tClBeP/LeBzRkkkFitRDdRsqf+bf2m6e1hHkD4zmcyHLT+/TJPamg4INna2p+WZMmg/sSZZMfqlbl5Ffe+ZhPVq/XlUvcln6xiVffXaIaRvuiT/uTAuC7lLetfGOBrAzYIrYndUv8tmfJGpj/iZZQpm9pKuzvuuJuff+1Y8euN+rrR9ttHr9OFS6XUm+oJltVA/zmidQ/tfv1Y38jFlP+dJi+m5EUAN/1MsZzKCX3/FFDJuksbNz1R61fjZN7ntISZgfwqpZIIm1dU15+6OuNVatWBQJFVuditkM8ntVW5wDMVQ2Q6l4ATXf/AHomLXdACoDvCgFPqgZ56XV4fb56Muko1mAM9ouZvYxIHOYtgVf1rNr/JBDWEkmkpWnFxRNfqKpasjEYzLM6F7O5gIM9nl9ZnQfwFBr6D1PZC6Dp7j8GPKMhnQ5JAdC2v6Lhy/6G26DJ9C0v7CW2t3mOvw3WQwiE4MaHtIQKo2FAkkhf15eXH/ay3/9GJo3y78g4n2/ZzKqqOVbnAawAlPNIVS+Axrv/ORg/u6mkAGjbVuB51SDrN8H9j2jIJh0EjVH+0V1Y+ry/td8/C+v0PEX7BxqeRYr0dF1xt76vVle/ny2N/3Cvt3pgfv5Yq/NoZTpp0gug6e4fjHn/ppMCoH336wjymwdgUyY3HTFjoF9ko9H1bxcbv4L7/k9buGwf0ZG1rikvL3irqXrpplDItA1r7GSo11s7obh4UAr2AUjE56RBL4DGu/+XAS2BOiMFQPs+BZSf4jc2wVU/gaiFU+DMEqszGv7obmxz1w/Ge33VH6BJzxjmNzC+gEQWWt/Q8E42DPgDGOLx1k4uLByUop0AEzUdm/cCpNvdP9hmqqdtjQI+QsP7dO8v4bab1BOyg1gjxHYbi/vY0d1Pwl2ztYUbjfEZEFnm/OLi3/ytpuZWs2vbMpcrOtDj/bJbjvvTQqfzkwKX4xNnxL0+6olWtr4Tv6Giotv8mpovzChIUrwNcLJeAkzdX9cGXgZStQeDFABxeBU4RTWIywVzn4cJx2nIyCKxRohV2mN0f3sWL4XJN0JET49LSv8xCvu4tqzs6Geqqj6oNWmRn2KnM3ZkXt6Kvm73g7OqqztdX0IafwAOw+iZzeR26yhS1P0Pmf1G6nIo8AnGzBglPQ6AzxdBeZlyTikV8xuj++3c8APs2gdHXgY79moJFwEOB9QXEBZp56i8vK/NWN633OWKjM3Pf6Vffv6V9+/aFdcqGdL4/1dv4DWMDYMy0RrgZFI44FgKgPg8ClyhI9CU8fDq3yHH7uOJwxCrhmgVtpjS15lwBE79KSzQs+IfwP8CV2uLJtLGxUUltz9VW323zpguh4MJ+fnLhublnfzgnj074j3vlm7dKt6srl63IhAo0ZkPGM/8pxQVDkoknxQ7ABgLTGr+b6Y2/PvbAbyLMQZtPrDJrAtJARCfCuALoFhHsAu+D0/PAIfd3v2IMbAvVtv8fN9GA/s6EovBlffBE/rW6avC2HpTtiTNMjcVFZU+19CwS+eUv55ud+jEgoKLZ1VV/T2R87Lwzj9bG/zOmFYQ2P0+1C52Y4xC1bLNz7P/goO6wG9/BXh1RExeLADUG937sQbSptFv7baZWht/gDuRxj8rbYnFZuts/Efl5e08Ij//yP/du/erRM7LksZfGvz4HAB8v/kAjQWB3e5B7cyJ8aYfoyvgH66Fm84DR75xkAcOLxpGG7Qj0tzgNzYP6PNj2fa8usx4AX6sd/fFj4AxpP07IxJ1fWlp0XM1tfsqI2Et/wKPy8/fOLGiYtj0LVuaEjkvg7v9pcE3R9IFgRQAiRmOMQrVrSOY0wmP/wIuPGm/v8gBRy7gAYfb+P/kgCMHowxpWb2h5WsqinHnHoNYGKPpigAhiAWb/xsgLZ7lJ+LpN+Cy3xqPADQJYgz8W6Utokgb5xQVPft8be35OmKN8/nWjfP7h0xPcBPsDLvzlwbfGnEXBFIAJO5O4C5dwZxOoyfghu93/lrxjQf/CT/9i9bGH+B24F6tEUVamA7OWTnupi/DIeXiflRe3s5TGxt7TzcKyrhlSOM/ArgcOA3oa/K1RHw2A68As9hvVpNZnc2Z7B1gHNBHR7BYDOZ+DFV1cOJRNhwYaDOxmLHQzy8f1R76XYwvrjQcBSFU9S0puX5xQ8OpqnEOcrtD4woKht7f2FidyHm3dOtWMb+mZt3KQEDLQOPWWrr9H6qs3Kk7diu5wCMYM6ZGA11MvJZITBfgaGAa0B1YQPNmd1IAJC4GvA1cgsYhfB+vhi074dRjwCULNLcpEoWr7zfu/jWrBqZgjP4XWajY5Xp6ayiktEJHjsPBOUVFFz66b19CG1BfU15eHAOFvwAAIABJREFUsLCmZpMZz/yHer21k0uKB6Sg8X8D+B7Sq2xnDozVbcdgbHAWlqYmOZuBy9B8t/jMG3DGz6EyoXuH7LC7Ck65BR5/RXvoGEYxl8lbNokO3FRUVPppY2N/1TgT8ws+TnSqH8C6hob3zWr8U9Tt/yfgBJOvIfQZT/MGZ1IAJO95NO0Y2Nq8JTDyYpivb0GbtLd4qbHCn8ZFflr7LfCiKZFFWtjtdN5Ur7jkb7nLFRlekH96oudNKymZusjvH65y7bak+Jn/VSZfQ+h3FTBMHgGoeQtjdKvWwS7+Jvj7PGOA4Njh2TsuIBqFe5+Gy38HteZsPDQXee6f9bq7XH/cFAopLft7YkHBnNn79j2e6HmlLtc/NoRC3VWuvb8UPfNvcQfG+vUivTiAqPQAqAkD5wBrdQeOROFXs+DkW2DT17qj29/Gr+DEm2H649o29tnfKuAHyHz/rLcxGBqscn6x0xnrl59/ZTLnrg8GB6lce38tz/xTOM9/QoquI/SbkKX3ltr1BT4AupkRPM8LPz0PfnY+5HrMuIJ9hMLwwD/g109AU0KTqBKyE2Oksjz3z3LXlZUN+svevWtUuoAm+nzLF/j9I5M5N9/pjDZo2nHQohX+/EB+Cq8n9GmQpYD12IyxT/V8oFB38MaA0SD+fR48fBNMHqX7Cvbw5kdww4OwIaFFUxNWizFHWRp/QV04fJbq858+bveftCSjwMLlfW3X+Hep6M7gI8cwYswERo6dSLeefdi8aim3nHEMMc0Lh7Tlvhff5ZARR1K1eydrPnmP5e8tZM0n77N9/RrTr52gfOkB0OsE4HUgz8yLnD4Gbr8YjtDaeWidJWvgnqfg1YQmTyWlATgJYy0HITinsPBfz9fVnZPs+WUuV/T6SMQ9PcEV/1r0cbubtoRCStOJLV7b3/LxM201+Pv77ZXnsGS+/ilEbRk16TRuffT57/y5HQsCKQD0Owl4CTC9s37KUXDbRTB2hNlXMsc7y+A3TxszH1IgAEwF3kzJ1URamODzrVjo9w9L9vxj8/K3vt/Y0CfZ8yf7fJ/P8/sPTfZ8G2zpm/ICIJ4Gv7VU3v23aOkF6IgdCgIpAMxxEvAfTO4JaHHcSLjpB3DyaHDb/KFOMASvf2g85393eeev16QBOBtp/MV+Rubm7l3W1FSa7PlnFRa/8EJdzdnJnj+tpGTqrOrqF5MZiWqTXf1Mb1UTbfD3l8q7/xbt9QJ0xIqCQAoA8xyHsf6y9nW929OlEM4ZDxdMgWNtNn1w9WZ4di48+ZqxqE8K1WPc+S9M6VVFWujrdjduDoVykz3/4qKSO56qrb5HJYeJPt+yBX5/Qv14Nmn8wYQCQLXBb82Ku/8W8fQCdCQVBYGNmoiMNAqYg0mzAzoyqBecOxEmHgFHDUl9z0AobCxvvOBT+OcCWLsttddvthNjwN+nllxd2N4BOTmhHeFw0v86rikpmTCjuvotlRyuKS8veK+ubmu8PRHDvd7qCcXFg2zQ+IOGAkBng78/K+7+WyTTC9ARMwoCKQDM1xd4FVCaa6zClwtjR8L4w2HcYTDsYP3TCZuCsGIjLPoc3voM3ltuLGhkoVXAqchof9GBEpcrWh2JJP09+OPy8gEPV1auV83jmvLygnUNDe8t8vtHtPc4wAWM8/mWDczPHzujsrJe9ZqaKBUAM9/5gvIevXTl8i0bV37Gz6aOseTuH8DhcHDfS+/Rb9jhpsSv/Gob044boBRDCoDU6AL8E2NfbMs5ndC7G/TvafQUDOgFfQ+AIp9RLBTkQ0kBFDSPYKhvhOp6qG8w/nddA2zeAeu2Gcf67bB1l7Fyn03MxVjkR3ZVEB1yOxyxkEIDcU15eaHOxnhaScnUTaHQ9A3B4OCdkYgXoLvL1XSIx7P2YI/nzplVVXN0XUsTpdb1P5vMu0uw8u6/he5egP2dfXDST68AKQBSyYWxbOYdyB4MZokB9wG/RFb4E/FRvT3M9u9QWxYAVj7735/qWICOqBYA0hClTgSYDpwL1FibSkaqxhjp/wuk8Rciqz330D22aPwB/vXI76xOoV1SAKTevzF20FpsdSIZ5EPgCGRXPyGy3uZVS/lkwavqgXoMNA5FS+a/wobl9tzeVQoAa2zD2ETjTiBkcS7pLAjcjrEj4yaLcxFC2IC2u/+hx8GwE9TjYN9eACkArBMB7gYOx7iDFYn5AOO9uxfp8hdCoPnuv/RA6NI9o3sBpACw3kqMO9gbkbEB8agCrsd4z1ZZnIsQwka03v23yOBeACkA7CECPAQcDDyM3NG2JQo8AwwCHiHJzVeEEJlJ+91/iwzuBZACwF72ATdgDGizdgKrfcSAl4FDgYuA3damI4SwI1Pu/ltkaC+AFAD2tAw4HRiNsahNtnoDOBpjLf8VFucihLAp0+7+W2RoL4AUAPb2EXAicBhG93c2zBiIYvR+jAZOBlKzWbAQIm2ZevffIgN7AaQASA9LMbq/+wO/w9jkJtPsAH6LMQ7idIziRwghOmT63X+LDOwFkAIgvWwFbgV6Yax6NwcIWJqRmgDwEnAmxs90G7J5jxAiASm5+2+RYb0AUgCkpxDwAnAG0B24BHgdsHb/vfg0Aa8BP8LI/UyMIiBsYU5CiDS0Zc3y1Nz9t9DUC/DJglfZutb6YU1SAKS/auBJ4BSgDGML3EeA1WjYq1uDGMZ8/T9j5FiKkeNTyG59QggFc//+uJ67/2HHx//aoQm8th2xWIx5z81WjqMqx+oEhFYNGHfXrzX//1LgWOAYjGl0w4GeJuewHWPE/lKM1frew1i8RwghtFrxwSL1IHmFUFgW/+uLyoxzGuuULqsld0VSAGS2fRgj6luvKdAFYzGdvkCf5qMCo/eg5XA3HwXN59RhdNGHgL2tjt3AFmBz83/XIo29ECJFdn+pYchQYx0s+j8Ydz7keDp+bTgEi59TbvwBKr/aphxDlRQA2acK4878A6sTEUIIFQ6HQ0+gPdvh7b/BCee1XwSEg8ZrKnU13JpyVyBjAIQQQqSlioN66wtWuc1o4MPB7/6d9sYfynv00hYrWVIACCGESEvDRuuZlvdfbRUBJjT+ACPGjNcaLxlSAAghhEhLJ553OQ6n5masdRFgUuPvcDqZ8j+XaY2ZDCkAhBBCpKXeg4Zz4nlX6A/cUgSY0PgDnHzBNHr2H6I9bqKkABBCCJG2Lrn9PoYeHccqfomq3GZK4z/06OO4+DZZCVAIIYRQ4vZ4+eXjLzJstPoCPWYbdMQx3DbrP7g9XqtTAaQAEEIIkeZy833cNusFWxcBg444hjuefJk8X6HVqfyX9RMRhRDCOqrryGb7d6gdlhsXSZIeACGEECILSQEghBBCZCEpAIQQQogsJAWAEEIIkYWkABBCCCGykBQAQgghRBaSAkAIIYTIQjlWJyBsoRswHhgNDAL6AuWAD2Oecz2wF9gIrAM+BBYBOyzIVQhhH3WAfVa2EYmotToBYZ1S4DrgI4zFPJI5lgA3AF1TnLsQuiT72W85st0q1N9DOaw5VrTx+xQZ7kDgTxh39bo+SPXAg82xhUgnqp/9bPcg1jdkciR3/LGN36fIUDkYd+u1mPeB8gPTAU9qfiQhlKl+5rPdMCCM9Y2ZHIkdYcD6/YhFSvQHPiN1H66PMcYRCGF3qp91AY9gfYMmR2LHQ23+JkXGmQrUkPoPWBVwUgp+PiFUqH7OhdHjNx/rGzU54jvmAe42f5Mio1wMhLDugxYCfmT2DymEAtXPuDB4gD8jjwPsfIQx7vyl8c8ClwNRrP/QRYD/MflnFSJZqp9v8W1DMQYZr8CYImj190+2H3XNv4s/Is/8s8ZU7FWJB4ETTf2JhUiO6mdbCCFs4xCseebf2VEFHGzizy1EMqQAEEJkBDepHe2f6LEEef4k7EUKACFERvgZ1jfynR0/Me2nFyJxUgAIIdLegehd3c+sow5ZMVDYhxQAImvJboCZ4xaMzXvsrgAjVyGEEEIoKiU97v5bjnpkAyFhD9IDILKW9ABkhvNIj7v/Fj6MnIUQQgih4GM03Z0PG0zswXuJrXyXWP0241j1HrGHfkNs6CCtvQAfm/qOCBEf6QEQQqStbmhY8c/jIfaX+4hFdhOL7Wn7CO8i9sA9xHJytBQAUaC7ye+NEJ2RAkAIkbZ+iIbGf8EL7Tf8+x9z/qatCPiB6e+OEB2TAkBkLRkDkP5GqwZ44B6YcFz8rz9tCtz3K9WrAnCMlihCCCESJgVA+huocvKwwTDt4sTP+/GVMETpygAMUI4ghBAiKVIApL/+KidffgG4XImf53LBlRepXBkw9i0QQghhASkA0l+JysmTxyV/7qQTVK4MGOsXCCGEsIAUAOmvUOXkXgclf27vnipXBhRzF0IIkbwcqxMQcSkGxgLHA0cCvYCy5j9XKuIKFJYPUjm3mQeIYGxfvAfYBnwCvAO82/znQpji+tLSoj/v25f0+R6Hg2BMJgKkuQrgOGAYMAhjXFIXjJ7VgubX1APVGFuarwPWAquAxUBlivMVWSIfuAz4EAijPl2pzSPeqX/tHWbl1fwzfwBcCuRpfm+F4OauXQeg8BktcbkiFqQt1B0J/AlYgdoaKlFgOfBH4PCU/gQiY1VgfKD2YV7jmg4FQOtjL3A/UK7xfRZZblpx6WQUPpcH5OSELEhbJKcQuBnjzt2s76mVwE1803NgezIGwD4cwEUYH9CbMbqhhKEU+AnwBXADkMS8BSG+rdERPVbl/DyHM6wrF2GaLsB0YAvGjdUQE681FKNnYQtwJ4oDtFNBCgB76IfR3f0UskteR0qABzHGBxxscS4izdVFIoepnF/scvl15SK0a7mhWgv8itTOOCoD7gI2Alc252JLUgBYbwzwPnC01YmkkdEYmwmNszgPkcZ2hMNHqJzf1eX8UlcuQqt+GAP0nsJ4pGqVUmAmsAjoa2Ee7ZICwFqXAgux9kOarsqAN4GLrU5EpJ/p4FwXDB6oEqPI5VqrKR2hz5nAEoxZU3ZxPLAUONfqRPYnBYB1fgA8hjEVTiTHAzwBXGB1IiK9fFVcfFlVJKI2hdbh+ExXPkKZA/gD8AL2HD9VBDwH/BYbPRKQAsAax2N0T1n6/hdpWIan0Prxrg7gcWCi1YmI9LExHL5R5XwnUOzxvKApHaEmB5gF3GJ1Ip1wAL8AngbcFuciLNKfFE3x6+wYNlh9GuCQgdb/HM3HPmRvARGHG7t2PaDI6VSZ/x07xONpsCB18V1u4GWs//5J9HgJGyzEJz0AqeUA/hebdFFNGa8eQ2UvAc26YNwF2KZ7TdjT5kBwVm00qvQ56ef2rtSVj0iaA3gUON3qRJJwBvAkFn9fSQGQWtOACVYnAcZufpedrx4n2d0ETXICcLnVSQj7uqqsrMe7Df6TVON0c7vm6MhHKLkP+JHVSSg4H/iN1UmI1OiOsZ601V1PMSD24yvVu/9bjmsvs/7naXVUIbMqRDsm+3yfo/gZK3I6o9eXlhalPnvRyjlY/12j44gCZ2l+b4QN3YP1H7YYEJt0ArHgDn0FQOBrYhOPt/7nanX8Wuk3JTLSZSUlF7scDuXP1wSfb1Xqsxet9MNGN1Majipsuk6A0CMfY7c7Sz9oLpdx56+z8W9dBFx3uXENq39OjB26ZAMh8V/XlpT07pGTE0TD5+vSLl2uSvkPIFo4MHYLtfo7RvfxFhaMB7DP09vMdikWLQJR4IMBh8AF58JjD8BFPzDnmb3LBadMgu+dDl4v1PuhoRGC1myXkg9sBz615OrCVqb36ZO7sKZm9bpgULnbvpfbHRzn95+9yPjSFql3KXC91UmYoA+wAWN3wZTJxBHTwzEGgk3EeFPVd623kWGDjYF3k06APr3Al291Rmr8DbBlG8x/G2Y9CyvXWJ2Rdn6MzUHmY8xSkNHjKTQdnAt9vrWL/f7+OuKdW1T01D9ra3+kI5ZIWBdgHSbsCup1uBmW14MBud3o4e5CWU4BeQ5jqn5jLMTecD1fhar4omknKxu/JhAz5c5mFzAQqDEjeFsyqQDwAg9gjLTPuNkNHg88cA9c9SNwZtxPZ4hE4K9PwE/uhGDQ6mxMEcGYBnozkJk/oY1MB88in2/ZIr9/kI543XJyIt/r0qVkRmVlvY54ImHTMTb20abIlcfJRcM5ytcXjyO+afnBWJhPGrYwv3Y1leE6nekA3A7cqztoezKlAPACrwMaZrbbj8cDr/8DJhxndSapsWAxnPLDjC0CwNj/4WSkCDDNNaWlPT9qbPzk08ZGbTNCvldU9M9/19b+QFc8kZBCjJ40Lbv65TicnFg0jAmFg+Nu+PcXiUVZWLeW12qXEY5FdaQFxlixvkBKisxMGQPwCPB9q5Mwy8O/hXPPtDqL1Dm4N5QUwesLrM7ENH0xujNftzqRTHRZScnFr9bVzdfxzL9FL7c7OCov77iPGxsDumKKhFyHsdGPsiJXHleXT2BUfl9cjuS7U50OB/285Qz0dmdl01cEY2Ed6eVjDGL+UEewzmRCD8BwjJ2WMrJjfNhgWLrIVovtpEQkAiNPgFWZu99aBBgJyJQyTW7p1q1itd//z3l+/wmhmN4xeheVlNz5dHX13VqDikSsAoaoBjnAXcLV5ePp4tI7eKoq4uevlYvYEarWEW4FMEJHoM5kQqN5OZnxc7Tpiguzr/EHfSsV2pgLuMzqJDLBDRUV3aYWFr4ye8+eHa/V12tv/I/Ny9sujb+ljkRD41/oyjWl8Qfo4vJxdfk4Cl25OsINBw7VEagzmdBwTrI6ATNNOsHqDKxjo30GzDLZ6gTS1XRwXlFcfMUEn2/lE3v27Hipru7UfYrb+7alxOWKHlFQMFV3XJGQ81QDuB0uruh6gimNf4suLh+Xlx1PjsJjhVaUf+Z4WL4bkQa9rE7ATL0OsjoD6/TuaXUGputtdQJ2d015eUEOHBCORPrVR6Oj6iKRI3eEw4c/FAweWFVTY+oNjAM4o7Dw13+urPzczOuITikXylOKhtLX01VHLh062FvOyUUjmFOzVDVUSm4OMmEMQEYvyBHbY3UG1nKY/2/Wain9NzitrOzsTU1Nd24IBgftjES8jVFto5czzok+30dv+v2jrc4jy1UAO1H4d1LkyuNXB5yR9Gj/REViUe7ZOYc9YaWB/FGgG8asANNkwiMAIUQnri8tLZrg8618bO/ef8/z+0duDoWk8e/AiNzcqt7FxbbYuTPLHYdikXxy0fCUNf4ALoeTSYVDVcM4MX52U0kBIESGu760tOjthoYtC/3+odLkd66fx9M4Nj9/5KNff91gdS6CYSonex05jPKlfp+dUb4+eNWLDuUqojNSAAiR4VYFAh8sb2rqYnUe6eCAnJzwicXFx87Yt2+71bkIwFgaN2nD8g7S0RAnzOPIYWheD9UwWlaw7IgUAEJksGllZWcv8vuVp1BlgwNycsJnFRRMmVFZqTyCS2gzQOnk3G668kj82l7layv97PHIhFkAQoh2bGpqulO6/TvX1+1uOqm4eOyMPXtkB0l7URoG3MNtXcdXD4/ytU0fAi0FgBAZbH0waHo3YrobkZtbNTY/f+SMPXuk299+ClROLstROl1JmUv52oU68uiIFABCZLDdkYjH6hzsygFM8vmW9S0uPnaGDPizK6VGsGVLXyvkOZWvLQWA2QK/Mze+9xdq52fBPHhT2f33a7ZMWOjDDCUuV+yMwsJfP11dPR2/3+p0hEkiRHG1MdQtGAuzPVjFzlAN+yL17A3Xszfspz7aRCgWIRSL0BQNAZDrdON2uHA7XBQ6cynNKaAsx0epq4Du7mJ6erq0Oc0wqr5Ejen/fLO+ABAik5W7XEF/NOq1Og87OTYvb/sRBQVTZYW/tNAAJN2LVRdpoiyngMZoiDVNX7OuaSdbg3vZEaqOu4FuiH6za/ce6tkc/PbaPE4cHOAuobenjIG53RmceyB5Tjd1kaZk025hemUqBYAQGay/x7NmSyiUko1F7O4gtzs0Mc/366dqq+95v7HR6nREfOqBkmRPXli3ll3hGjYEdhOJmTMcNkqMr0JVfBWq4n3/BlwOJ4d4K+iWU6waWmkpwXhIASBEBuvrzr3Lhf+FiNWJWKhbTk54bH7+fw7Mybniz/v21Vqdj0jIl0DSO6Isrl+nMZX4RGJR1jXtZB07VUOZPihVCgAhkhSpLgLs3Z48Wr33xYk+34oFfv9wq3NJtV5ud3B0Xt7fu3q9182orDT9bkqYYjOQrfsxbDb7AlIACJGEWNhF8Otu2L0AABiYn3/snkhk67KmplKrczFbkdMZOzIvb00fj+fPvaqqHp0eCskyCOntC6sTsNB6sy8gBYAQSQh91R3C6fHPZ0ZlZf015eW9u7pc7y3y+0dk0uMAJ3Cwx9N4sNu9qrvb/XKx0/nQn/ftq5WR/RljidUJWOgjsy+QHt9gQthIpLqISE2R1WkkpLkLfOS0kpKpm0OhO9cHg0N2RSLehmjU1jMF3Q4H+Q5HrMDpDOc6neEip6uh1OX8ssTlWlvgcHxW7PG88HBl5foNwWDnwUQ6+hBjy3dbf05NECMFxY8UACYr9EJdwOosslORCZPfvun6T08zq6tfAl6yOo94hWIxamIxarJk6+JpJSVTN4VC0zcEg4N3RiJegO4uV+AQj2fNwR7PnTOrquZYnWOK7QVWACOsTiTFlmH87KaSAsBkBxXDmt1WZ5GdeiY9eah96dT1L9LHNeXlBesaGt5/rLp6+P6lzuZo1Ls5FDrU5fe/PNHnWz4wP39Mlg1qfJnsKwBSUqTLboAmm9jf6gyy1yTNe2mlY9e/sL9ryssL3qur27rA7/9O499aBFjg9494p7Z2+w0VFenbDZW4xVYnYIFPUnERKQBMdulR4JJ3OeVcTrhklL546d71L+xrXUPD+4nM0FgRCJTMr6n5IkuKgH7AX61OwgJPARPMvog0TSYb2g2uONrqLLLPVcfA4Ap98aTrX5hhWknJ1EVJrNGwKhAomldTs/7Grl0PMCMvmzgaYxBgP6sTsUAp8AZwoZkXkQIgBf5wGow/xOossseEQ+D3p+iLJ13/wiybQqG7kp2WuToQKJxbV7cuQ4uAScA8IJu3Q3Nj9ATcZNYFpABIAY8LXr4Erj5WHgeYyeWEa8cY77XbpSemdP0LM60PBgepnL86ECicV1e3NsMeB5wJvEYKtsNNAw7gT8A0s4KnO6U9F83eLnZ/q3fBE0tgwXrYWgX1Mn1ZSYEHencxBvxdMkpvtz9AcGuPDu/+S/62RvUSmfBvUCQpz+mMNWqY4jjE662bUlg48ME9e3ZoSMtKo4C3AJ/VidhMBPgB8G+dQTPhyyetCgCRPiLVRQS39ejwNVIACBX5TmdU12JMGVAE9AfeJ4Xd/sXOPPp7unGIp4J+ngrKXAUUOL0UOL34nMZCIv5ogPrmY2+kno3B3awP7mJDcDc10ZTuKtkITAbe0xVQRjUJ0Qbp+hepUOFyBbdEo1qWrFodCBQ6YO0NFRUDHtq9e5eOmClUDrxOChr/gz3lHJ8/gLH5A+iR0/liIR5XDl1c33RIjM3/Zm73V+Fq3mn4gsX+dWwO7TEl31byMNZEOBbQss1hJtx9SA+A0K6zrv8W0gMgVEz2+T6f5/cfqjNmGvYE5ACLgDFmXSDP4ea0wkOZ4hvKQe4uplxje2gfc/2reLVuGY2xkCnXaLYMY4fEJtVAMiRNiP3IqH+RKv293ltdDr01YBrODvglJjX+uQ43UwsP4/EDL+HSkrGmNf4APd2lXFZyHE/2uJzzi0f/9xGCCUYCf9QRKBPuPqQHQGgTC7to+uLguOf8Sw+AUDXR51u2wO/XvtTtUK+3dlJxsd0fBxwNvIsJj6Mn+YZwRZfjKXLm6Q4dl5poI7Or32Fe/Sq1Rqp956A4KFB6AIRoRRb8Eak2MD9/zHCvt1p33FWBQJHNVwwsAJ5Bc+Nf5irgrvIz+UnZiZY1/mAMMLypdAp3V5xNRY4pMxpnAUq9PFIACNFMuv6FFWZUVtafWFIy0KwiwMYrBt6PMfJfm/G+Qcw84CKOyuurM6ySI3J789fuFzGlYKju0CXAH1QCSAEgBDLqX1jr/l27dptVBNh0TMBI4ApdwRzA+cWj+WnZyWY+e09avtPDTaVTmNZlHA69T/3OA8Yle7IUAEIgXf/CellWBPwBTe2PCyc/Lp3EBcXH2H5AzZmFh3F719PwOrR91ziARzCWDU6YFAAi60nXv7CLLCkCTsRY0EaZ2+Hi1xVnclJBwvspWebY/EO4p+JsPPqKgKHA5cmcKAWAyGrS9S/sJsOLACfwWx2BHMANpZM5PLe3jnApNczbg9u6nopLXxN8K0n0AkgBILKadP0LO8rgIuBc4DAdgX5UMpaJvsE6Qlni6LyDuaZ0vK5wPYEfJnqSFAAia0nXv7CzDC0CrtUR5KSCYZxbNEpHKEudUjCCib4husL9nATXFZECQGQl6foX6SDDioARwFjVIN1zipnWZZx6NjZxbekEXSsUDgVOS+QEKQBEVpKuf5EuMqgIuEY1gAMHN5dNIdeR1KB3W8pzuPlp2cm6pgdeksiLpQAQWUe6/kW6yYAioBi4QDXI6YUjGe49SEM69jLA040TC4bpCHUqUBrvi+UWSLOVO2H2EnhrA2ytAn/Q2nx8HujdBSYcApceBUNN7vVevtXD7PdzWLQtzNa6MA3hqLkX7ER+jpPehTmM753DpWPCDDsgktVd/9PKys7e1NR054ZgcNDOSMTbGLX29yPid/8u85b0T8FWwucCvk5f1QGf08tFxcdqSqdtW0J7eKN+JUubtrErXAtAt5wiDsvtxYkFw+jjNm+34ktKxvBew3rqokqb/HmA7wGPxfNiu6+bEA9bbAYUCMNPX4HHPoKoSTs/qHI54Yqj4Q+ngcelN3Yg6ODmf+Uxe2WDfX9+B1w6sJh7Dz0Aj1PPRz9dNgO6vrS0aFUg8P4iv3+oNPmiPSZuIPQNHqxcAAAgAElEQVQGxvz/pJ1fPJoLio/RlM63hWIRZla9zWv1y4m106Q4cXBq4QiuLDmBHIfmL9Bmz9V+xFPV76uGWQTENb1ACgANBUAgDKc/AW9vVI+VCuP6wZxL9RUBgaCD0/7Xy+KvlbenTonju/l4fnxPLUVAOhQA15eWFr3d0LBleVOTeXuhiowx3OutPq6oqOeMysp6TSFLgN0kuVodGHf/Tx54KQXOXE0pfSMUi3BH5Qssa9oe1+tH5vbknvKzTCkC/NEAF309i4aoUtdxFOgKVHX2QhkDoMEtc9Kn8QdYtBF+9qq+eDf/My9tGn+Axbv83P6ZnXdI1WtVIPCBNP4iXisCgZJ1DQ3vaQw5HoXGH+D0gpGmNP4AM6sWxd34Ayxr2s5j1YtNycXn9HJKgfLO0E7guHhfKBSs3AmzPrY6i8Q9+iGs1tAGLt/qYfaqBvVAKfb4+irW1gSsTsN008rKzl7k92ubaCyywyK/f8S0kpKpmsIpr3YzSf9OeoDxzP+1+hUJn/dK3TK2hvaakBGc6NMyGHBcPC+SAkDR7CX2febfkUgUnliiHmf2+znp+fPH4OmN2gdU286mpqY75Zm/SFQE2BQKTdcU7gSVk/t5KuiRU6IplW97s35lu8/8OxIlxpv1K03ICA5yd6G/R3mg8rh4XiQFgKKF663OIHkLNOT+1tawehCLvLXTb3UKplsfDA6yOgeRnjYEgzrW2c0HlHqgTsgfoCGNtn3WtC3pcz9v2qoxk28b5xuoGmIk0OlcZykAFG1P45vIbRpy316fvgXAdn/I6hRMtzsS8Vidg0hPu/R8dg5Fcbr52Pz+GtJoW2WkLulzdymc2xkNGxw5gU6LfykAFNVbPM9fRZ2GR+CONJ5Hksapxy0bfkZhDk2fHaWH9yWufA4wqfu/IRqkUWG0faPi+R3p7e5KiStfNUynXSdSAAglB/nSdy2pg3yZs5xoe8pdrjQuUYWVKvR8dg5ROtldoSGFtqnc/euM0RYHxpbBijrtOpECQCiZ0Cd9C4AJ3ZUWJksL/T0e5YUKRHY6xONZrSOMWg7mrdqp4xn+ZyaOA+jtLlMNIT0AwlyXjgnjSsN+ZpcDLuxnTteinfR1595lzpplIpO5gIM9nl9pCNVd5eR+nnINKXxXhGhS0//290b9SqJqa9G1q0eO8tIdnQ4kkAJAKBneM8hlw5WfVaXcFQNKGVTstToN0z1avffFcT6f+jedyCrjfL5lM6uq5mgIpdSHX+Yq0JDCd71Y+znbQ/uU42wN7eWVumUaMvquHupbBBd29gIpAISyP57byLge5qzSZYZx3X3cfZh5zxbtZmB+/rEjc3PVv+1EVhju9VYPzM8fqylc3DvTtaXAqb9I/6hxE09Uv6st3mPVi1mqMJ2wPcXOPNUQUgAI83lyYsy5OsC0kfm2fhzgcsBVA0v517ieuDVtBpQOZlRW1o8pLOw90edbLo8DREeGer21E4qLB2ncB0DpzkBnARAhyr9rP+XuyjlE0Lc8VjgW4Y7KF3m5bqnWxwF5TuVZmJ12n6TvCC5hK56cGA//TwNXjvHwxAc5LNxibAfst3g7YF+Ok14FbiZ093Fhv5Ks6PZvS/MX+shpJSVTN4dCd64PBofsikS8DdFo9lRCokMm7QSo9A/Op1gANMVC7AzXsLRpG6/Vr9DS7d+WcCzCX6ve4rX65ZxYMIzDcnvRLaeYPEfyM43yFc5t1mkPgBQAFovF1CpGh80m4g/rFeSPvVI/8yy4tQeRmk4Xvsp6M6urXwJesjoPkbhbunWreLO6et2KQED76NUhHm/t5MLCQQ/q3wY4ijGmMCnO/TqpNwUreb1+BUsD26gM1xGI2Wshsq2hvTxa9Xbcr/c6cijPKeRQby9OKRxBX3fXVn+r/N3eaQApAETai1QXSeMvMprZjf+UosJBD+7Zs0N3bKABKE725EAsRI7DSzAW5tGqt3mtfkVSa/fbVSAW5stQFV+Gqni1fjmnFIxgWpcTcDtcBGLKK5V2uta5FAAircXCLoJfmzdXWAirpXHjD4oFQFMshDvm4pe7/8PKwFca07KfGDFerV/Gl+F93F1+Fo3qBUCn27TKIECR1kJfdYew1LEiM6V54w9xNEId2ROpZ2bV2xnf+Le2rGk7j1a9zd6I8jjMTt97+eYUaUu6/kUmy4DGH2AX0C/Zkz9s2Mjr9cs1ppMeXq1fTqFLeWr1zs5eID0AIi1J17/IZBnS+AMoTZD/T91nGfTEP34xYvy79lPVMJ2+91IAiLQkXf8iU2VQ4w+KBUDQZqP8U0nDz97pRgVSAIi0I13/IlNlWOMPsCWF1xLfJgWAyCzS9S8yVQY2/gDmLJQv4rG0sxdIASDSinT9i0yUoY0/GI1QxILrKstxuXCm75LhYaDT0ZNSAIi0IV3/IhNdU15eYFbjP9TrrZ1cUjzAosYfjKloay26dtKKfPn86/e38dKffkVJoc/qdJKxEmjs7EVSAIi0IF3/IlOta2h436zG34S1/ZPxocXXT8hRQwfw0VMPcOrYUZw4+nDenXU/Rw7pb3Vaifo4nhdJASDSgnT9i0w0raRk6iK/f7juuC1r+9ug8Qd40+oE4lGYn8e9117Mokd/T7+DDvjvnw/o3YPFj93HvddeTJEv38IMExLXey4FgLA96foXmWpTKHSX7gfkFj/zb8s8jGfStuTLy+Xa75/G6udn8tMLv0eO67t7F+W4XPz0wu+x+vmZ/PiHZ1CYn2dBpnELAQvieWHajnBoRWmdiMDv1C7u/YXa+VbvBqj685stFnbR9MXBtr37L/nbGtUQmfBvUCSpj9vdtCUU0rZHtY26/ff3DjDW6iRaOBwORg3pzzmTxnLxaZPoUliQ0PnVdX6efX0h/5r3Dh+uXKf8Pa7ZYuCEeF5oz29VIZpJ17/IZLsiEW2Nv4lb+urwPBYUAO4cFwV5eXTtUkzfA7sxoFcPRg8fxHGHDeWArqVJxy0p9HHduadz3bmns3NvFe8uXcWHK9aybsuXbN6xi8p9NfibmgiGLOn4+He8L8yEu4+07gGwWqp7AFbuhNlL4K0NsLUK/EG1ePk5Tnr53Izr7uNHh5QwqFjb92lcpAdAqMh3OqMN0ajyZ8CG3f77Kwe+AtypvGjww5dTebnv8Iw+I9WXDAIHAZXxvFhurURKBMLw01fgsY8gqrG3rCEcZW1NgLU1AR79Yh+X9+/C3Yd3w5u+83dFFqlwuYJbolGlqrWl29+md/4tKoHXgZS3iFnmFeJs/EEGAYoUCITh9Cdg5od6G//9RWPw6BdVTF2wjZpgWq49IrJMf49HqQvJZqP9OzPb6gSywJOJvFgKAGG6W+bA2xtTd70PKxs4bcE2djfZduCxEAD093pvdSU5kDcNuv33NwdQfmYm2rUOeDWRE6QAEKZauRNmxbUkhV4rqpo4ed5WtvtDqb+4EHGasW/fG+Py8xPe8N4GK/wlIwr8yeokMtjvMd7juEkBIEw1e4m53f4d2VgXZPLcLayuDliTgBBxGJifP2Zkbu6+eF8/3OuttulUv3g8A3xtdRIZ6Cvg/xI9SQoAYaqF6629/s7GMKcv2Mrn+5qsTUSIdsyorKwfU1jYe6LPt/y7S9B8wwVM9PmWHVdU1DNNG3+AAHC31UlkoF9jzABIiBQAwlTbq63OAPYGIpw2fyuLdvqtTkWINs2orKxf4PePvLyk5MzJvv9v787Dm6rSB45/kzTd0pYWKEWh7MimMqiIiguroyi4L6PihgiiAo7OjAtCEddxAVRUxO2njrsooKOgCKgIiqAMioCAQEG2Qte0TdIkvz8uUShdc8/NzU3ez/P0eWZqcu4hTXLe+57ldf3Y3un0pNjtpNjttHc6Kwe7XD/ekJU1bKHb/Zdn9u4tM7u/Os0C1pjdiRiyljAXWMo2QJ3Sk6DUohnmjAhsmS/Tuc9fFXdVgMsW5/NC31YMzU03uzumGdWs2YWbKysnbvR6u+7y+5MqAo2aMow4p81Gis0WTLfbq5JsNn+6w1He3OHYkWW3r3fZ7avSExI+eHrfPstVm6vNzKKiOcCcg3/3WyDAbz4fuGMmgPUD42ngcbWiXrcR5lHLEgDo1LoJ/LLH7F6EJ1d5/bHo5gkEufbr7TzZ5wiu7BBf//hbmzbN+Nnj+WbWvn09onvIP5QvGMQXDNpKAgEn4MTnSwaaAscAF9vgwY6JiRUdnM51LZ3Oec1g6rSioijIO4l6fAF8AFxgdkcsbjawINwnSwCg08DO1g0ABh1ldg8izx+EW5bvpNgbYEzX8I8CtZJbmzbNWFJevuV/lZVZZvdFtSCwyetN2eT19gJ6pdvt9/ZzuTZ0SEx8qk1h4bN5jVwVLSJqFNAXaGF2RyyqABijpwFZA6DT9SeCw4KvosMO1/U2uxfmCAJ3r9pN3o8Wjdwa6WePZ1ksDv41KQ0EbIvd7i4vFRY+/YLTWXlxRsZrtzZtKqUko9NetCBAhGcMoGsxqAWHrujSIwdG9jG7F403+mToFudx97S1+/jn97tM26YYCaOaNbtwsdvd3ex+mGG7z+d8r6TkqreKS/ZfkN5k9m0ZGfGR8rEOB1CGzkGsLmUV5u3+Mfjae4D9aK9h2CQAUODRc6F/J7N70XADOsEjQ8zuRXR4fkMhNy37naroKuepzObKyonxngPf669yfFBafME75eW7rs7MnGR2f+KcA60q4HRgO/AZkGPUxc4ZO5HS8gqjmq+Vu6KSC243dLdjC+BztEDgVWAoYRRakgBAgUQHzL0ObjoluqcDHHa4ua/WV6euuDG2vL2lmOFf7aDSH3tBwK9eb1ez+xAtdlRVOV8tKsrrk5KyY0yzZnE6AWaK6oP+V8BYoKXRF162Zh3njpsU0SDAXVHJ+bdPYcmqiOx0bAoMB+YCu2hkMBALJdNMLQdc3drd8PIKWPirVu7W7G1waYnQNktb8Hdd78in/a1ULvnUnFTeOj2XNGfDo7hoLwesqtxsrEm324PD0jOe+E9x0R1m9yVGOYCTgUuAS4nAYF+Xk4/pykfTJ5OemmLodSI8+NdlP1pdgHeBT4Eaz0Q344uhB3ADMBhoB7hM6MMfVAcA4lC6A4C3qh11HvDDi3fCwtd1NlyzE5ql8G7/XLISG5YiURAA6OUGtqClUmehHQryB5fdHnBLAFAjGzDI5VrdOTX11Bg4XCdaHAuMRhv4m5vcF6EpQAsEngMOqTsRyYR1IvA0sBrtEIgemDz4CwuyO+CGf8Owmw1p/vt9FQz5fCu7KixTSdCF9lkaj/bhfgrtswZAtsMRJUcxRZ8g8Jnb3fOrkpLtN2dmtjW7PxaXDDwL/AjchAz+0aQ52t/kB7S/0R9HwEUqAEhDO6zgZnSuWhQCmw2umAB/u1v734r9UuThrM+2sKXMcpUEHcAtwHy0z5zuevPxYI3H0+S/bvd6WRcQtmS0NPNoYmNaOVbZ0f5Gn3IgCIhEAOBCqwN9RgSuJeLJebfCiEfApv5tvKXMx18XbOGnQksWEeqHFgSkt3cmT5aIu36/+XxJHxQXfzOqSZOBZvfFgqYi3+9W0o8DZZmNDgDS0KKNfgZfR8Sqgu11//dBw2HsM5DQ6B0w9dpdWcXQhdv4fl/ktxEpcArw3+eL9n3ez+UyfUWSFeysqkqY63Z/OiY7+y9m98VCegI3mt0J0WijgWOMDABCd/6nGngNEesmnAvb6slin3we3PkfSFa/pKTQ62fYwm18sdOShVhOBeYXBYN/bUy9+Xi2s6oq4dOi4mWyJqDBbkS2k1uRHbjRqD+cC/gIufMXehXthvsuhI2r6n7c0afBhHcgTX2Rn/KqAJcvyWfOthLlbUfAKSvLy99LsNuPrq/evNBs9nmTv6yo+PHGI49MNbsvFjDA7A6IsA0wIgCQwV+oVVYE918Ka76s+3GdjoNJH0CW+i3H3kCQ65fu4NVNliw0d8rK8vL3Frrdp96QmXn+mS7XqvZOZ2Wq3R57Jx8pssbjydxaXLrY7H5YgGRKrKud6hWbacAnWCjtL+cAGMdflEGLx8so8yk6jDYxGW6bBb0G1f6YHb/CWw/Bik/UXLMaG3D3sdmM6JxF0yRHNJwD0BhfA2ejnb9uCWOys9PsXnt2wOHrXOYPnlAWCPTeVeU7br3X03qf329o6tkGXJWZed9rRUVyfHDtJIi0MJUBgOUGf5AAwCjBKgeVGzpw0pxtrCv2qGvY4YQx06DvhYf+3ufRBv7/zoKg8affO2xwYnYqy/aUG34txSwXBNQkD+z5mZnXbvH5xn9fUXF0sUGHHWU6HMG/ZWX1fragYKUR7ceAiAUA2VnNOX/QuZw/8FwefP4xlq5aHqlLG6rvcSdx94138OHCj/jw84/YW1gQsWur+tBYNu0vAYAxvFtb4S/O4O5Vu3lmneL1ZzYbDJ8MQ0Zq/9/vg8eugx8Wqr1O7PoGOAsoNbsjKtyRk9NiU3n5rK/Ky88tMCArcFJKyvblFRW5qtuNEYYGAE2bZDHk9DO5+K/n89dTB+I8sNvHXVHOsDGXsWTF10Ze3nCn9OrDx8+9R7orDQB/wM/yH1fw3vwPeXf+B+wqMLZkuYoAwJJ3/iESAKjnL8rAu60VoB2qc+onmzGkzs7ld8L54+CVe+HTFwy4QEyLiUzAwW5PT2/+SzD43mdu9xk+xdUdr87MzHu1qGiy0kZjg/JPdm2DfnVWDwKqD/7VRSIY0BsAWHrwBwkAVAul/qlK+ON3//h+F7M2FBpzwdMugm/mgN8yR/dGk5gLAgBGZGVdMb+s7JXtPp+ywyFynU7fRS5Xi2lFRZZcBWogJQFAQwf96qwaBNQ3+FdnVDCgJwCw/OAPEgCoFkr9H/K7QJCLF+Xz5W5L7qWPdTEZBIxu1qzVyvLylSsqKpTVmr8oI+Pd90tKLlXVXozQFQCMvORaLj7zPPr1OQ2HPbxNqmXlbs67+XLLBAFn9D6VOTPeIi01vHNL/AE/i7/9ivcWzGHWu6/o6ku4AYBl5/yrkwBAnYNT/9VVVAUY/tUOPt8ZU+NMrIipNQEheZC42OX6cbHb3U1FezkJCf6LsrIypXLgIXQFAFU/qckMen1e/vnYvTz75ov4A34lbarmsDsY87cb+Pc/pjQ4w1GfhKOzdD0/nAUzMTP4C3WCVQ68v9d+s5WSYOeNM1pzQZuMWh8jTHMK2pHd6WZ3RKU88PZzu48+w+XaoKK93VVVjgKPZ4aKtoRaic5Ept31CKve/yrsTIKRHHYHP8z+mql3Paxs8Fchof6HHMKwtH/fnt2ZNy2PtJTkRj0v8aRhqruiy0+74KUVsGgjbC0Et8nFWF2J0DYLBnSC60+EHsoSoofy7Wh5yLx/TRLtNl7o24p0p92qB+qEJcHhYN60PAb27qm7rbKKSoaOz2Pp6rUKenaIU4D/EmPTAXkQyMvO7lkeCGxRMR2wrKLib3lwXR4Yv9dUNNrOgl26MwDX557NtKMPLTc+7qeneTn/07Db9Af87Ny7i+6duurqm2qNyQBE3eAfTTxVMPZD6D0dZiyFtbvNH/xB68Pa3fD0Uq1v4+aAV3GGzF+Ucdi8f20cNpje5whu7dZMbSeiWJXfz1UT/s2W33frbistJZl50/Lo27O7gp4d5lS0z3jDViZZRN6WLZV9Xa5ebZxO3Z/IfJ/PmZ+VNVpFv4R6782fo7uN8484fIir6XeN9d4C/X1TraEBgAz+dfBUwdCXYeZyCETxuVj+ADy3DIa+pC4IqC/1XxMbMKVXC+7tma2mExawr7iUayY9TkDBG0SCgMabVlCw88y0tBEOm/6dz5u83lsVdEko5g/4mfvFf3W10Swxg1ObHn3Y709veizZifrqjHzw+Tyqomy3UkMCABn863HHPFiyyexeNNziTfDPj9W01ZDUf21u79Gcx3u3xG7IGW7RZ9madTz7vpoXXoKAxnuhsPD1gamp9VSVqt/Kioout2VkNFXRJ6HOom+/ZM/+vbraOC+nLwm2w9cQOGx2zs05SVfbBYX7WPJddO1UqC8AkMG/Hj/tghe+M7sXjff8cm1qQI/GpP5rM6JzFjNPboUzTqKASc+9zr5iNYvtJQhovO4pKec2czh0zd+XBgK2fXa7ZAGijFHp/4b8t4aKtmmAugIAFzAPAwb/U47txtypkyw/+IO24C+a0/618Qfg5RXhPz+c1H9tLmmXweuntybZEftBQIm7nOlvfqisvbSUZD6alscZxx2jrM2DnArMJ4Z2B0wrKNh5amqq7kpRu3y+c1X0R6hhZPo/JBanAWoLANLQtgX1U33Bvj2789H0yaSnpqhu2hRf/Gp2D8K3UEff9aT+a/LXI9N4v38b0p2GFniLCjPe+YjiMnVFhFwpyXzw+L1GZQJCuwNiJhPQLiVlRIbOUsibfb4eqvoj9DMy/R8Si9MANX3byp1/I+RbeDfbtjD7riL1X5O+LVL5aGBbmidF3z5elUrLK3hv4VdK25RMQMNN37Nn9wkpKbr2UW72elPGZmd3VtUnoY/R6f/GPKY+0TQNUD0AkDv/RiqLgq1+4SoNo0qvytR/TXo2TebjwW05MlVddqEu3uVz6/zxLJvDz+88yxN/H0mXtq2VXfeVeZ8raytEMgEN1z4hYZqe5weAYq/3AkXdETpU+asMT/+HxNo0wMEBgCz4E/VSnfqvSZeMJOYPbkfH9ERDr9MQNpuNzm1acculQ/nhjad44OZrSHDoz1B8+9N6xj02U8m2wIPJwsCGyS0ufknvYsCyYPB4Vf0R4Vv83VeGp/9DYm0aIBQAJKId7yuDv6iVUan/muS6nHwyuC1HZ0XP+ybB4eAfwy/irQf/hTNBfxDw7Hsfc93kqfiq1J7MFIEg4CO07wzLyoNAl8TEHXraKPL7uyjqjtAhUun/cB5bm2iZBggFAE8AZ6huXAb/2GF06r8mLZIT+HhgG07Kjq5po2FnnMR9o4craevN+Yu59M6HqPSqnUsyOAg4A3jciIYjKSchQdeZAPv9AXVzQiIskUz/h8TSNIAd6AEoP9pSBv/YEonUf02aJDqY3b8NA48Ir3SmUcZfcT7d2ucqaevjr79j6PjJlLjV7QwAw4OAm9C+Oywr3eH4Qc/zi/3+6HpTxqFIpv9DYmkawA6MBJQuu47F1f7xLJKp/5qkJth584zcqKok6LDbGX3REGXtLVm1hjNvnsDeomJlbYKhuwMcwA2qG42klKD9Gz3PrwgGIh8Ri0N88Nk83W2EM5gPzTlZ93U/+Fx/3/WyA4NVNhirq/3jlRmp/5qEKgle3VFf6k2lnkd1UNreqnUbGTj6bn7fu09puwbuDlD63RFpLqd9q57nVwSDsX9oRZRbrOAu+tFNb+P2Vzb48W5/JY9uelv3db/8fqnuNvSyA21UNSZ3/rHHrNR/TUKVBMdGSSVBm4LCMtWt25LP6SP/xcb835W2a1AmoK3KxiLNFwjs0vP88kBAAgCTbd25TXcbywrXcuGKiQ0KAtz+Si5cMZFlhfrLcW/Zob/veiWgaEuPlef8d5bAks2wIh9+2QNb9sP+cijxaEfmGikY1LcNzIhBKMTs1H9NbMB9vVrQJNHOlNX65v70ctiN+f7ftmsPA0bfxcfTJ3NMp3bK2g1lAoaOz2Ppav1fYFh8O+BT+/eX6Hm+V+dnV+in6k8QCgJm974Pl6PmMUzl4B8tlHyDWXnwP20GtH8IrnkLnl6qHY+7aR8UVhg/+EezaEn91yZUSdBMdgODr137Chl0090sW7NOabsGLwwUIqLat1KWwK4zE2DE4N9OYd/DpTsAsHra/7t8dVFkLImm1H9tRnTOMvX6RmZfAApLyzj71nuZv1x3BdtDGHxssBAR07/P6UrbqykIMOrOf8BJynfeN5ruAEAW/MWeaEz9RyOHw/gp4PJKDxf9435mf6F2wVBoOkAIKxt5ybXKA/GDgwCjBn+73c6Nl1yntM2w+qG3Aave+YuaRXvqP5pEqnix11fFlRMe5aW5C5S2K59dYXXHdjmakZdcq7zdUBBg1Jz/qEuvo3unrsrbbSxZxSoOYYXUf7SwG7QIsCb+QICbHprB46/Pjtg1hbCCJ/71IKedcIrydpcVrjVk8D/9hL489s8HlLcbDgkAxB8k9d84Ri4CrEkwGOSup1/hnhn/F9HrChHNkpOS+ejZdzmjt/JSNsqd0qsPc2a8RVJiktldASQAEAdI6r/xIpkBONijr73Prf9+VnklQSGsypWSytxn3o7qIOCUXn34+Ln3SHdFz+5ZyfUKQF3q/5eKUl7bWsDi7R62FgVx11PjxpUIbTNt9G+dxPA2zemamq67D5Fit0c2A3CwmbM/odhdzov3jldSmVAIMyQcbe5Onkj65odvyeqjpn6IKhIACCWpf08wwIRftvDiag+NuTF1e2HtniBr91Ty3I/buaFnElO6tiPRFv3JqUhPAVT31vwllJS5efPBO0lJsnR1XiGECaL/W1YYSkXq3xMMcOmyjcz6sXGDf3X+AMz8wcOlyzbiDUb/KUxmTQEc7L9Lv+fc8ZOUVxIUQsQ+87/BhKlUpP7v+WULS7b4FfUIFm/xM3HdFmXtGcXsDEDIVz/8bEglQSFEbJMAIM7pTf3/UlHKS6s9inrzp1mrPayvKFXerkrRkAEIWbVuIwNG3cX23QVmd0UIYRHR8w0mLOm1rQW60v618Qfg9W3RPZhFSwYgZP3W7fQbdafySoJCiNgkAYDQZVG++rv/kC8MbFsFM3cB1Gbbrj30H3UnqzdsNrsrQogoJwGA0CW/2Li96NsMbFsFu13n9jtnovaj2O79RZx58wTllQSFELFFtgFW06NjW64fdiYDe/ek7REtcNVzXnriScN0Xc/oinJGM7L70f7K6M4ApDaBW56Gx6+HSreaTh1QWFrGkLETeefhuxjcp5fStoU4SClgncM7xMFKJANwQKIzgSf/MZqVrz3JrZcNpXuHNrHgDIkAACAASURBVPUO/gJaZxg3TOc2ie4QQHcAEAzAMafDhHcgLVNNpw7irqjkgjumKK8kKMRB8s3ugAjbNgkA0Ab/eVPzGH3RkKic141mA3KNO9N6oIFtq2DXe1hR6KyDTsfBpA8gU/1RzKFKgi/P/Ux520IA8sayrgUSAACPjb+B/icca3Y3LGl4m+Y4DHgXOexwZZvm6htWSHewGDjosKPcrjD5Q2jRRl+bNfAHAox+6GmmvvGh8rZF3HsBUHcIiIgUP/Bi3AcAPTq2ZeQFZ5ndDcvqmprODT3V36mP+ksyXVKie2pRfwag2iLHnHYweQ607qKv3RovFeRfT77EpOdeV962iGs/Ac+Z3QnRaDOAtXEfAIw470wcUXSgixVN6dqO/u3VFaQZ0N7B5C5tlbVnFN0LIKsHAABZLbUg4KgTdDZes4deeUcqCQrV/g4sNLsTosE+B+4A2QbIwN5/MbsLlpdos/P2SZ0Y3StJ13SAww5jjkvm7ZM64bRAMSDdgWOglsypqwnc/Rb0MKa06czZn3Dd5Kn4qiRzK5TwAkOAp5HpgGjmB55E+1v5QLYB0jonuueZrSLRZufhbh24rl0pr28r4It8rRxwWT3lgNMOlAMemJvElW2aR33a/2C6jwKuq+BRsgvufB2mj4bvP9V3nRq8OX+xFBASKnmBW9GmA0YAg4F2QJqJfRJQBmwBFgAvAmsP/o+WDwDSU1MoLa8I+7npqSmKe2QdaU71d9ldUtKZ0iWdKeqnsaOO7imAgB98HnDWsobCmQS3zYKZf4cv39V5scN9/PV3ytsUce9ntCkBYQHRn2eth547+DZHtFDYE+vJdTnN7oKl6V4EWOWDh6+q+xAgRwLcNB3OukHftYQQohrLBwCDTgx/Dn/wifF9QtqAli6zu2BpSs6M+PlruO8iKN1f+2NsNrh2Clxxj/7rCSHEAZYPAK4fFt4qfofdznXDBhvQI2tw2GB4R/Wnz8UT3RmAkM2rYfKFULir7scNuwWuvs/Y85eFEHHD8gFAj45tufHCsxv9vJsuPodu7XMN6JE1jDyqKV2bRPdJe9HObreR5FQ0jbJ9PUw6H/ZsrftxQ0bC6KmgtxCRECLuWT4AAHh03AgG9O7Z4McP7N2TR8Zeb2CPolu/li6m9Irv9Q+qHJHdVF1je7bCxPMgv54qfmdcpi0ONKCSoBAifsREAJDoTGDuE5MYc8k5dU4HOOx2brl0KHOn5uFMiL87KIcNRndpyrv9cnFKzQMl+vbsrrbBot0w+QLYuKrux/U+G/75mrZdUAghwmADdB0J5l0+V1FX1Fi7eRsvz/uMz7/7ka2/7wag7ZE5DD6xF9cNG6w87a+3HLDRXAl22qQ5GdDSxfCOmTGX9s984xddz9f7/l2wfBXnjs/T1UaNkl1wx8tw9Gl1P+7XlfDIVVBWpL4PDWP1SFLvkYhW//eLOBZzAUCk6Q0APA+r6Yd3ayv8xRlqGrMQswMAgLNvvZeFK1brbucwzkQY+5x2t1+X/HXwwOVa9iDyrD4ASgAg4lZMTAHEO39RRlwO/tHi5by/06alAWsqfF6YOhIWvVH343K7wpR50LK9+j4IIWKWBAAWF6xy4P1dfR150XAtm2Ux/+kptDXiYKmAH56/Az6ZVffjsnNh0mxDKgkKIWKTBAAW59vREqosf6Kz5XVsfQRfznqUozsaUMUwGIT/mwhvPFD34wyuJCiEiC0SAFiYpP71K6uoVNbWEc2zWDDjAY7v1klZm4eY+zS8cm/NZYRDXE3grjcNqyQohIgdEgBYlKT+1Thn7MSwi0nVpHlmBp898yADG3EuRaN8+gLMuAX8vtofk5IGd/4H+pxjTB+EEDFBAgCLktS/GsvWrGPYbZOVZgLSUpKZ/di9nHPqicraPMTXs2HajdoiwdqEdhCcfokxffiTpKCEsCgJACxIUv9qLV29VnkmICUpkff+fTdXnzNQWZuHWPEpPPQ3qCit/TGhSoLnjDKmD5ovgGwjLyCEMIYEABYjqf9DuRLUvIWXrVnHueMmKQ0CHHY7syaMZezlBh0WtfYbmHJJ/ZUEh+cZWUnweOBLIH4Lawiz5QCXA9OAT4H1wH7Ag3bOg5k/ngN9WX+gb1OByw702XQSAFiMpP4PletSVIwHY6YDbDYbj42/gbuuvVRZm4fYvForJ2xuJcGuwFdAZyMaF6IGTYFbgG+BXcCbwDjgr8BRQBYQDcUyEtH6chRa38YDbwE7geXAzWj/FlNIAGAhkvo/XP8j1J6Fb8R0AMDk0Vcx9fYbsRkxAOevg4nDYNdvdT9uyEgY85Q2NaBeW7Qg4C9GNC7EAUcCTwDbgKcAgxbaGM4G9AGeRvu3PA4cEelOSABgEZL6r9k1HTNxKB5TjcgEANx8ybk8d9ctdRasCtvefMi7oP5KgqddBOOfN6qSYA6wCOhrROMiriWg3eGvA24DYqkKlgv4O7ARyCOCmQsJAHRQPUDURVL/NevaJIkRnbOUt7t09VqGjs9T/je+bthg/nP/P0h0GvC3jI5KgpnAAuAsIxoXcakz8B3aHH+6yX0xUiowCVgGGHSYyKEkAAhTWUUlQ42oAlcDSf3X7f7jcujbIlV5u0YFARcO6MsHj92LKyVZabuAVhXw/kvhp6/qftwxp8M9b0Napvo+aF9kcwCDFj6IOHIe8D3Qy+yORNBxwEpgqNEXkgAgDO6KSi64fQpLV681/FqS+q9fot3Gu/1yOTXHmCDAiDUBg/v04rMZD9CsiQE3NJVuePhK+Pajuh/X+XjImwNNW6rvg5bGfAO40YjGRVy4BniP+DxrIgP4AIM/PxIANJK7opLzb5/CklVrInI9Sf03TGqCnXfOMCYIMGKLIMAJ3Tuz8NmHOKK5AYuAq3wwfTQserPux7U+CibPNaqSoAN4DvinEY2LmHYD8DLa3H+8Cn1+Rhh1ARs662GrqKduFaG0fyTu/FVJTbDTxuWkX0sX13TMpFtmktldMpS7KsBFi/JZvrdcedt9e3Zn3rQ80hSn7jfm/87ZYyeydecepe0C2ra/qyfD2SPrflzhLnjgcti+Xn0fNA8Dd6Pz+8YAevtjyL7KOHce8D7aACigCrgQmKe6YQkAGsiKg391Dhtc3zmLB47LIdEeu99bVgwCduwp4Oyxk1i3JV9pu3+4+Ha4+I66H1NaCI9cCRt/MKYPMBMYAwSMukAYJACILp3Q5r/jMe1fl1LgBGCDykZlCqABYmHwB/AHYdaGQi5elI83EG03Yuq4Euy83z+Xk7KtszCwVYvmfPHcQ8ZVEnzv8forCaZnwYR3jawkOAr4D6Du9CYRS5zAO8jgX5N0tDU1SqdEJACoR6wM/gf7crebCat2m90NQ1kxCGiemcH8p+/n9F5HK233D5++AM+NB39V7Y9JdmmVBHsbtovvcuBDtJ0CQhzsNuJrtX9jHQ/cqrJBmQKoQywO/iEOGywd0oGuTWRNQLiMmg6o8Hi54p5H+PjrFUrb/UPvs2DszLoPA/JXwfO3w5J3jOmDdmrgUKDYqAs0kEwBRIcj0dLbsXTAjxFK0Y4Vrufs74aRDEAtIrnVzwz+ILy6qcjsbhjOlWBndn9rbRHUKgneY34lwdHT4NzRxvQBTgO+xoTjT0VUugMZ/BsiHe3UQCUkAKhBWUUl547Pi9hWP7Ms2uU2uwsRkZpg5+0zjJkOMOrYYIfdzvP3jGX0RUOUtvuHtd9oq/7L6ggCbTa4alL9iwfDdzTa0cFtjLqAsISmyHkRjXETWoEh3SQAqCbW7/wPlu/2md2FiLFiJsBut/HkP0bzwM3XKG33DxtXwaRhsL+ebOLFt8P1D4LNkK+LLmhV0Qxa+CAs4Ark7r8x0tDW0ugmawAOEulDfqJB0RXdzO5CRJVXBbh0ST5f71a/JuDkY7ry0fTJpKemKG97xrsf8fcnZhGsaxV/uLJztWOB6zsM6OvZ8Ox48BsSOO4HhqCVd40Yp80W9Ol4TcdkZ6c/s3dvmar+jMrMPG+zz5e30evttsvvTwJo6XB4OiUm/tIhMXHizMJC5XvBo8B3QG8VDXXLTOKajpn0a+mijctJaoK597jlVQG2uX0s3uXm/zYV8UuRR1XTy4GT9TYiAcAB8Tj4Q/wFAGDdIOA/nyxi5P1PUuX3K2+bzBZw95vQpnvdj1u5AKaPAq8hhbDKgPOBhUY0XpNMhyNQ5PeHvZBvbHb2UU/u3fur3n6Myc5OW19e/s0it/uY2g5JcAD9XK7/dUlN7asy6DBZDrATnYspE+02Hjw+h+s7ZRGtR5z4g/Dir4VMWLVbxTbsINprt1dPIzIFQPwO/vHKiscGA1x5dn/efuhOkhMNqBZatAcmXwgbvq/7ccefCXe+ASmGFGVLAz5GCwIiIsVm0xVNebxe3esXxmRnpy0tLd26sI7BH8APLHS7j/2qpCR/XIsWsVIgpD8KBv/3+udyQ+foHfxB23l141FZvNsvV8VBbDa0106XuA8AZPCPT1YNAoae3oc5T0w0JMOAuxgeuAz+t6Tux3U/Ge59F9INqGEAScC7aIVgDJdss9VxKEL9KoM23WnY9eXl36yurGzwi7nG48n8vLh4Q4wEASfpbeDB43M4Pcc6SwjOaOliynEtVDSl+7WL6wBABv/4ZtUgoP8Jx/Lp01OMqSToKYd/D6+/kmCHnpD3ITQ1ZBdfAlohmHFGNH6wDIdD1zxQSTB4nJ7nj8rMPG+x231MY5/3s8eTESNBQBc9T+6WmcR1nZQsiI+oGzo3VXEGi67XDuI4AJDBX4B1g4De3Y8yv5Jgq85w31xo2UF9H7QU5zS0IkKGae5w7NDz/N1VvuP1PH+zzzc53DmInz2ejM+Ki38d37y5lc9S6Kznydd0zMQRxWn/2jhscHXHTL3N6HrtIE4DABn8xcGsGgR079CGJc8/QodWLZW3TcCvnQT48cy6H9e8NUz+ENr2UN8Hzb+A6Rh04l6W3a6r/OF6r6d1no7v0V+93q56rr/W40n/rLR0nYUzAbpGwX4trZP6r66//r7rTn3EXQAgg7+oiVWDgHZH5rBo5iMc3bGt8rYJBuG1PHjjgbof1yQbJs6Go5Ts5KrJWOAVDKgN77LbV+l5/j6/356fmXltuM/f4/frXtFp8ekAXfNYuS7r1pVS0Hfdc4BxtQ0wGgd/vfu6bTZ9N0bxuA2wLkZuEbS0M6+D6+6v+zAgTzk8MQJWLzaqF3PQDkBRtgfx782bHzW1oGC9nk/hQJdrzUK3+9hwnptqtwfKAwEl2Y0eSUklg5o0OWr6nj1WqvSl6wvQ6t9fmW/8orcJXe+duMkAROPgL6KPkZkAS1vwMsy4te5Kgkmp8I9X4aShRvXiPLRtgspWPz5RULChQ2KirtTM9xUVR9+RkxPWsu4WDodXz7UPZvFMQFji6TRTI8RFABAvZ/sLNYysHWBpX8+GaTeCr44xK8EJY5+F/n8zqhcD0MoJKzsMoaPTqes2rDgQsG0qL38+nOd2TkzUfQt4sBhZGNhgx8zZSNcPfuXar3fwysYitpZJQNAYMR8AGFnSt2875U2KKOFKsPN+fwkCDrPiE3jkKqiso5CU3QE3Pg7njDKqFwOAJ1Q1luN01rPnsX5flZcPDefOu4PTmefQe/FqYmBhYKPsqqjiw20ljP9uJz3nSkDQGDEdABg9+M+9XnmzIopIEFCLn77SDgyqr5Lg8Dy47E6jejEaRQWEmgcC09Ptdl1z0QV+v32du6LR5/TPLCqa08/l+p+ea9ckHqcDQiQgaLiYDQCMrOp3SluYcx2kGXAiq4guRlYRtLRfV0LeefVXErxgHIx42IhKgg5ASQg+taRk//EpKRv0trOwvKz3iKysKxr7vC6pqX2PSUqqI5oKTzwHAQeTgKB2MRkAGDnn37cdzBsB6boPcRJWIWsCarF9A0y+APZsq/txg6+Bm58Ch/ItW4NVNdTB6Zyht42qYJD5pWWvjGnaNLcxz3tm796yv2ZmdjEqCIinNQENIQHBn2IuAIhE2l/u/OOPTAfUYvcWLROwvZ4b6FMvhNtfhMRklVdvp6qhNkVFM1o7nbq//bdX+ZwrKipW5LVr16h/6GO7d+8Z0KRJ1x5JSSV6+1BdvK0JaKx4Dgh0nwMQL2ob/JN0TnHKOQDW4q4KcNGifJbvlXMCDpGepVUJ7PiX2h9TUaZlDLb8pOqqJUATVY1dnJHx2nslJVepaOsMl2tDf7e7Wx7UVeDvMONatMj5vLh4w88eT4aKfhwsSs8JiPrxp2VKAidlp9KvpYv+LV20TVOXyZJzACxA7vxFiGQCalFaCPdfAj8vrfm/V5TBI1eqHPwB6pl7aJymaWmjchISdFUHDFnidh+1MCV1Q2MzAdP37Nl9dmZmZ5kOiB6xnCGQDEA9TmmrDf61zflLBiA+yYmBtXAmwq3PwolD/vydpxweGQ5rv1F9tSeA21U2eEF6k9kflBZfoKq93ikpu3unpPR+Zv/+/MY8L44yAZYff/RkCMzOAEgAUIeG3PlLABC/3FUBWr2jq5ZMbHIkwE3TtXn/0J3/uu9UX8UPHAMoPUjntoyMpu+WV+zaXuVTludtneD0nZ3mGjGrqOi1xjwvToKAmBt/GhMQSAAQpRqa9pcAIL4p+ADHJpsdrrwXvv/EiMEf4ElgnBENX90k6+5XiwvrqYDUOA6bjQGpqas7Jief89y+fQ0uQXxHTk6L+UVF69d4PLprx1bXPSmp9Mz09C7TCgp2qm67EWJ+/KkrIJAAIAo1Zs5fAoD4JgGAKRYDZwKGTcD2SUnZ8W1FxZGq223mcAROS039b9uUlBsaevcd45mAuBt/2qY56dsildNzXIxe9rve5iQAUKm+Of/qJACIbxIARNxS4Gyg1MiL3NysWZ/XCwuXFSuq1Fddht0ePCEl5ef2CQnTc4uLX8qrZ7dADAcBMv7oIwGAKo0d/EECgHgnAUBERWTwDxnepMn9rxcX32P0F2SWwxHolpi4IychYVW6w7EyzW5fkeBwbKqCnc/s3VsWelyMBgEy/ugjAYAK4Qz+oD8AMJvqAOCXilJe21rA4u0ethYFcSsrdhoeVyK0zbTRv3USw9s0p2uqskqygIIA4PKJajoSrrfuM/f6DRfRwT/kTJfr+wVu9/GRvKZZIrgmwA70AfoBDxp8rVh3N7AI+I5GnjkBkKC8OxYU7uAv/uQJBpjwyxZeXO0hEEUhpdsLa/cEWbunkud+3M4NPZOY0rUdierPphfGMWXwB2jXpMnpx1RV/b7G41F24FC0WuvxpNtg3bgWLYzKBDQHxgPXAq0MaD8ehQKo7cD/AVOBfQ19ctx/C8rgr58nGODSZRuZ9WN0Df7V+QMw8wcPly7biDfY6GBZmMO0wR/g+d9/Lz89JaVnB2dipRnXj7SfPZ6ML4qL143Jzk5T2Gxz4BHgN+AeFA7+L00cz9XnDKTdkXF/ynFrtNd2C/AQ2mter7jPAMwbISf86XXPL1tYssVvdjcabPEWPxOztvBwtw5md0XU7Wu0wb+svgcaaUZR0dZbs7NPea+w8LudVVUx/525xuPJbFFevhToqaC5QcCrgCGnD141ZABXDRkAwM6CQr5ZvZaFK35k6eq1/PJbo85eihVpwJ3ACLRMy3/renDcZwD0DP7+IuVrcSznl4pSXlrtMbsbjTZrtYf1FabcVIqGWQoMweTBP+SpvXt/GOZynXWEoqOCo91it/vYUZmZ5+lowgk8BizAoMG/uiOaZ3HRwL48c+fNrH5zBhs/fCGeMwTZwEfAo2h/ixrFfDRrlGCVA+/vOWj1SOLXa1sLojrtXxt/AF7fVsCULmoXBQolTE3712ZmcfHCm7JaHL/AXbR8k9ebYnZ/jOQHNvt8ecCcMJ7uQLvrv1xlnxqrTcsW8Z4hsAF3AB2Ay4DDglcJAMLk29ESYj8bWK9F+da7+w/5It/DlC5m90JUE5WDf8izhXv+d3NmZrcvbbYfjTidL5ps9HrD2SLkQFuMZurgX5NQhuCigX2BuAoILgTeBP5GtSBARrAw+Isy8BdL+h8gv9iCt/8HbLNw32NUVA/+ITOKirbmtWt3RG5BwaeflpWdEavLSXf7/eFMkD4BXKm6L0aoHhBs27WHL1f9xOKVa/jyh5/Y8rvZZRKUuhjYgbYL4w/6A4A428f8Z+pfk+a0U+az5ldAulP/EhCd5xCZysJdj0WWGPxD8rZsqQT6Dc/MnDyvtPTeIr8/5t5OYfyDBgO3Ku9ILTJcaktyx8GUwVhgPvBJ6BeSAWik6qn/1qlO1hVbMw3e2qW/4FnrDBu/7LXmnXRuk5j7zraqqFjtH47Xioom3dS8+dwf3O4Pl1dUtDa7Pyq1cDi8vwUafHPTDHiFCMbVuS2zDW0/BjMENmAWWhXNQpAAoFFqSv33a+mybAAwoKVLfxu5Sfyy15pbpAfmyuEPUSCqVvuH49mCgpVA7nWZmbctcrsf2uLzxcQbq1Ni4trffA2utzQBUF48qS6DTvxLJC93WIbAogFBK7TzAu4A2QbYYNVT/yHXdMzEYcEbSYcNhnfUv4ZpeJvmOCz4LnLY4co2DTorQ9Rtg47nfg2chUXS/vV5uaho6tD09BYXZWS8m5OQYJ2DMWrgADokJk5q4MObASMN7M5hHHY71w87M5KXPEwoIHjh3nFsmD3LStsObwSagmQAGqy2Vf/dMpO4vnMWszYUmtCr8I08qildm+i/Uemams4NPZOY+YO1siCj/pJMlxTZAqjA6cCnQGNvxyyb9q/LU/v3lwCXjsnOTivweGYsq6j4W77Pp3+uLcL6uVyrZxYWzmvgw28B9KcTG+Gmi8+hW/vcSF6yXjVlCJas/Iklq6IuQ5AO3AxM0V8MyOKLAD0P1/8Yf1EG3m21n17pDQS5ZHE+S3a5dfUlUvq1dPFuv1ycdjWpC28wwGXLN7LoN2vc9Axo7+DtkzrhVFAPQIoBYQMygXnAqQ18zmJgKDE2+NckD+z5WVmjN3m9t66sqOhSalB5YZWOSUoqOi0jI/fgSoR1sAP5RDD9P7B3T+ZOzcOZ4IjUJZWIsoBgO9BGAoB6AoBglYPKDR3q3fPvDQSZsGo3L/5aiD9K18Q5bNqd/5ReLZQN/iHeYICJ67Ywa7UHf5RuinDYtTv/yV3aKhn8QQIA/lz0lYR28tsYap9a9APPoM0/mlwnMvLGZ2Zm7odxu3y+oZt8vu6/eb0p0fZRCaMs8Clo6zgM57Dbuenic3hk7PWWG/xrEgUBQR8JAOoJALxbWzVqz/+6Yg+vbipi0S4328p8uKvM/Yi7Euy0SXMyoKWL4R0zlaT967K+opTXtxXwRb5WDrjM5K/5tAPlgAfmJnFlm+bK0/4SABy26rs7MAoYCLQ78LvNwELgeUDnCxY7xmZndy72ei8oCwaPL/L7u+73B1qVBPyplYFAQlkgkFAeDNp8wcjdTYQx+INWjvYBo/qUlpJM2yNzGHxiL64bNjjq0v4qHRwQ/LhhM1t37qa4rNzIS94pAUAdAUB9qX8hJACQ4xQi5Y6cnBbzi4rWG3ECYffEpJIzM9K7Tiso2NnIp34AnK/n2q1zmvP4+BsY1KcX6akxfcKybqXlFXzx3Y/c8+yrbNi6Q29zs2URYC1qW/UvhBCRFqWDP0BnPddundOc71+bTtMMWZDbEOmpKZzX72ROO+5ojr9qHDv2FOhprrMFN3BFhpz1L4SIBlE8+IO2rzxsj4+/QQb/MDTNSOexcSP0NtNKAoAayFn/QohoEOWDP+jc/jeoTy89T49rg0/S/dqlSQBQjaT+hRDRwAKDvzCRivWhEgBUI6l/IYTZLDT46zr85IvvflTQhfj0xQrdr12ZBAAHkdS/EMJsFhr8QSsxG7Z7nn2V/SUxcRJ0RO0vKeWeZ17V28wOCQAOkNS/EMJsFhv8AX7V8+QNW3dw/FXjeH/hUkrchu55jwkl7nI+WPQNp474Bxvzf9fb3K+S6z5AUv9CCDNZcPAH+A6d5wDs2FPA3+55pMb/5kpJpu0RLRjYuyfXDzuTHh3b6rlU1Ptp01ZemrOAL75fzdade3BXGFpp9VsZ8ZDUvxDCXBYd/EGr62AYd0UlazdvY+3mbTzz7sfceOHZPDpuBInO2Bq6PD4fd0x9gVkffkogELHTHxfF/RSApP6FEGYak52dZtTg3yMpqWRwZpOjDFzt/y2gOxfdEP5AgGff+5iht+Xh9VVF4pIR4fH5GDo+j5mzP4nk4L8d+D7uAwBJ/QshzLS+vPwbowb/MM72b6wAMNPA9g+z6Pv/8c8nX4zkJQ11+9QXWLxyTaQv+xwQjPsAQFL/QgizjMrMPG+x232M6na7JyaVDE5P72rw4B/yNBEu7Tzz/U9Yu3lbJC9piJ82beWFDz+N9GVLgRkg5wAIIYRpNvt8k/2K2zThkJ/9aJUeI8YfCPDyvM8ieUlDvDx3QSTT/iHPAUUgAYAQQpjmV6+3q8r2IjDnX5sH0HkmQGN9HgOHCJnwb9gOPBj6PxIACCGESXb7/Umq2opw2r+6/cC16C0v3wjbdu6J1KUMk79rbyQvFwRGcuDuHyDuV7/prucuhBBhsmlfyja97UTJ2f6fA9OB8ZG4WGl5RSQuY6gyY/f5VzcNOGTBgWQAhBDCJC0cDq/eNkxM+9fkDuB1szshDvMO8M/qv5QAQAghTNI5MVFXCtLktH9N/GhTAW+a3A/xp/eBK4HDDk+QAEAIIUzSOSnpLoctvBmAKEn718QPXAM8SgTXBIjDBIBHgMupYfAHCQCEEMI0z+zf/2m/1NT/NfZ5UZb2r4kPLeU8iAidFCgOsQc4F7iTWgZ/kABACCFM1SU1tW/P5OT9DX38MUlJRRE44U+VL4BjgYfQDqARxipF2+bXHfikvgdLACCEECZ6Zu/esr7p6W0Hulz/c9TxOAcw0OVafVpGRq5FBv+QfcDdQHtgCpBvbndi0jbgPqAdCkw7RAAABspJREFUcA/aa16vuN8GKIQQZntm794yoOeozMzzNvt8eRu93m67DpwR0NLhqOyUmLiuQ2LixJmFhfMWut0m9zZs+4CJQB7QG+iPlhkQ4bsLLcuygjDWW0gAIIQQUWJmUdEcYM7Bv/stEOA3nw+sO/BXF0CrIvgtEgDo9bCeJ8sUgBBCCBGHJAAQQggh4pAEAEIIISLtOKpNdYiwzEF7LcMiAYAQQohICQ383wPD9DYW4bP0lVLU92For2VYgYAEAEIIIYx2DNp59KGBX3cBJIBzxk60ZFEgd0UlF9w+RVVzNrTXdCXwGdoOiwaRAEAIIYRRQgP/auASFA38IcvWrOPccZMsFQS4Kyo5//YpLFm1xojmBwHf0cBAQAIAIYQQqhk68B/MSkGAwYP/wRoUCMg5AAa+MUVckGInQvzpOGASMJQIfrcuW7OOZgMui9TlrGQQMBCYh3YA0w8H/0fJAAghhNArGXgO7UQ6ZXP8QonQGoHvgWfR/laABABCCCH0SQDmAqOQMSWa2YHRaEWCUkK/EEIIIcL1GDDY7E6IBusHPAESAAghhAjfX4Bbze6EaLSRQHsJAIQQQoTrRuRG0oocwC3yhxNCCBGu/mZ3QITtLAkAhBBChKud2R0QYZMpACGEEGFLrv8hIkqlSAAghBAiaths0DRHhqaQpjl2bAadqiCvshBCiKhwbF8nD83O4KnPm9Cjj9Ps7piuy3EJTP+sCY9/3ISThyQqDwQkABBCCGGqY/s6efiDDCa+mk6nYxNISrVx9wtpcR0EdD0+gQmvpJPistGmi4Pbn0pTHghIACCEEMIUvQcl8u+5fw78B0tKtXHXC2l0PSH+StZ0PSGBe17WBv+DhQKBR+Zk0HtQou7rSAAghBDCFP+amUaHHrUP8MmpNia8nE73PvETBPTo42RCDYP/wTr0SOBfM9N0X0sCACGEEFErOdXGxP/L4Oyrk7E7zO6NcewOGHJ1Mvf+XzrJqZGppRQ/YZUQQghLSnDCiEmpnHlFEgvf9vC/pT52bw/gKbd2Ne6kVBs5re0c29fJoMuTaN0pshGOBABCCCEsIbezg2snpNb631d/7WPKNaW6rpFzfBbtz215yO82f7STPSuLdLU78dV0ju0bXYsaZQpACCFETFj2iVd3G017pB/2u2bdM3S3u+y/+vummgQAQgghLM/vh+8W6BtkE1IdZLQ9PMOQ0d6F06UvYb58vhe/X1cTykkAIIQQwvJ+WuajZL++NQHNumVgsx++AM9mg6yu+lbdlxYG+Xm5T1cbqkkAIIQQwvKMSv+HxOI0gAQAQgghLM3I9H9ILE4DSAAghBDC0oxM/4fE4jSABABCCCEszej0f0isTQNIACCEEMKy/H5Y8Zm+u+r60v8hsTYNIAGAEEIIy/ppmY/ifQFdbdSX/g+JtWkACQCEEEJYVqTS/yGxNA0gAYAQQghLimT6PySWpgEkABBCCGFJkUz/h8TSNIAEAEIIISzp2/n6U+nhDOZNuzZ8yqA2KvqulwQAQgghLOmn5VW629jx1T783oZnEfzeADu+2qf7uj9/q7/vekkAIIQQwpL27tCX/gco3VbOuv/kNygI8HsDrPtPPqXbynVfV0Xf9ZIAQAghhDUF9Z3+F9KQIEDl4B8tJAAQQghhSS1yHcraqisIMGLwz25l/vBrfg+EEEKIMBx9sr7teNXVFAQYded/7ClOpe2FQwIAIYQQljT48mRsDd/B1yAHBwFGDf42Owy+Iklpm+GQAEAIIYQltevmYNDl6gfSUBBg1Jz/mVckkdtZ3fRFuCQAEEIIYVnX35tK9xPVTgWAFgQYMfh375PAtfe4lLcbDgkAhBBCWJYzycY9L6bTo4/5c+r16Xp8AnfNSseZaHZPNBIACCGEsLSkVBt3v5AW1UFA1+MTuOfldFJcihct6GAD1GyktK7o+WsIK5LPj4hn8f7+tzTJAAghhBBxSAIAIYQQIg5JACCEEELEIQkAhBBCiDgkAYAQQggRhyQAEEIIIeKQBABCCCFEHLIDpWZ3wkQlZndAWJ58fkQ8i+f3v9WV2IF8s3thom1md0BYnnx+RDyL5/e/1W2zA5+Z3QsTLTC7A8Ly5PMj4lk8v/+tbgHA0UAV2pGO8fRTBXTX/RKKeCefHxHP4vX9b/WfQz6/T0dBhyL9Mx0h1JDPj4hn8fj+t/rPIZ/fRODzKOhUpH4+A6K3bJSwGvn8iHgWb+9/q//U+PlNBJ4ittM5VWiRj3x5CdXk8yPiWTy8/63+06DPbw/gCWAN2hYPszut96f0wL/lcWTOUhhPPj8insXa+9/qP3V+fv8fDv0uE8TUUAkAAAAASUVORK5CYII=;" vertex="1" parent="1">
                    <mxGeometry x="506" y="744" width="32" height="32" as="geometry"/>
                </mxCell>
                <mxCell id="32" value="" style="shape=image;verticalLabelPosition=bottom;labelBackgroundColor=default;verticalAlign=top;aspect=fixed;imageAspect=0;image=data:image/png,iVBORw0KGgoAAAANSUhEUgAAAgAAAAIACAYAAAD0eNT6AAAABHNCSVQICAgIfAhkiAAAAAlwSFlzAAALEwAACxMBAJqcGAAAABl0RVh0U29mdHdhcmUAd3d3Lmlua3NjYXBlLm9yZ5vuPBoAAAulSURBVHic7dlBi53lHYfh58w5ycwwYoIxWhVBCrWbLluK2IX72mW7KMW93Wh3DXRRt7VQaEEEG4uLfoDipmtX3UVEW2iCFgwKiUoXykzinHn7CUohIXmS3tf1BX7/xcx77nPe1cGFi8sAko4vvTPG8AiAop3ZBwAAd58AAIAgAQAAQQIAAIIEAAAECQAACBIAABAkAAAgSAAAQJAAAIAgAQAAQQIAAIIEAAAECQAACBIAABAkAAAgSAAAQJAAAIAgAQAAQQIAAIIEAAAECQAACBIAABAkAAAgSAAAQJAAAIAgAQAAQQIAAIIEAAAECQAACBIAABAkAAAgSAAAQJAAAIAgAQAAQQIAAIIEAAAECQAACBIAABAkAAAgSAAAQJAAAIAgAQAAQQIAAIIEAAAECQAACBIAABAkAAAgaDP7gNtx8vAyjl48mra//nBn7P55d9r+j5/6YPzue3+dtv/7f3x//Ob9H0zbhzvltV++OA7292afwT3uwh/eGp989sXsM27ZfR0AY2eMZX/e/LK7mjc+xtjd2Y6zp+cF0P7meNo23EkH+3vjAQHA/7Czc3//iH5/Xw8A3BIBAABBAgAAggQAAAQJAAAIEgAAECQAACBIAABAkAAAgCABAABBAgAAggQAAAQJAAAIEgAAECQAACBIAABAkAAAgCABAABBAgAAggQAAAQJAAAIEgAAECQAACBIAABAkAAAgCABAABBAgAAggQAAAStDi5cXGYfcctWYyx7E88/WY3VjXnzp3e242Bzc9r+0XYzDrenpu1z+44vvTPGuH8fAXfKwd7u2NlZzT6De9yXhzfGsty//z+b2QfclmWM1WH3n/TmyXrcvLk/+wz4v/PV0cSyh7vEKwAACBIAABAkAAAgSAAAQJAAAIAgAQAAQQIAAIIEAAAECQAACBIAABAkAAAgSAAAQJAAAIAgAQAAQQIAAIIEAAAECQAACBIAABAkAAAgSAAAQJAAAIAgAQAAQQIAAIIEAAAECQAACBIAABAkAAAgSAAAQJAAAIAgAQAAQQIAAIIEAAAECQAACBIAABAkAAAgSAAAQJAAAIAgAQAAQQIAAIIEAAAECQAACBIAABAkAAAgSAAAQJAAAIAgAQAAQQIAAII26/XO07PGl+ufPvz1tY//Mpbl3BiLGIG7bPuvv88+AXqWsR0744vVufM/Wp/5xvVZZ6xmDY8xxv7zLzxxcjyuzrwByo4vvzv7BMjarsaT48p70z4DfesGgCABAABBAgAAggQAAAQJAAAIEgAAECQAACBIAABAkAAAgCABAABBAgAAggQAAAQJAAAIEgAAECQAACBIAABAkAAAgCABAABBAgAAggQAAAQJAAAIEgAAECQAACBIAABAkAAAgCABAABBAgAAggQAAAQJAAAIEgAAECQAACBIAABAkAAAgCABAABBAgAAggQAAAQJAAAIEgAAECQAACBIAABAkAAAgCABAABBAgAAggQAAAQJAAAIEgAAECQAACBIAABAkAAAgCABAABBAgAAggQAAAQJAAAIEgAAECQAACBIAABAkAAAgCABAABBAgAAggQAAAQJAAAI2jz46z8+NGv85KPLZ5fPr8+aB9br2RdA15mzZ8YPf/rVrPnN9sbq81nj4/Gnx/rxp6fNQ91yvB1jLLPPgKTNGO+P7bx9rwAAIEgAAECQAACAIAEAAEECAACCBAAABAkAAAgSAAAQJAAAIEgAAECQAACAIAEAAEECAACCBAAABAkAAAgSAAAQJAAAIEgAAECQAACAIAEAAEECAACCBAAABAkAAAgSAAAQJAAAIEgAAECQAACAIAEAAEECAACCBAAABAkAAAgSAAAQJAAAIEgAAECQAACAIAEAAEECAACCBAAABAkAAAgSAAAQJAAAIEgAAECQAACAIAEAAEECAACCBAAABAkAAAgSAAAQtJl9wO04eWQZhy8fTdtfX1mPvTdPT9v/2TffG68/8/a0/Vc/eHa88u5z0/bhTnnrlV+MB/b3Zp/BPe6l374xrl77bPYZt8wvAAAQJAAAIEgAAECQAACAIAEAAEECAACCBAAABAkAAAgSAAAQJAAAIEgAAECQAACAIAEAAEECAACCBAAABAkAAAgSAAAQJAAAIEgAAECQAACAIAEAAEECAACCBAAABAkAAAgSAAAQJAAAIEgAAECQAACAIAEAAEGrgwsXl9lHAHMcX3pnjOERAEV+AQCAIAEAAEECAACCBAAABAkAAAgSAAAQJAAAIEgAAECQAACAIAEAAEECAACCBAAABAkAAAgSAAAQJAAAIEgAAECQAACAIAEAAEECAACCBAAABAkAAAgSAAAQJAAAIEgAAECQAACAIAEAAEECAACCBAAABAkAAAgSAAAQJAAAIEgAAECQAACAIAEAAEECAACCBAAABAkAAAgSAAAQJAAAIEgAAECQAACAIAEAAEECAACCBAAABAkAAAgSAAAQJAAAIEgAAEDQZr27nJs1fvLR5ceOP7/+/qx9qDv+8L3ZJ0DW9szZ74xHHvtk1v5q1vAYY+w//8ITJ8fj6swboOz48ruzT4Cs7Wo8Oa68N+0z0CsAAAgSAAAQJAAAIEgAAECQAACAIAEAAEECAACCBAAABAkAAAgSAAAQJAAAIEgAAECQAACAIAEAAEECAACCBAAABAkAAAgSAAAQJAAAIEgAAECQAACAIAEAAEECAACCBAAABAkAAAgSAAAQJAAAIEgAAECQAACAIAEAAEECAACCBAAABAkAAAgSAAAQJAAAIEgAAECQAACAIAEAAEECAACCBAAABAkAAAgSAAAQJAAAIEgAAECQAACAIAEAAEECAACCBAAABAkAAAgSAAAQJAAAIEgAAECQAACAIAEAAEECAACCBAAABAkAAAgSAAAQJAAAIEgAAECQAACAoM2Dv/rTt2aNL9c/ffjrax9fH8tyboxFjMBdtjq1O/sE6FnGduyML06dO//E+tvfPT3rjM12e/LPWePjoUfH+qFHp81D3XJ0NMZYZp8BNesxxvkxxt+W7fG0I3zrBoAgAQAAQQIAAIIEAAAECQAACBIAABAkAAAgSAAAQJAAAIAgAQAAQQIAAIIEAAAECQAACBIAABAkAAAgSAAAQJAAAIAgAQAAQQIAAIIEAAAECQAACBIAABAkAAAgSAAAQJAAAIAgAQAAQQIAAIIEAAAECQAACBIAABAkAAAgSAAAQJAAAIAgAQAAQQIAAIIEAAAECQAACBIAABAkAAAgSAAAQJAAAIAgAQAAQQIAAIIEAAAECQAACBIAABAkAAAgaDP7gNuyGmPZW+btn6zG6sa8+dM723GwuTlt/2i7GYfbU9P24U452NsdOzur2Wdwj/vy8MZYlomfQbfpvg6Ak/PLOHz5aNr++sp67L15etr+T576YLz+zNvT9l/94NnxyrvPTduHO+W1Cz8fD+zvzT6De9xLv31jXL322ewzbplXAAAQJAAAIEgAAECQAACAIAEAAEECAACCBAAABAkAAAgSAAAQJAAAIEgAAECQAACAIAEAAEECAACCBAAABAkAAAgSAAAQJAAAIEgAAECQAACAIAEAAEECAACCBAAABAkAAAgSAAAQJAAAIEgAAECQAACAoM3sA27LyRirw3nzqxvLvPExxo2T9fj3zb1p+4fH9/efD/w3Xx0ezT6B+8DJycnsE27L6uDCxbmfYsA0x5feGWN4BECRVwAAECQAACBIAABAkAAAgCABAABBAgAAggQAAAQJAAAIEgAAECQAACBIAABAkAAAgCABAABBAgAAggQAAAQJAAAIEgAAECQAACBIAABAkAAAgCABAABBAgAAggQAAAQJAAAIEgAAECQAACBIAABAkAAAgCABAABBAgAAggQAAAQJAAAIEgAAECQAACBIAABAkAAAgCABAABBAgAAggQAAAQJAAAIEgAAECQAACBIAABAkAAAgCABAABBAgAAggQAAAQJAAAI+g+1eOxkbVzMiwAAAABJRU5ErkJggg==;" vertex="1" parent="1">
                    <mxGeometry x="810" y="868" width="24" height="24" as="geometry"/>
                </mxCell>
                <mxCell id="35" value="" style="rounded=0;whiteSpace=wrap;html=1;align=center;strokeWidth=2;dashed=1;glass=0;shadow=0;" vertex="1" parent="1">
                    <mxGeometry x="565" y="620" width="470" height="120" as="geometry"/>
                </mxCell>
                <mxCell id="31" value="" style="shape=image;verticalLabelPosition=bottom;labelBackgroundColor=default;verticalAlign=top;aspect=fixed;imageAspect=0;image=data:image/png,iVBORw0KGgoAAAANSUhEUgAAAgAAAAIACAYAAAD0eNT6AAAACXBIWXMAAA7DAAAOwwHHb6hkAAAAGXRFWHRTb2Z0d2FyZQB3d3cuaW5rc2NhcGUub3Jnm+48GgAAIABJREFUeJzs3XeUXMWVP/BvVb3XaXJQzhoJUAQkEBmN8oxAGLBFjhYoEAzY+7NhDXiMjdOyxjYLJiOQABt5vdheSyA0QeAFDAiMwGCQQCJLSCjMjKbDe6/q90fPwCiMprtfdb8O93MOBx+juX0Zurvuq3ALIIQQQgghhBBCCCGEEEIIIYQQQgghhBBCCCGEEEIIIYQQQgghhBBCCCGEEEIIIYQQQgghhBBCCCGEEEIIIYQQQogrzOsECMl38+fP97W1VZ8LyPmMsaOUQjUA4XVeOkkp4Tgx2HYUUlouozHFuYhwzt8wDPHdZ55ZtlZLkoSQvVABQEgazZ278Bil+DKlMNrrXDLFtmOIxdqglNIQjUEI33N9+sRmrlixIqYhICGkExUAhKTJnDlLZjKm/gQg5HUumaaUjXB4t6YiAODc/IixQ0e2tDTYWgISQsC9ToCQfFRff9lgxtTvUYCDPwAwZsDvL9UWT0prCGMbVmkLSAihAoCQ9BC3AKj0OgsvCWFCCJ+2eLYdnTlt2sWTtQUkpMBRAUCIZrW1VxQrxc7zOo9sYJoBzRHtWzUHJKRgUQFAiGbBoDMNgN/rPLIB5yaYxp1GUjrH6otGSGGjAoAQ7RgNUp0YY2DM1BZPKaestvYS3dMKhBQkKgAI0UwpTPE6h2zCub6WB0opcO7M0xaQkAJGBQAhejGl1FFeJ5FNhNA3AwAAUqrTtAYkpEBRAUCIRqeccsVhjLFyr/PIJpwbmiM6R2sOSEhBogKAEI0cR9H0/z44F2AadwJKqYZpC0ZIAaMCgBCtqAA4EM51LgPYgVmzvjlQY0BCChIVAIToRQXAAehcBlAKsKzYfG0BCSlQVAAQokl9/dV+ABO8ziMb6d4HwBhmaw1ISAGiAoAQbewjQQ2ADkgIvQWAlM7hWgMSUoCoACBEEynlMV7nkK0Y45r7ATj9tQUjpEBRAUCIJowxOp52EIzp3AcgxcknLzhSW0BCChAVAIToQzMAB2EYepcBhIjQRkBCXKACgBAN5sxZUAmgxus8spn+hkCYqjsgIYWECgBCtDCmANB4713+iS8B6GwI5IzRFoyQAkQFACEacE7n/3vDGIMQ+jYCSumU19Y2aJ9WIKRQUAFAiAZ0A2Bi9C4DKCbE+3UaAxJSUKgAIEQLOgGQCL0tgQEp5elaAxJSQKgAIMSl2bMvGwGgr9d55AKdSwAAoJQ8VmtAQgoIFQCEuCSEoOn/hBmabwZ0RmgLRkiBoQKAEJeU4lQAJIgx3RcDOaEZMy6q0haQkAJCBQAh7lEBkAQh9O4DcByHGgIRkgIqAAhxofMYGrWkTYLOOwHi8dgcrQEJKRBUABDiQjC4ZQKgirzOI5foPwngUAFGSAqoACDEBTr/nzzGOBjT99UjpRyoLRghBYQKAEJcoAIgNTr3ASjlmCeddP5YbQEJKRBUABDiArUATo3ui4FMk9FGQEKSRAUAISmqrb2iWCnQhTQp0F0AKCWnaQ1ISAGgAoCQFAUC8igAere0FwjODWjsBwSl5Dh90QgpDFQAEJIixtgxXueQqxhjYEzrzYBVoO8zQpJCHxhCUqboAiAXdB4HVEqxmTMvmq4tICEFgO7SLnBz5iwcwBi7BGAzAQwHUAzgPYC1cG4vXbnyvnc9TTCL0QkAd4QwYNv64kkpzwSwRl/E/FFff35pJMJ+KaUzF3CqAcUBEeOcf8QYv6+pafltXudIMk/jKhzJMWzOnMXfZoz98CCNbGylcJ/jyBvWrLl3d0azy3Lxwol/6nUeuUxKG+HwLm3xDMN8vbn58SO0BcwT06df+GPbjnxPKdXjAx/nxk7DEHMaGx99OZO5EW/REkABmj9/vqivX/QAY7itly52BmNYYhj8n/X1i+ZlLMGcwOjp36X4RkCdNwPKGm3B8sBJJ50/durU8z6wrPD3Dzb4A4CUdkUsZr04c+aFZ2YqP+I9KgAKzPz580Vra/WDSrFLk/ixQUqxP9fVLX6ivv7qPmlLLodwTgWADjqPA0opi+vrzy/VFjCHTZt2wS+B2BtSxoYm/lOSR6PRFVQEFA4qAApI1+DPmLoo1RBKWe/U1y9ZqDWxHKQU6ASABnr7ASjEYjhDY8CcU1t7yRFTp577qW1Hrouv8yeLioBCQgVAgdAw+HepUErdM2fO4pUzZy5M4ukirzCl1GSvk8gHuhsCSclO0Rowd7AZMy75hePseVVKa4C7UF1FwMVf15MayVa0CbAAaBz899WqlLr5uOMG3NHQ0CA1x85ap5xyxRjHkW95nUc+kNJBOLxTWzzDMN9rbn58lLaAOaC+fmGNUvxeANOj0XbYdkRTZC59vsDZjY2P/EFTQJJlaAYgz6Vx8AeAUsbYr158ccuzs2cvPCwN8bOS4yha/9eEc6H1ZkDHcYZoC5blamsbjDlzFl2jlHgdwHQA8PuLYRgBTa8geSwW+f2MGRd9Q1NAkmWoAMhjaR78uzuBc/5qXd3ihsmTF+q97D0rUQGgk85lAKWkb/bsy0ZoC5il5s5dOCEQ2PI8Y+xX+57koSKAJIqWAPLU/PnzRVtb1UMALszwS78CsAVPPfXb9Rl+3UxgdXWLpgP8PkDl/SCTKY4TQyy2B1I6WuIZhu8lv59f9NRTy9/REjCL1Ndf7ZfSuokxfBfAQYttvcsBUEIEz2tpWfY7XQGJ96gAyEMZfPLvia2U+k/OfT9YteqOqEc5aFNff3UpYJ8DqKuVwniv88lXjmPDtsOwbfdvGcYAzs2PGTPuaG5e9gsN6Xmurm7RcQC7H8DYRH9GfxEQuqil5ZHlugISb1EBkGeyYPDvbiNj7LJVq3671utEUtG52W8xwBb00jCJaKSUhGVFYNsRKOV+byljIiKE+WfTZFevXr3scw0pZtS8eQtDsRi7mTH2b0jh9kkqAkhPqADII1k2+HdRgLovEhHfaWm5q93rZHpTX3+1Xyn7NEAtBDDT63wKnW3HYNsROE7MdSzGoDg3/yWE+PfGxuVPakgv7ebOXXSyUux+pTDaTRwqAsiBUAGQJ7J08O9us5Rq4erV9zzjdSIHcuqpiwfZNi4HcAUA6naYZaR04DhRWFYYSinX8Tg3WzkXD7S2hm5ct+7eDg0panX66deWRyLhnwPscmj6nqYigOyLCoA8kAODf3crLEssaWy88wuvE2loaOAvvLB1OmNqIYAzkcL0Ksk8y4rCtsOQUsdVglwahvmSUuZ1LS1LX9QQ0LX6+kXzlGK/BTBId2wqAkh3VADkuBwb/AEAjGEroK5ateoeTxqMnH76teXhcPhixvg1tJs/d0lpw7YjsO2ollkBIcytjBm/bG5edhuAjDe2mjHjsn6mafwH0nxyh4oA0oUKgByWi4N/d4zhf4XA4v/937s/ycTrzZ69ZDLnciHALgQQzMRrkvTTv2mQxzg3Gw3Df9WaNQ++ryHFXtXVLZkPqLsAVGfi9agIIAAVADkr1wf/LkqpXZzz761a9dv7ALh/jNtHbe0lgWDQf5ZS7FoAR+qOT7KHUoCUMdh2VMtRQgAQwtzAmLixuXn5E1oC7qOubvFwQN0DsNnpiH8w0Wibtt8TqAjISVQA5KB8Gfz38TTnYtHKlXd+oCPYrFmLRnOOBYyxywFU6ohJcoeUEo4T0bhpUHQwZv7R7/df8/TTD+zQkCKrr19yuVLqNgAlGuKlhIqAwkYFQI7J08G/Swdj7Jbi4u23rVixIum2cA0NDfzvf//sFKXYtwDMAL2/CVTnUcKopqOEXAphvsQ5+25j4/LnUokxZ84VoxiT9wGodZ2QBlQEFC76gswheT74d/e8EPyyv/71rrcT+cNz517RXyl1MaCuUAqFekUx6UXXpkHLcr/2zRjAmLGDc+Ph6uro9StWrOi1uqitbTCCwa3fUUo1ANDVrF8LKgIKExUAOaKABv8ullLql6WlO27u6cs1vqlPXQPgHPTSF52Qr6huRwnd3z/AObcYM9eEQuLalSsfefdAf6aubslEQD0A4CjXL5gmVAQUHioAckABDv7dredcLVi58p5XgK/68iulrgIwwePcSI5znK5NgzG434PKIITxMSBua2lZ/msgvgk1EAhcD+AGAD63+aab7iLANIMXNzUtW6YrINGLCoAs5+GtftnEBtivAFkK8POpLz/RresooWWFoeMwihDGHsPw32cYgbkAO8R9hpmjuwjgPHD+2rXLH9cVkOhDBUAWK/Anf0IyTinAcaKuNg0yxuDzFUGIAFiOfsPSTEBhoNanWYoGf0IyL36NsAHD8MM0/WCMd+4TSGxWwDB8CATKIISZs4M/ABiGH0o5WvZIAGBS2qePGjX5/U2b1q/XEZDoQQVAFqLBnxDvMcYhhAnDCIAxAaVkj50G40/9xfD5isByeeTvhoqA/EcFQJahwZ+Q7MIYgxAGTDMAw/ABUHsNiobhRyBQCiHy7yAKFQH5jQqALEKDPyHZjTHeuTwQAGMMhhGEzxfKm6f+A6EiIH9RAZAlaPAnJHfEZwVMcF4YX6FUBOSnwnj3Zjka/Akh2Y6KgPxDBYDHaPAnhOQK/UWAQ0WAh6gA8BAN/oSQXENFQP6gAsAjNPgTQnKVYfgBUBGQ66gA8AAN/oSQXCcEFQG5jgqADKPBnxCSL6gIyG1UAGQQDf6EkHxDRUDuogIgQ2jwJ4TkKyoCchMVABlAgz8hJN+lowioqTl60+bNr7+uIyDZHxUAaUaDPyGkUOgvAmwqAtKICoA0osGfEFJoqAjIHVQApAkN/oSQQkVFQG6gAiANaPAnhBQ6KgKyHxUAmtHgTwghcekoAkaPPnLzpk1vUBGgARUAGtHgTwghe9NdBDiO/BoVAXpQAaAJDf6EEHJgVARkJyoANKDBnxBCDo6KgOxDBYBLNPgTQkhiqAjILlQAuECDPyGEJEcIP5SSkNLWEY6KABeoAEgRDf6EEJIaIXxUBGQBKgBSQIM/IYSkjjEqArIBFQBJosGfEELcoyLAe1QAJKGhoYG//75cyhho8CeEEJcYAwzDB6V0NguSX6upmfTupk3r39QRMJ9RAZCEQGDMLwAs8ToPQgjJJ4bhg5QOlNJWBJxRUzPl6c2b//GJjoD5inudQK6or198AqC+43UehBCSfxh8vmIATFM8yZUK/6+mYHmLCoDE/QD63p2EEEK64ZzDNP3a4jmOXV1be8H52gLmISoAEjBjxpVVSmGG13kQQkg+Mwx9BUCcvEpzwLxCBUACDENNBP2uCCEkrTg3NEdUozUHzCs0qCWAMVnudQ6EEJL/9K6yKqV0TynkFSoAErPT6wQIISTfKaW0xmMMEa0B8wwVAAmwLPEGAC3nUwghhByYUloaAn2JMfGe1oB5hgqABDQ23vkFY2jyOg9CCMlnth3TGo8xfqfWgHmGCoAEKSVv8ToHQgjJV0pJ2La+GXvOjW1NTcuWaQuYh6gASNBTT937NwAPe50HIYTko1hsj8Y9AAyGEaCW7b2gAiAJti2vAUCtJQkhRCPHicG2o9riGYbvr42NS5/SFjBPUQGQhDVr7t3NmLrW6zwIISR/KMRi7dqiMSbCkUhsvraAeYwKgCStWnXPHwD2R6/zIISQfBCNtkNKqSkag2GYC154YUVYU8C8RgVACjhnV4J6AxBCiCtS6p76N59talr+uLaAeY4KgBSsXHnXFsbwb17nQQghuUophWhU69R/TCnf17QFLABUAKRo1aq7HwTwtNd5EEJILrKsDm1T/4wBhiGubWlZuktLwAJBBYALnItFAPSVsIQQUgAcx4Zl6VumF8L/alPTY7/VFrBAUAHgwsqVd36glLrR6zwI6Y1SElI63f6y9/nrq3+mlASgtyc7IV2UguZd/8zmPDhXW8ACovvuxYJz3HED7njxxa3fANSJXudCCk988JZQSnYO3E7ntKr68u+pNldhjIExDsYYAA7OGQABxjg4551/p68Qkhzb3gMp9fX8N83AzY2N92/VFrCA6L17sUDV1S05FFD/ABDwOheSn/Z+au96Us+O+6kYE+BcQAgDQPzvnAuv0yJZSEoHkchO6Gr4x7n57tq1jx+qJ1rhoU+pBhs3vvLFqFFHMwDTvc6F5D6lZGdntAhisTBisXbYdgSOE4OUdufAn01T9ApKOXAc68u8LasDjmNBKbvzy551ziSQQqUUEI22ds5U6cBlIFAy5b33XqWNfymi+TtNIpF+PwsEtpwBYJLXuZDcopT6crC07ZjW6VEvSWlBSgvovJI9PktggjETQpjgnLYgFRLbDmt9bxuG/7bVq+/fpC1gAaKSXKO5c684Qkr5EgDT61xIdpPShuPEOv/KjwE/WZybMAwTQvhoL0GeU0qio2OHtnicmx+tXfv4UG0BCxQtAWi0YcPLW0aPPqoYwAle50Kyj+NYsO0IotF2WFa486lf13Ro7okvdcR/J7YdgZQOOGdgjL6W8k002qZtzwpjTNm278SPPlr/uZaABYzKbu3Mm5Wy5jGGMV5nQrwnpQPHicKyolmzaS8bdd0Fb9sRMMZhGH4I4e/cWEhyWdf+FV2ECNz/7LPL3tQWsIDREkAa1NcvmaqUagb9fgtSfE0/CsuK5M16vleEMGAYARiGH/Rxyj1KSYTDu7TNdHFu7Fi79nd9ABTu1JlGNNeWBhs3vvJBTc1R/RjD0V7nQjJHSqdzir8Nth0r6Ol9XbqfiIj/PjltHswh0Wib1iLY7/fXv//++s3aAhY4ml9LE87N65WyTgUwxOtcSPoohW5P+5bX6eQtpRQsKwLLioBzEz5fEJz7QCcLs5fjRLVO/RtGYMUzzyxbqy0goVbA6bJq1R2tjLFFXudB0kMpwLKiiER2dj7l0OCfKVJaiERaEQ7v7JwZyKaeCCROIhrdoy0a56JNqVHnaQtIANASQFpt3PjKxlGjjhoNYKLXuRB9LCuMaLQNjhOlwcdTqnN5IArGGB0lzCKRSLvGqX8Gw/DPb27+zb80BSSdaAYgzSxLXAOAjqvkAcuKIBzegVhsD63vZxGlJKLRdnR07IBtR5BdXRILT7y3RVRbPMPwrW5qWvYXbQHJl6gASLPGxju/AHCN13mQ1CgVP8bU0bEDsVi7tvvLiX5dhUA4vKuzECCZppRCNKrvpj/OjXBra9EZ2gKSvdASQAZs3PjKmzU1k49gjB3mdS4kcVLaiEZb6akyx8SPYca7LHJu0KmBDIrF9mjcD8PAeeCbL7zw4DpNAck+aNEsQ0yTXWXbmAagzOtcyMEpJRGL7YFt65vG9B5TnDNHKRa/modhr29ppeLtqxlTTEolAJXz++ultBGJ7IIQfvj9RWCMCoF06urqqIsQ5gstLY8s1xaQ7CfnP+S5pL5+8eVK4V6v8yA9i8U6YNvhnNncFz8GJyzGeCtjbDtj7GOAbeRcvAU4HzqO3AxYG1taViQ1L1tff35pOKxGCsGHA2KolM5YQI1SSg1WSvYBZIlS0syRXxMYYzDNEEwzAPra008p1dnwR1e7Xx7jPNSvpWUp3fSXRvRJyCxWV7eoEWDTvE6E7C0+3a9z53J6CGHuYoy/D7DXGWPNUtqrWloe3+5FLrW151ZzbtQrpaYB6nCl5EjHscq9yCVRQhgwzWJqMaxZLLYHlhXWEosxwDSDVzU2LrtTS0DSIyoAMqy+fmGNUnw9gJDXuZCuBjN7Os+Te53N3jhnDmB8xLl4iTE8KaXxPy0tS7N6d1tt7SUBxqwzAXa6lM7RUjpDAZl1c++mGYTPV+R1GnlBShvhsL4HdSF8b7S0PEZHpzOACgAPzJmz+DuM4Tav8yh0jmNrvaXMPQbOjVbG+P8B4rGWlkceQx70PJ8168KplqUuA5xZjmP18zqfLoxx+P2lNBvgikI4vFvbzBnn3A4EfEOffnr5Z1oCkoOiAsADDQ0N/MUXtzwH4HivcylMCpYVRizW4XUiAAAhzK2MiT/5fGjI9y++OXMWVEajkesYk+fZtj3C+82GDD5fEIYRorbCKYjFwrAsfR3/TDPQ0NS0/IfaApKDore8R+bOXThBSv4KAJ/XuRQSKR3tF5SkgnNjC+fG40o5P/FqDd9rs2df2Ne25Q2O45wjpdPfy6OWnJsIBIrBGJ2MTpRSDjo6dmqLJ4TvvZaWx0ZpC0h6RQWAh+rqFjcA+IHXeRQK244hGm2DVwMNYzwmhPEC4P9ec/NDf/ckiSw1Y8ZFE5VyGmzbrlfKCXiRA2MMPl8JDINq8t4oBUSju+E4us78cxkMhsatXr2U2v1mEBUAHpo/f76vra3yVYCN8zqXfKYUEIu1e9YdjnPzU9PkP1uz5tE7PEkgt/AZMy6+SsrY9xzHGujFxkzaINi7+BKavql/wwjc3ty8/NvaApKEUAHgsTlzFk9hDM+DujKmhVISkUhrxqf8GYPi3PemaZrXPfPMw40ZffE8MW3auVOVYv/pONakTO8V4NxAIFBKzYMOQCnZOfWvpzoTwtza0vJ4fy3BSFKoAPAeq6tbvBHASK8TyTeOE782NpNT/owxxbmvkfOSS5qa7v4kYy+cx2bPvnSIZUWX2nZsGjL4ncUYRyBQSrcM7sO2w1qv+hXCf2dLy6NXaQtIEkYFgMfq6hbNANgar/PIN7YdRSzWnsGOfkwZhu/vwWDgnJUrH/ggQy+akCduv/aI7bs7ajva7EmWYw2VjiqxpQwpR5mAAmfc5pyFhcF3+UzjQzNgrg8y0XL5j36bVT3YZ8y4rJ/jhB9ynGgdMvbdxeD3F8EwPNmWkJWUkgiHd2r7bHFu7Fy79neVWoKRpFAB4LG6usUrAHzD6zzyiWXtQSympytZb+L30Jt/47z0HK+f+JsfaghEovKMcDgyr60jNrmtPTJg58724t3tHSxmWbBsG5ZtwXYSay3AOUcw4HeKiwJtpSXBf5WXBP+7j2nefVbDXfque0tBfEYg9jvbjh2fqdkdny8E06TeXV1isXZYlr49NYYROLW5eflftQUkCaECwENz5iwcwBj/AIhfxELci0bbMnaJjxDmx4ZhnrtmzSN/y8gL7qOhoYFPGSTnt7dFLtixc89xWz/fXWXZvTc1klIiGrMQiUYRjkWTuuKYM4bSklCssqJkQ3lF8UPf+vG9/+nm38GNGTPOP9px5MNSWmMyMdFjGAH4/cXpf6EckIbuf6+1tDw2SVtAkhAqADxUV7f4BwAavM4jH8TvIW+D48TS/lqcizYhzGuampY/lPYX20dzc4PR8Q4u27WrdeEnn+2c2Noecb15NGZZiMRi6IhEYNvJbZY0TUP1qyrb2qdv+UN/27DrphUrVmS8rWJt7QWXKWX9Skon7Vv3hfDB7y8Bo65BCId3adxcy1QwGOi/evWyzzUFJAmgd7FHamsbjEBgy2YAg7zOJdfFB/9WjWeSD4wxKMPwP1lVFTtnxYoV6a80unnmnu+f+EVr9NYPPtl5fFtbR9p2pcUsCx2RCDoiYUiZ3GO1aQjVr0/5h/37Vl131a13/0+aUuwJr6294GEpI+crld7vNSHiJwSAwj4hYNvRzr4aevh8gUcaG5dfrC0g6RUVAB6pq1syH1BPeJ1Hrosf89sNKdP74CmEsUWpwGlr1y59Oa0v1E1DQwOf3Cd208dbdl/96Wc7qjJ5Jl4phY5oBHvCYcRiyRdW5SVF0aFDqh/+9i8eWpSG9Ho0ffoFkxzH+YuU1sB0vg7nAoFAWUEfE1RKdR4H1HNdBecivHbt72mjRQZRAeCRurrFjQCme51HLsvM4M+UaQZ+2dS07N/S+CJ7ab6zoXinE7lz84dfnL1jZ7s/U6/bk2gshrY9exCJJT/pEfCbasSgfs+OqCw+NZObB6dPP/92245do1T6+gcwZiAYLOxeATqvAQYAIQKXt7Qsv19bQHJQVAB44JRTrhjjOPKfoN9/ypRSnYN/+hr8cG7s4Nw/u7n54Ywch/vLPQ0hOxK7/b3NWy/d1dqRdRtDLctCa0cHwpHkd3+bhqGGDKz6R7E/NPPbtz+wIw3p7ef44y8cb5pWk5R2n3S9BmMCwWDhzgRIKRGJ7NB2lbZhmO83Nz9eoyca6Q0NQB6oq1vyG0Bd7XUeuSp+Dnl3Gq/xZTAM/5+rq6NnZmJTW0NDAz+8MvpfGzZ9fnlra/rW93WxbBu72toQTWFGwGcaatSIAU9+95cPn5mG1A6ET5t2weO2HTkrbS9Q4F0DIxGddwIwAL5xzz336FuaApKDoAIgw+bNWxiyLP4xgAqvc8lNqvMLJz1P/owJyzT95zU2PvKHtLzAPlbee9M339/0+a+3fN6ac+fLwpEIdrW1wUniGGGXkqKgfciIAbdc/bP7f5SG1PYzffp58x3HflRKmZaZlfiegPKCPB3gOLHOjpt6COFf1dLy6FxtAUmPCu/d6rH6+iULlVL3eJ1HLopP+7dCyvTs9ufc+NzvLz529er7N6XlBbp5+pEbR3z2UftT7236/JDMdSvUTymgbU872jo6UuoM179PxRcj+g84cdFP/yvtt8BNn754kFK7X7Lt9GwQjM8ElBVkEdDRsQNK6doMyO2+fVVRpk/aFKLCnLPykFIqo7ui80k02pa2wd8w/C8ydtigTAz+f/qvG25/9ZVPNm58f2tOD/4AwBhQWlyMflWV8PuSf7jesm1n1ctvv/P2bd+59L/TkN5empru/qS5+fEhQvhXpSO+lDZiMe+um/aSYQS1xZJSGl984b9BW0DSo8IrVT00e/YVx3Mu/8/rPHJROjv8CeH/cUvLozelJXg3jUtvrNn8wa61mz78Im97P7R3dGB3W1tKQ2BVRWn76MH9jln803vSvv47bdr5P7Tt6E1Iw3egaQbg8+Xcio4rum8I5Nz8fO3ax/tpCUZ6RDMAGcS5s8TrHHJRLNaRpsGfSyFCF2Zi8P/rb2++7pXXPnknnwd/ACgOhdC3shKGkXyDwi92thave3vTm7++fsEv05DaXpqbH/2BafrOZoxr3+RpWRGtR+NyAWMO6TOhAAAgAElEQVQchuHTFk8pq+/06eedrC0gOSCaAciQefMWVlsW/wgAXSuWBMeJIhLR122sC2NGhPPAtJaWpS9qD95Nc3ODsfWV9sZ/vvPJyTk+258UBYXdbe1o7+hI6eeHDuqzgQ8YM7ahoSF95zwBTJt28WQpI89J6eibw+7k95dqHRSznZQWwuHd2uIJ4XuxpeWx47QFJPuhGYAMsW2xADT4J0VKC9Go/t4xnBu7DaN8VLoH/6cfuXHEhuZtn775r8Ia/AGAgaG8pAQVZaUpPWV8+Mm20a0bXm17sGHRWO3JddPc/PA6vz90KOemvm3snaLR1rT2qcg2nJvgXN8pVsexp8ycubBMW0CyHyoAMqChoYErBdr8l4R4l782bXeOd+Hc2GFZ5iHpvrp35d03z3vjtc/e+fCTHWlrQpMLigJBVFdWgPPkv2p27G4PvPD65jfv+N5lF6QhtS+tXv3QR6FQYJQQ5he6Y0cirdrfw9nMMHQ+40gu5Z6faQxI9kEFQAY8//yWuYAa4XUeuSN+s5+uY0VdhDC3Mhaoef759N44tvK3N1/+2psfPJmN3fy84Dd96FtRCcNI/unQsiz2j7c3L7v9/y34VRpS+9KqVQ9tA+zhnJuf6oyrlEQ02opCORlgmn6txyAdxz5fWzCyHyoAMoBz0Oa/JMRiHdpv9hPC/LitrWRkS8tSfZeYH8D/3HH9r1567f17w+EYfba6MQyBvhWpHRV0pMT6f22+Jt1HBVtaVrS3t5eMFsL8WGdcx7EQi6W2FyL3MAihbxZASqdk+vQLztUWkOyFvqTS7JRTlowEUOd1HrnCtmPad1Bzbm4PBvm4devuTeu38B9/c/3Dr77+wTW2k/buwTmJc4Y+5ZUI+JO/30gphTff/eDMn197UYv+zL6ybt29HW1tJYcKYW7VGdeywmk7xpptTFPvVicpnZu1BiRfogIgzaRUi0C/54TEp0v17vjn3NzBmH/0qlWPat/k1d0fb//e719b/+FFBbTcmxoGVJeVI+BPYXe8At7e+PHUW6++4CX9iX1l3bp7O4JBfojuPQGxWLv2Za1sxLmAEPpWv6S0D5s9+zJaQk0DGpjSqL7+ar9SuMTrPHKBUugc/PWNoJyLNsMoGpvuaf8Vv/ruf7/2z4/OKqTNXq4woKq8IqWZAADYsOnTo2+9+oK0NtTqLBgP49zQdq4t3spa/5HWbKSzM6BSCpYVvk1bQPIlKgDSKnY2gL5eZ5ELbFvvuj/nPOr3lxze2Hi/1qncff3Pb/79rvVvfnQmDf7JYQCqyssQ8KV2Tn7Dpk+P//m1F67Wm9XeWloe3y5E+TjGjOTvP+6BlFZBNAkyDJ/W2xEdxz4VNF5pR7/QNFKK0ea/BEhpw7J0Ls9z6fMFT0l3X/8/3/X9H762/oMlNPanhoGhqrwCoUBqa8Zvv/fprB9fecHrD/7420M0p/alpqa7P/H5fLMArm3uPhbrKIj+ADqPBCrl+KZPv+Db2gISANQJMG3mzr3iCCnla17nkQvC4Z2QUtfGOQafL3BZY+OyBzQFPKBVd9+84KXX3r/fsmnDnw4xy8KO3buRygZKwTkG9q/8ePDQAecuuvHXf0tDepg+/dxLLct+UNcSFWMGQqEy5PNXcPx+gB3a4glhfNLS8rvB2gISmgFIFynllV7nkAviT0P6BlGfz/cf6R78Vz/UcMT6tz+6hwZ/fXymib6VlfCnsCTgSImPPt0++O9/f/O5my4/a+vDt1yrvX1sU9PjD5lm4D91xVPKRiyW30sBuu8HcBxn0LRpF0/WFpDkcfnpodNPv7Y8Eol+DKgir3PJZkrZCId3QdcUuhC+v7W0PHaSnmgH9tT9DZUbNn720dZtraF0vk6hUlDYtmMnYlbq+0E45xg1vN+6USeOPv6ssxq03ilfW3veC44TO1ZHLMaAQKACnCd/cVKu0H0/gGH41jY3P1arLWCBoxmANIhGo5fQ4H9w8V3/e7QN/pwbO/r0sWboidazz7bsepkG//RhYKiuKE/pNsEuUkq8+/5nk1v+8FLHnd9fdIXG9AAcchLneo4HKtV1NFBHtOwUvx9AX4Fj2/ZJkycvpM+fJlQA6MeUUou9TiLb2XZE265/zrlTVOQ7bsWKFVqf9vb1x99cf997m7aOTOdrEIAzjqqyctctZTs6ImLd+o13/vTaC5/VlBpaWhpswzCPZ4xr2cXnOBYcR9shg6yk+36A0tKOH2kMWNCoANCsrm7RdACHep1HNouf69W3698wzAUrVz7yrraAB7DqwZvnvPnWJwvS+RrkK6ZhoLSo2HUcqRTe2fjJSTdeftan8+fP1/Io2tj4yLuc+5boWkGNxfbk9YVBhpFav4eeSGlfqjVgAaMCQDuuecox/1jWHm0d0QzDv7qx8dGHtQTrwfNPXBfc8O7WP8Ysm/bMZFBJKAQzhQuEDuTjz7YPqClRW3QVAS0ty+8XwtesI5ZSCrHYHh2hslJ8M6C+IkBKu2LatIu+pi1gAaMCQKNZs64aCKh5XueRzaR0YFl6eqJzbrZWV8fS/vv++GPjyc9p3T/zGFBeUqot3JbPd1SPqWCbtQXE6Nm6OgXadgRK5W9vAJ2dAQFAKbtBa8ACRQWARpw7iwDQFbAHEX/S0THdyZTP5zsz3ev+Kx+4cfZb73w6O52vQXrm95mp3RvQgw8/3T5Y162CLS0NthD8NMb0NAeIRvN3FkAIA0Lomc0BAMexDj/ttMv6aQtYoPL3/EkG1ddfXTp69KQTANwKoMTrfLKV48S0rf0bRmBpY+OytN4R39DQwK0vtr2yuzWs93ozkhRDCOwJ69sot31n25jL58957a/PvvKO21ibNr3xwciRk0ZKaR/uNpZSEkLo3TWfTRjjkNLRtfzHbFuePHLkpA83bXp9E3ReIlJAaE0zSbW1DYbfv+1Qzu3JSrHJjOEEpXAkaDalV+HwLi0tUDkXu9au/X0VgLRerfbkHf/+m1f+senqdL4GScz2nTsRiemb7KmuLOm47ZE/6Tqqy6dOPWe7lHaF60DcQDBYriOnrCalDcexIaUFKW1XzcAYg2LMbOMcmwDRFI2yB59/ftmbGtPNW1QA9GLWrKsGGoY1WUqcwBg7EcCRAGg9OEm2HUM0quNGXgbDME9pbn5spYZgPXpxeUPp39Z9/MWu1j365i1JyiLRKLbv0nup45ETRv3smp/ee4OOWNOnXzzbsvY8rSOW31+ifed89lNwHAeOE+ssCGyXMwVcCiG2Mcb+BYiVth156LnnVmzTlm6eoAKgm5kzF5YZBiYwJk4A1IlKYQroNj8tdPX7Nwz/6ubmR+doSOmgnvjld1eu/+dH9el+HZK4Ldu3p3RXQE9Ki4us3/zuL9o2GNTWnt/kONFpbuMwFp8FcNkGIecpJeE4NpSy4ThWZ1GQ+kw/5zzKufiEMf66UlijVOyRlpYV7RpTzjkF+xabP/+64O7d0SOFUFOUUlMATAFQ43Ve+ci2I4hG3X/OOOfR9vbyynXr7tV5deB+mu9rGPz8a+9/GI5aBfv5yEZtHXuwu03v9/UxEw+5dMlP7l6qI1Zt7fxiKfkXSjmui4rCnAXojYKUDhzH+bIoUMp200lRcW60cs7fA9j/AfhTc/OjjfryzX4FM715yilLRkopT1SKTQYwua0tfBTn8Odx/42soev+c859t6R78AeAz3fveYgG/+wTCgS1FwCfbd/xIwBLdcRqaVnRPn36RT+1rI4fuI1lWR1UAOyHgXMDnBsAun43aq+CIF4UJLx0wKS0y6TEJACTAFx90klnfbl0oBR7zjTVI88889iGdPzbZIO8/JLrWrfv3KQ3WSkcD6DS67wKkePEEIm4X/vn3Ni2du3v0r4c8/QjDX3Xvbz5s46OKG3qzELbdu5EVONmQMMQmH3eCX6dlwZNnXruNimtardx/P5SrbfpFYq9lw7iGw3ddVrkUgjxKef85fjSgflYS8tSvRtSPJLzMwC1tVcUBwL2EfHBPv50D9hjlYrXNvSE7y19x/6MhVoC9WL3F+F7aPDPXqFgQGsBYNsOtr265UoAt+uKKYTxTSntP7s9mWZZESoAUvDVNcQ+mJ1dWeJLB/GioOsEQuL/fSR3HDnYcTAYwBlA9M6pU8+KMibeZ0w8B/CVzc2P/AVpPpWUDjk1AzB58kKzuhoTOOfHAOro+CY9NgZ0BC8rOY6FSMR9ozQhzH+2tDw+XkNKB9XQ0MBL2j4O79y1h751s5SUEp9u36b11PeoEQNfvfGO5Vrvma+tPfctx7HGuI0TDJaBc+otlg5dpw26Nhi6P4po7OJcvAXwRsfB7559dtnbGtNNi6yfAaivv9qvlHUJgPkAjgcQjD/V51TtUpBsW8/aP2O+i7UE6sXR/azvvvARDf7ZjHMOv+FD1NI3C7BrV/th2oJ1YixwKWC/6H4WIAy/nwqAdOjaT9B1W2F86SAG244mfVOpUmBK2RVS2icAOAHAzSeffLYlBH+LMd93m5oeXq3/38C9rH5yrq9fcqxS9tsA7gYwA4DehtIkbZSSsG33X9KG4X+9ufnhdRpS6tVnn7dS058cEPDr3Ry3q22P9r4ezc0P/V0Iw3UzGtuOabs4ixxcfOkggECgDH5/ievrqJVyTNu2DresPU/X1p73fG3tJVnXUTRrC4D6+sXTlVLNgBrhdS4kebou/LFt3ze1BOrFM/f9aMyHH+0YmInXIu4ENd4NAMT3ATzw86u0/7fn3FygY6bStvW1QSaJMQw/AoFy6BoiHSd2HGOxd+bPn59VM4xZWQDMmbNwgFJ4AkDWVUwkMTqm/w3DfP255x56VUM6vWrb03aTpCetnGAYBgTX+9XV0W6dpjUggKamR17SMQtgWRHazOwBzgUCgWJt8Ww7NnTbNt+ftAXUICsLAID/EECV11mQ1DiOjmlLBqX8i7UklICt29vrMvVaxD2/5lmAWDh6ktaAnTgXi9zOAnStTZPME8IHIfS916SM1U2bdvE4bQFdyroCYN68hSHGcIHXeZDU6Ziy5Nz8sKVl6Ysa0ulV09Jbxn22dZfri1xI5vhNvQVAOGK73rF/IE1Ny58XwvjYbRxaBvCOaeqbiI73I7B/oi2gS1lXANg2Pxa02S9nKaW0PK2YJvuhhnQSsnt39DopaY41l/h9enfG27ZdqjVgN5wbt7iNIWXMZTMbkirdxzCVksdoDehC1hUASrEhXudAUuc4UdfrlZybbWvWPPqgnox6t6u1fXqmXovoYQgDXOM+ACll2vruNjUtu49zw1UPY6VAywAeYYy5PhHQnVKqTFswl7KuAGBM0VW7Ocy23e/+59xY6j6TxH2+vXVoJl+P6OEz9LUxcaRM6+5sxvhStzF0nawhqdBaAAhtwVzKugKA5C6lJKRMroHG/phSStysJaEEPH3vjae2tUey5gNJvjJl0ggMHdTzXmCfT9+YbTsqzcezfDfBZVcgpagnANGLCgCijW27n/43DPP1TF60sSfsfCNTr0USN/WEQzGv7kiMGtnz/U9aZwAcmdauqC0tS3cJYbo6EkjLAEQ3KgCINjq+nBhDRnfItndEtfaAJ+4YQuC0+iMxc2r8pFTNiJ4LAMPQtzmLc5Z6I/gEMcZ/5jaGjiU2QrpQAUC0iO/+t13FEMLY09T02ApNKSWktXXP8Ey+HulZWWkQCy44CUcf+VXzz0EDK+H3Hfjh3BAcnOn5ChOcu3vzJqC5+dHHGBOuOmQled89IQdFBQDRIv70727+nzGxRk82iXniiQbfFzv26Gv1RVI2fswgXLFgBgYPqtzr/xecYfjQ6h5/ztS0DCA4c7t5JbHXEWaz2xjJXlRDSE+y/jZAkhv0TP+zX2hIJWFl7TjRstM+80sOom91CU6ZcwRGDuvT45+pGdEP72zccsB/ZhgCUQ3jIctQAcCY/DmAuW5iOE4MhpG2U4ukgFABQLRw+1TCuWhvalr+vKZ0EmJHbFr/90hpSRAzTh6DIyYMA+cHP2I16iD7APTNAPCMFABNTY89O3Xq2R1SOikfd7ZtCz4foPFoOilQVAAQ1xzHdr0uqWNqNFlRy8mantyFon/fMhxzVA0OHzcEppnY6cs+1SXo16cMW7ft3u+fCaHnBKdhGhk7ecK58ZyUzpzUI0goZYMx+vom7tA7iLjm/uw/wBi/XUMqSYnGrJGZfs1C5PMJjD10ECZNHIYRB5nqP5gJYwdj69r9CwBDUwHg8wnX/foTpZT5KyDqogCIz7hxTl/fxB16BxHX3E7/MyasxsZHMj8DELP7Z/o1C4XPNDC6ph8OGz0AYw8bCJ/p7qvm8HFD0PjsW/v1w9dVAPgN30YtgRLQ0rL0qZNPPttSykn5HGO86KYrU4g7VAAQl5TrGQAh+NuakkmKYztFXrxuPmIM6N+3HCOH90HNiL4YMbQPDEPfIaPy8hCGDKrEhx9/sc/rMnDOIaW7JSjTx19zFSBJjIkNSjljU/1527bgp32AxCUqAIgrUjoabikTf9KSTJIsR+q757PAVJQXYdCAcgzoX4GB/cowaEAFgsH0dtOdOG7wfgUAEN8H4LYAYKHg31wFSJIQxl+kjKVcAADxvhtC0Fc4SR29e3JIKCAwoaYUhw4twqA+AQT8DEUBAb/JYQgOBYVoVCFqS0SiEjvbLHywNYK3NrXi3Q/3pCUnKd31T2EM4Dxwp6Z0khKLWfQMdRCMMZSWBFFVWYyqiiJUVZZgQL9SDOhfgWBA7xWpiRg/ZjCeWvMmbGfvo5uCc7iZg+KMY8kNv9rsKrmkhe4AOr7nJoKU6SkAOOcYPSSEsSOKMaxfCOXFBoJ+Dp/J4PdxMDDYjkQ0ptAedtARldi+O4q3N+/B6xt2oyNCR2tzBRUAWUpwhkOGlWLC6HKMH1WOYf1CqCplULYF5VhQ8kAfsq5zQV3ron4AxQCqATBYDsMXbQ7eeL8da17+Av/6oM11nu4LANHW2Hj/VteJpMC2ZOZHsSxTXBxAWUkQpSVBlJeGUFoaQGVFMaoqilFVWax1Gt+topAfE8cNxqvrP9jr/3e7D8A0hdsprKQ1Nd39ydSp5+yR0k55GUopPc0LB1QHcfihFZg4ugLDBhRjcLUBoWxIx4aSsR76e3X9zruGkCC+dlw5wAZBKo49EYXNWyL4vzd2ofHlbYjZGf8VkwRQAZBFSotMnDy5H46ZUI1xNeUI+g/wxeaLb/xRUkLZUUgrCmlb6L0Ln4IpFPqXM/SfVIJZk0ogFceWXQ4a132BJ9duhe0kP42qYQPgO64CkB4ZBkdJcRCVFUUoKQ6gpDg+uFeUhVBSEkB5Wcj15rxMO/6YUXjtjQ/3Wnbi3F2REgr4PblhhzG+AcARqf58qsW3IRgmj63GCUf0weGHVKBv5YFXwuLfPgrStuLfM1YEvd72pQAOiZIAMGG4HxOG98Pief3RFgHe3NSBR5/5FB9t6Ugpb6Jfbn3685DP5DjysCrMmNIfxx1eDUMk9mXGOAfzBcF9QUBJSCsGJ9YBlUQ/fs4kBlYwXDizGhfM7IsPPo/hf5/fjmde2pbQzyulXK+9cs5bXAVwgTGW048lJcXxQby8NITy8hDKy4pQXhaM/700BJ8v/2457tenDKNG9MWG97+aNHJ7H0Ao5M9YD4DuOOdrHSf1AsBx4vtvWIIdgYYNKMKMYwZg5jEDUFGa6H4NBm74wA0fECiBdCzIWAeklcylRAolAeC4MUEcN6YGbVGOv63fjUef/gRtHdTW2EtUAHgkFBCYfdxAzJ81DJVlLpeiGQf3BcB9ASjHhhPrgIxFkgsBieF9DVx1en8sPG0gGtftxr1/+gBS9jxGxp9A3I6h5uMuA6SMcdfJp53gDKWlIfStLkHfPqWorChGn6oS9O9X1uMlOfnuhGNG71UAiF46CfamKOj/0G1OqWDMeBTANalHUFDKOWhDIMaAE4/si7PnDEfN4JLUXwoAGMANE9wog5IS0opAxjqgknwIKPFL1B9dgrqjx+DtD2P4zR8247PtyX1fET0K8xvEQ1XlPpwxbRjmnjQQQb/+Xz8TBoxgKZS/CE50T9KFAAD4ePwDOnPyRDS9tgv3/+nDA67hKeVusw/n3G5qeuhVV0HcZZBVBQBnHH37lmLwgHIMGVyFwQMrUF1VrO3Gu3xRM6IvBvQrw2db442BmMslgEDQ/w8deSWrsXHpyyeffJajlEx5qkZK+4ANgQzBMHVyf5w9ZziG9E+563CPGOcQ/hCEPwQZi8CJtiddCDAojB1q4u5vH4IPttn49YrNeO9jWh7IJCoAMsQQDKeePBgXzas58Nq+ZoyLeCHgC8ULgaSm7OJMLjFncilmTJqI5c9sxf+07H0hizzgRsQkcmRi/zNdGWQKlvYrYA8m4DcxYmg1hg6pxuCBFRjYvyIvp+3TYWbtOCz7ffzqCOGyKX4gFFypI6dUMMZ3KCVTa4+IA38GJ4+twpL5h2BQX/0D/4FwXwDc9MOJdcCJdCD5WUGFYX0EfnnlKLy5OYpbH95IJwkyhAqADDj8kApcefZhaanEe8OEASNUBmlH4YTbkq7SAcBgEpfM7oMzT+qLHz383pdHCt0XAPw9VwFc8plGBwCX86LJ6d+vHIeN6o/RNf0weFAFPd2n6JCa/hg1sh82vr8VzMUSAGMM1WOrPSsAOBfvSWlrKQCqyn249LTRmHGMBw0uGYPwF4GbQTiRtpQeOKAUxg/z4dGbx+N3Tdvx+zWf6M+T7IUKgDQqDhn41rljcNKknm8zyxRu+MGLfbAj7ZCxcEoxSoMK/7GkBmvXt+OXj7+v4RgSX+cygCumX7QB6Jfu1xnYvwLjxw7CuMMGobKcmg/qUj9zAu68bxsYUi8A/D5TnXVWgyenAACAMfwDwLGp/nx8DwDDvKmDcMlpozIyu3gwjPP4A4cVgR1uB1K4JIxD4rzplZgzpQLfv3cj7Q9IIyoA0uSQYaW4YcF49K/Kon7djMEIlkCaftgdu3s/0nMgSmHqhCKMGz4e5938rKt0OFdNrgK4ZBoibbu/i0J+HD5+KI6cOBT9+5al62UKWt/qUhx15DC8uO79lGOUFgfbNaaUNKVYM4DFLiLge5eMxdSjsutaC24G4DN8sDtaIe3U6quqYoa7vn0o7vnzFjz1oietQvIeFQCaMcbwtdrBWHDGqISP9GUaN3wwSyphd7RC2akdw6kuYXj4xmNx9e2vYVdbajMKu3aFVqf0g5qYppnYecck9OtbiuOnjMbEcYO1XVRDejb95LF4863Up4pLioOenADoopSxmrHUavFQ0I/bvnMyxo+q1J+YDozDCJXDie6BE02tEymHxJLT+mHqERX4/r3/gstTx2Qf2TlC5SjT4Pj3BeOx6BuHZO3g34UxAbOoHNyXejv8AVV+PNZwDA4dnvwXEGPcXrfuXk+3/Pp9XFsToiGDKnHxOSfgygUzMGniMBr8M6Qo5Mdpc49MeRGgJOTP6B0A+2ppWbqLMZ70ZpohA8rxx9tPzd7BvwsDRKAIRlEZkPJ/pfhpgQdumIBQgD5XOmX3KJVDgn6BhsWH48QjvV/vTxyDESyFCBSnHMFnMPzXtRMxc8rg5F6Z8fRcTpAEwzRedhujb3UJzj7jGFx+0VSMGtkv4aYsRJ9xhw3C0MHVKf1scVnxg5rTSQFLqhA+dEQfLLt1NkKB3JnA5YYfZnF5vDFBiiqLgAeuH48+5XSFhy5UAGhQUerDf3x7MiaNyfJqvAfCH4IIpL4ZnjGG688fja9PH57MT3l6BBAAAtK/NuWf9ZuYO+twXHnZTIwfM4gGfo9de/GJCPiSu9rBMAQuu/GOl9KUUsIY4wl/Fo4/ciju+8F0cJfNj7zAhAmzqBKMpf4UH/JJ/PbfDkXNYNpMqwMVAC5VlPpw27ePct9ly2PCH4QRdPfvsORrI3DOrJqE/ixj3PMzPjOW3PhJKOhLelVxwpjB+NaiWTju6Jqc/CLOR6GAgasuPDGpSebiUCCFs2r6McY/TeTP1U4ZgZ9dc1y600krJgSM4nJXzZtMHj+NNGxAFm2wzlFUALgQCgj86MojMLBPfrwRuS/oajkAAC47dSjqTxja659jDB+7eiFNysuLWhP9swG/ibNOn4KzzpiCkuLU906Q9Bg9rBKzTxqT8J8vKQl9nsZ0kvFRb3/g+COG4pYrpmQil7RjXMAoqgBz0QNDMIX/vPIQ9K1I9E4DciBUAKTIEBzfv2xizj/57yve3tNdQfOds2oweczBj9czxjyfAQCAstLghkT+3JBBlbhiwQxMGJvcXgeSWWfOGovDahI7EldWHHK9B0QHxvDZwf75IcP64GfX5vaT/77iRUA5Ut8YGO9U+utrxqA4mDt7IbINFQApYAz43qXjcnbNvzciUAJuutto85OFYzG0f8/FkVIsoWnPdCsO+f6vtz8zaeIwLLhwKirKM9/JkSTqq4HkWxcchz5VvRfmZUFxZzozStTBPgt9Kktwz83TMplOxnR1KXUj5JP4zXVjXF8JXajot5aCb8wclmO7/ZNnhErBXBxlExy447ojEfQfeGOWEPgg5eAaBX3Gkz39M8YYZk0bjzNOnez6xjmSbl8dpBeC4/rLaxEM9Dw9bBqGuvzH93vaiKqLUvyAvQh8poF7bpoBIfL3vcdNH4Tf3Ya+qmLghosS23tE9kYFQJIOHV6Ki+aN9DqNDGDx6tzF7vaigMDPrzzwGW2lZK/rnpnw/KfiuVDA3K8NC+cM3zjtKJx83CFepEWStc9/weKQDzddOQu+Hk4GlJWGsujaOb5fMcwYw02Lj0V1Rf4feROBInDD3Vr+lEMCqDs25SsVChYVAEkoChq44ZsTsr7Jjy6MG65PBowdVoRz5uxfnTMmsqK3Z0NDg+zTt2yvaw45Zzjz1MmYOG6IV2mRZLH9W+lVlQXw/SUz4DP3XyMuLylKaO9HJhgG328z4pwTajB18iAv0vGECJW62hQIAF8e3zQAACAASURBVIvmDUD/Ktqcm4zCGMk0uea8MehXYG8wbgZcV+ffrB+CAdV7ny4QwvS0B3t3leXFX/YDiA/+R+Hw8b2fZCBZQqHHG2j7VxXhu5dP369oLykJ/iX9iSWGc2uvz0JFWRFuWDDJq3Q8wRh3fQKJM4VbF47SlFFhoAIgQZPGVGbFrX5eEMFSuNmtyxjDT5dM3OvWttLS1qwpAEqKAvd3/e850yfg8PH05J9bDt7KYUj/Evz7FTPh75wJYIyhKFDyq0xkloi2tkhb1/9mjOHWq44vyMZS3BcAN9wteVSXMJxRO0BTRvmPzk8kwBAcS+Yf6nUanmGcQwSK4ERSH7MHV/tRd/xQrHo+vty5YsWKjF7Bqj79SwjhyHFgOAYKpQAkwN6ALZ9lh57V+B/fXmDXDOtjHD+FniByTSIX6QzqU4IfXD0HP75rDRhnzmUNt+945cmfHDO+ps8lgolDoZwgFN8FhiaDqwfYuMt2pD/zuBdeWBE++eRvQCng+COGYPzo/DxdlAgRLIFsj6V2O1KnC2f1wdMvfo6OSNJXLBQcKgAS8I1ZQzG4X2EfARO+EKQVhnJS/1Bd9fURaHz5E8SszH0w1UdPBBFjNyEcWQKgfO+pYgUYTKqNK/7w4rqN7x49qWZsxhIj+iQ4WFSVB3DLNXOw+oX3d92w5PYPS4NiCLNi+84f1MUY/7m1/v7njGBgHht9QcKNotxQisE0Ddy06OhMvFzWYpxD+ENwIqlfFSKYwvUX1eDme9/VmFl+oiWAXlSV+3DOnOFep+E9Bgi/uzU6v8Gw5MzM7apXG//YFzH2PIAbAJT38Mc4GM469qhRY+moX65KvJtzSZGJr888tKpPmW+I39fDMVclmbSjJ1t79nyqNizN2Pmy8+eOyakLftJF+EKuNwQePjyAIf0L+6EtEVQA9OKMaUPR4xdFgeGmH0wkd+HKvk49ri+KQ77U5/cSpJqbDTD7jwCOSPdrEW+pnnYAuo0r7SJ7T+wV9c8n0t5vNuj34ZKvFe4y414YAw+4HbwVvvV12sjbGyoADqI4ZGDuSYVzFCcRwuUHkzGGi+aOZPPnz0/vl+qw7dcC7IS0vgbJDjJ99aSUVrmD1kfS9gIA5s+f7ztjxmjqZteN8AVdXRgEAKMH+9CvKv/7KLhB77iDOG3qEAT9NCXXHTf8YMLd7+T0E/rjijOPP01TSvtRmx4KALg+XfFJdlEq6QsdkyKt2Hz1yj1pm0/+2kmTai//euKXGBUGBu5z+bChFL71jeF60slTVAD0wGdyfG0aHQc7EO5z1wuBc+Cwwb47NKWzP6f4dChUpS0+yS4qvZtKlVTcDpo3piv+uFFVPxcF0lwsGcIXgJvjxwAwbrgfoQAt4faE3nU9OHZiH5QWuVvvzlfCDMLtB7OiiPf/159+nq6rFGekKS7JQiqNSwBfkvKUdIRtfuLO4kOGlUxMR+ycx7jrS8mYUjh7xkBNCeUfKgB6MO2oxK4ULUiMgftcfjAhYRuBuzVltG/w49MSl2SnNC8BAIBy7LQ0iIhErFtCAYO+h3sg/O47r9Ye2dMBIEJvvAMoKTJx1LjCbcaRCG66/2D2qzBP15DKXtR7T5QBOEx3XJK90r0HIP4aTkht/K32VqDDBhRfoDtmPmHCB8bcTeGXh4BB1YXVwj1RVAAcwNTJ/Qrmwp9UccPn6qZAACgNILT+v+/Se7Wi5INB7+vCIjPQWEoBdkdI61R94+9+U3PI8FK6wq4XzHR/YOi8ObQMcCD0RXkAx0yo9jqFnOC2bzeg4CuSP9WSTBehaOqmoCgomf4ZAABgwtG7K1ipK6n5VO/c7gMAgAkjizRkkn+oANiH4Azjasq8TiMncA2VeVkRr3UdpDvJaPd/AcnU4A8ASkFrU5Cy4kCdznj5ihsm3G46Lg0ymAYVW/uiAmAfo4eV0tn/BDHhvgAoCXLNU6CSOn8UEJWJ6f8uEu56Ye9j6IAQ3TyVENZZBLiJoDB1Es3s7osKgH1MHE07RhPFOHe9QcfkDnvmgZ+dqCklgCFrrhkmGZDJAoCznbpCLb/jJyf0qQjQOeMEuW0+BgAnH16hIZP8QgXAPsbV0JskGcxw/8EcNKjoKg2pxHEqAAqJm9spk8UU264rVp/yoq/rilUImOF+tnFEfzoJsC8qAPYxlG6QSgpzOTUHAEV+driGVOJs0aYtFsl6Ks1dAPci1Be6QoWCBl1SlQTu8hIyACii8X8/VAB0YxocfSvpXZIMt0sAABD0iwEaUokz8Zm2WCTrZXIToFDOm7pilRb79B5/zXeMuT52LBgQ8NH+ru6oAOhmYJ8gOB3LSYrbG7sAIGDq21zFhn/9MwCtuuKR7KaknZkXYlyxcZdt1BWuosSnvalQvmPc7cOGwvgarfs4cx4VAN0M6kvT/8li3H1F7RdK920dGzTHI1lIOTagMnAPAADGuba9JQ0NDbxPhT+oK16h0LERcOxwKgC6owKgm+oKOkGWNMYA5vZtpPDBc3dp3H3J3tEXi2SrjD39AwAXW3SFmjCgrF/ATzfUJYu5/p4B+lXSd3x3VAB0EwrQ+lAqmMu1OQDY9bkcoSGVOKZe0xaLZC3lZK4AYGDrdcVSUtJNYylxP1wFAzTkdUe/jW78JlXlKdFQAIR5VGMBwJ7TFotkrUw2AWKC/0FXLCUUFQCp0LA/K0QzL3uhAqCbUJDeHKlx/8E0mKmvzermqnUA6DhgnlO2lZkXYlwJVfRHXeFMYdAFQClgGr5ngn4a8rqj30Y3AR8VAKnQsQQgmNJWALBp02xA/V1XPJJ9lJQZuQYYADgX29i4s2LaAipJ91WkQsP3jN+kIa87+m10k6ENxeRAmNT7OMfYU1rjkayS0Q2Awvib3nA8g92L8on7L2j6jt8bFQDdRGOZayqST3R8qBxHaOuzDgBg9n9DxzcGyUoZm/4HoCz2M53xHClpeSoVGj7NtkPf8d1RAdCNZVNhnhr3HypLOtrarAIAG3HuZkC9ojMmyR7S0TcjfzCMG62+Iy99WXNUKgBS4r4CiFn0TNAdFQDdRC2qDlOiYwYgxna4j7IPxbTt3CZZRAHKycwMADPMNbpjSsfZrTtmIVAaphqpANgbFQDdWDYVAKlx/6FiytqmIZF92I8DyOBiMckEKWMZW9yRyvmh7phKYZfumCQxMZrl3QsVAN20d9BYkQq3u7ElFG595O0TNaXzJTbq3I8APKk7LvFWptb/mfBt8k+4XFsDoC4P/flftbpjFgQNNz+2h+khrzsqALrZsTvqdQo5SP3/9u47zK6q3B/4d+1y2pQkM5OeAKmkESCEJm0mtEsVgURIqAFBRKqACvf+jKhXBBUpoVlQSpAACnKlSwIionRppk36JNPbKbuu9ftjMgghmcycvc4u57yf5+F5KDNrvcA5e7+rvcvzLsDWDgc50zhPTjzbYcodBWmXBMavBEDR1B8Uot10OrOwsTVXiKaLmoybH7e20TP+sygB+Iy2Ln82FhUTOV9KA47jTJk48TjphbrZ+NNeBfC27HZJcLgP6/9MUbPa9IX3y2534sTj4py7k+s30YWVAyZhD0BDiyEhkOJBCcBn0AxAHiQUY+nJyrkydmzNN7wHtANC3FKQdonvuGv5cpibafHbC9Hu2LE1VwjBlXUNlAAMlIzBxoatlAB8FiUAn9HWaUnZaVpKZHwpN7f0TIcK4XzNc2M7MmHuUgjxRkHaJr4SduFn6ZiqpbXp591QiLY5ty8AgIZmabcLlwwhYQ/AxsashEiKR+gSACFEYPPwjsvRlaGNgAMhXO9fyi3bEgDO7SmHHLKwwnOD22GMCaj4jux2if+4XfhZOlWNfZsxJn232HHHLagUwpkEAA1N9CIaEOF9r5GAAiPvYm8yB4bhGWWGLgFgDE1B9r9xaybI7iNHRknWjdsehkKAxePm9Z4b3AE2bt4rYKDywBEmuFvwGwAVNbZVnXH+XYVo2zDYfwvRc6NNUyslAAMh4+rnXN5DSyF1ZpgxJTQvmdAlAEDsDcgoLZenDZQADIiMB3JD838ehq7rLvTc4M4w5xIAtPgaUQUf/TMmBNRTCtU85875vX/e0kHPmYGQMf3f0pXf5lFXQvLxWYypH0tt0IPQJQDPPntHM8BeCKp/mgEYGK8JgO0IZD6TmnPuDDvyyPl1XuPaETbuzHVg4upCtE0Kr9AJgKrF7ovtvbAgt0jW1p5Vy7lT0/vXmZwF1w3NTHDoyZlpzG8KwHHkbhxkTLtZaoMehC4BAAAhxPcQUAU3mgHoP8G551MA9Q2ZL0yvua74sadG+8DGz/s1gD8Xqn1SGELwgpb/VTRtq7bXhV8vWAdwf/r5vxb4cI3U6y+Kmoy9Ris3DnzjJecuHEfetjRN0+uXLfvdn6Q16FEoE4Dnn7/nn0KgILtwd2V9AyUA/SXjgfzB2i/OyLuuc8DBB19Q5bnxnbHUcwGsKFj7RLpC7v5nqmpqybj0SpS9Dj54bhXn9qzt//4/Pwh0u1OkyNgD8O7KgV7BIGCa3ZC1AVBRVFPXy46S0pgkoUwAAOD55++5GRDfAuDfvZ8AWjtNqgfQT1ISgDU7WpIXLB43CzZNxqae2gpVHAegsVB9ELlcqzDnt5nCONP0o9ik89YUpAMAsZh+a+/mv8/6YFVLobosKkJwz0uNAgzrt/S/+qIQHLlcF7iEpQcAUBStS1H0A1944VdrpTQoSWgTAAB47rl7f64ofD8ASwH4Vjvz43q6rKs/ZEzLrVi/4z15QtjzgS8+NGVhe8xbCygnAaAD2SEnuAtRiOt/mSIULXWWPv2C1+Q3/p9ehHDn7egfrGug50x/yCj93Jru3yheCA7bziKX6wDn3vtlTDVjscQDjCWGL1v20PueG5RMCzqAXXnmmfs+APDVk066KGXbygGMsQOFwAGAOADAmEL0+dGaDhy677BCNF1UvM4AuFygrXPHx6E4d5N1dQv+Z9myh2/01Ekf2ITT3hRrnpgD8D8DGFqofog3vACjf8YUrmjxc7UZ5z0ivfHPOPLIsxdZVi6xo3/W2Z2D63KoaqjHYYGTMf2/cuOOnzNCOHBdF5zbcF3H84hfUdRuxtTVAHtd09Tfv/TSA4VMLj0LfQLQ6+mn78sCWL7tDwDA0Ud/c5SmuQdsSwgOBDAbQKXXvmgGYNcEdz3fAviv+m7wPs7Xuq5zLbDoh8Cigh0LZRNOe1OsfOIgqHwpgP0K1Q/JH7flTv4xVU2zWPIYbeq5f5fa8A66chxrp6dOhBD467tbUDt7dIHDiDYZS41vfNABIThc19n20nfAue3pfD9jqq0oygZFUd7lXHkOMB5dvvzRSM0oRiYB2JEXX7yzAT3XvX565esJJ1wynnN+qBBsP/Q80GcDGNAlM/WbumGYLhJxVWq8xYRL2Bn71/eb+/znQrjlc+asuu7ll3GT5876wCafVi9WPXMIWOY6MHwXQLKQ/ZH+464lpdx0L0WPv6gplaeyqfMK/qCurZ1/g+ta5X39zF/e2EQJQF+E98ufsoaL5/6+CtzD50hRFJcxtZkx5SPGlGWclz28fPk96zwFFgKRTgB25M9/vrseQD2ABwBgv/0u0mtq9MmKwg8RQhyKnqRgKvpYX3ZcgY/rOzFrauE2okedcLxvlHzjw10fg3Jd5wZg0c2FnAUAADbpeBPAD8S6J34Fl18B4CwA9GQOGDe9T/8zprhM0//JhXqxvtf5H0gIqx8WKUJ88u1d/dQHq/pOgkudjMuf3vi4Y4AvfyYURetWFKwF1H8AyjPLlj3wlKcgQqroEoDtvf32fTaAj7b9cR8AHHXURYM0DXsxph4CiEN7lhDwuUX/Nz9qoQRgpwS4x405GYOjuX3XRy45d8vr6lb997JlKNhegM9ie5y2BcB3hFh0PVbP2BsqnwXB7kEJfFdCR4j8i/8wQNXjv4OiPqdOPW9pIWr792XOnFU32rbb5+gfANq7sujK2Kgs0/0IK3KEhJnGF9/q+7CPoiimoqibGVPeFwIvdXWV/fbtt+8riVrNBdtlHTXHHvuNiYA4QFHEAULggOFVyVm//cGXpN9PXwyEa8NOt3tq4/k3W3DLQ/0djKnZv/51akWhZwF2Rqxe+hwYOzaIvksZtw042fwqNyuq3qzvfVEgO3lra2s1zod3CeH2aynp4rn7YsEJkwsdViTZ6TbPmwBPuPY1mFbPgIUxxWVMbVQU9qEQ7FmAP7R8+SMlex6TRjXbPP/8XasBrAawBOhZOtjUlE2PGZaKBRtZ+Mgoyfry2wM5gu+mamtX3bV8OQpYqa0PjD0IgBIAn3n5nDFVe1RiKAPrm42+Vwiz3/tIlr+1iRKAHRCce375d2SEcFzlNU1LLnMc/uirrz4cmjr8YUAJwE68/fZ99vqGfd4ZMyx1UNCxhI3XBIBz4F+rB1YG1XWtrx199MIbX3zxNw2eOs9HMvFH5IxuANKvKiY7JgQHz7f6H1OEqie+Lzei/jnxxHNGd3Ya5w3kd9ZsbIcQAozRhOxncdv7/g/Txcblyx8+XEI4RYkOoPaho8v8ZdAxhI1wbc9Vuf7x73bY9kDbEIpt5x731HGe2KiTsmD4QxB9lypumci3BCtTtVVsz/mBTOt2d1t/BPiAnquO4+C51zcWKqTIkpEAtHVzeob3gRKAPry1vvO3TW2Gr6WIw07G9P/jyzbl1ze3Dz7ssLNO8BxAPgQeDKTfEuXp7L+i3iMvkv6rqzvjBM6d/fP53cdfWCU7nEjrqf7obfqfC1XsfeJl/ysppKJECUAfFi1axD9a0/63oOMIE68JgGG7+GB1W16/KwTAmP0Agti8Ov70lwG20vd+S5Bw7Lwf/owptj59wx2SQ+pX164rHsj3l1dvaEUmF8gFqKEkY6DR0Gav9vv0R9RQArALazemr+ec7u0Geor/eJ3+f+HNFk8FOYRwq+bMmX+rpyDywBgTAAIZWZYa18p/9M/02FOMLfL9TVpXt+AOIdy8zw0LIbDkGcove3EPn4EeDOsanSukBFPEKAHYhQuuvf7vK9Z308XdkPGlBJ58xftap23bl9XVnTndc0MDxY1fA+j2vd9SIriHs/9MaC6/Sm5Au3bYYQumOY51idd2nn99nYRooo873vcZZW1mHnnWVc9KCqloUQLQD2s3dz0UdAxBE9zDg3kblyvY1CijAqtQXFe8AJ+XAtiks7oAPOxnn6XGNQ3ku/lP0WL/Ynt/Lb8NJvljiuL8BRCen6XNbRm6ihwAt7zX4GlodZ6REErRowSgHzat7by+tcMs6QU6GReyvLMmC01PSYgGEMIZVVu74G4pjQ0EF3cg3zcU2SUvs0xMVa+XGEq/1NWd9UvO3REy2orFknj6Vb/zl3CRMdAQUEXTWuUcSSEVNUoA+uHiRYuy765oK+GMUniuyS4Ywz1/XA9dT4IxOZcscW5ddMQR5xwspbF+YpPmfQwhXvCzz1LBLQNC5Df1q6h6kzbtfF+/o3V1Cw5xHGOhjLYURYWmJfF/r25CzvQ2/R1lMkb/G1rs9+ouvTRSt/IFhRKAflrXxC/qytglOfLz8mDutabBRktHT2GXeLxMRlgQQjAhzOemT5/rb7VGgUCKzBQ1Abjmru+G2Bmmqv8tMZpdmjt3boxz58+QtAwVi/V8J9JZBy++4X+tq3AQnjaA9mBYu8n6spRwSgAlAP30tSuvbHznk5aSPBLomt6z8nuf2vDpn6tqDJom550thFs5dKj+nJTG+olNmvd3AC/72Wex446R98YvRdVbtBkX+Frwpakp9hLn7iAZbWlaDKr6n+/DH/6yAW4Jnjxyzaznm/8a2vmaYxd+i6oq9RMlAAOwqSVzfs50S+qbye38H8y9NrdxrNzw+dFdLFYurfSp61p1c+ac4esIEBw/8LW/Iuea+Y/8FE3/H4mh7NKcOQtu4Nw8TEZbjDHEYp+/NLCx1cDyNwdyV0YxEJ4HGoIxtHS6p0gKqCRQAjAAZ1/63dVvftiyPOg4/CPgGvlPy/ZguGXJui/+XaZA0/p9X8ou2bZz45FHzq+T1uAusElzlwPiVb/6K2bcNiHc/ApuKlqsVZ1+vm/1GebMOXOObZvSkj9NS4GxLz6G739qNUyrdPYCyBj9b20XK/c/9YoPJYVUEigBGKCP17ec0dJeGrt0XMv76P/D9SbWNuw4idD1FBRF2n1UzLbdPx9zzFf8uwJWwf/zra8i5hr579diivZdiaH0qbb2vBGOw6Wt+6uqBl3fcRLc2mnijy+XyEy28D7650LBhs1WrZyASgclAAN0ybWLml5/v+nXQcdRcML76F9AwS1L1uz0nzMGxOPlkHUJmhBu0jTjb8+dO1fOMYNdYOPmvQKIJ/3oq1i5Zi7vJJNpsQ3ajPN9WvtfpAhhvimEm5DTHtu2DLbzn1j6wjq0d+V5I2KEOEa359H/is3mc4effdUWSSGVDEoA8vDuxq5LVm/s7go6jkLq+VJ6K6O97L0udHT3XT5BUTRompxTAQDAuTOmuVl7UVqDu+Kq3wJA1VvyIQS4lWeSyQCmKgvkBrRztbUrlnNuj5HVXiy269mvnOni4WfWyuoylIRrg1vejhhbruo8+U5HMJeERRwlAHlYtGgR/2h1xyXFekeA4I7nqzhzDsPiJ9b362djsQRUVdpSAFzXrqutne9L9UY2+bR6CNzpR1/FxrUyEHneC6Go8b/r0y94TXJIO1RXN/83rmtL2fQH9CS9O5v6395zf9uMFeuKdKwhACfrtbI2w8qG3A2LFi2iS3/yQAlAnk658Oolr7/f/EbQcRSCk+32WOuO4ScPrYfj9vc7yRCLVUg7FQAArmstqKub/yNpDfZF1X4IIJD756NKcBeukd/Of8YY17g+V3JIOzRnzoIfuq51vqz2GGOIxyv6/fMuF/jZgx/Dsovv/ebaOQjurcBqYwc27Pflq26WFFLJoQTAgzfeyB61dnO390PyIeIa6bx3ZPf628cZvLuyc0C/oygqdEllgns5jnX9EUcsuExqozvAxn2lA2DfLnQ/xcTNdSPvmv+x+H1sn3M3y43oi+bMmf9N2zZv8Lg8/Tm6XgZFGdgWlY1bM7j/qdXygggBwR1Pmz8BwOYKX7O+aW9JIZUkSgA8uPan12b++nbT6cVSulM4NlyPpTgzFsNPl+S3bqnrSahq3FP/2xPCuq22dn7h14rHn3Y/ACoR3A/cNsGd/Da3KarerE2/wPPNe7syZ878ubZt3S6zTVWNQdfz20P41PKN+NeqdpnhBEcATrbL48Y/hvdWp79Rd/6iDmlxlSBKADw696rvPPvXd7Y+FnQcngkBJ9fpaepfgGHRb9aA57muCwCJRLm0uwKAnnLBrus8UFd3xsnSGt0BxpgAUy4CQDXI+yI4XCPPdV+mCAHtJLkBfdGcOQu+4jjO7yHxtklFUQY09b89IYCfP/gxMrno30nmGN0Qrrd/jzVbnTcOPePaeyWFVLIoAZDgmAVXfPWDVR07P+8WAU62K+8NWb1++3zTFyr+DRxDIlHpsY3tccVx3Cfr6hbMl9zw57Dxp60H4GtVuqhxjHTenzNVjz8S23vhPySH9DlHHrngdMexHxeCS302xuOVnve4NLYa+N9ffxDpMsHcNjzd+AgAnTmle9rxl/t6CVixogRAAsaYWP7G5lkr1nVFcruua6TBHW8n2V77KIsnX9kqJR5FUT2NlnZMMMcxH6qtPeMCyQ1/3viPbgfwekH7iChum3kf+VIUvUOdfv7ZkkP6nCOOmH+2ZVlLZb/8Y7EKaQWv3vmkDXf+/t9S2vKbcG04OW+7/g1bcf+92Z4gKaSSRwmAJJcvWtT1/BsbD9nSHK05Om4Znqtw1Tc6uOVhuRMgmhaXWip4G+a67i/r6s68WnbDn3bAFnEI5wwwtBaqjygSgsPJ5ZsfMyEQP5YxVrCt8LW1C67k3PodIOQdRQGgaQnoutx9Lc/9rQFPv7JJapuFJrgLJ9Ppad3fFar4R33XQYfPu7xZYmgljRIAia64YdGHr73beGxXJhpndrhjec7Iu3IM1965QlJEnxeLlUFRdMmtCua69s+OPPLsgl3pyyaeuREC58HjYcriIeBm8t/0pcQTP4jtc+4/JQf1qTlz5i/i3LwVEtf8AUBRdMTj5bv+wTzc+/hKvP1xRHJMweFkOiA8FBYTYPjnivSCY8789lsSIyt5Uj/wpMfT9982v3b2sIfKU1po//ty14KT7oSXd1TaZLj45o+QzhXyFARHLtcJ7vFOgh1RlNiSV15ZUrATAqL+sdsgcHmh2o8KN5fO+3SJEov/Q59x4UGSQ/pUXd2CXzuOtVB2rsaYimRy0A4v+pElHlNx4zf2xsxJQwrWh2eCw850ejpaLBjDio3utXuffNlPJUZGQAlAwTx+z8/OOvbQkb8rT+qhm2XhttlzDCf0L/8eQnDkct5GEDujqvrbmzZ1HLJ69bPSy/mKVc/EoWReAzBbdttR0fNZG1hNiF5M1bt1W4xgsy+WXmtj4sTj4mPGDH7Dde19ZLfNmLLt5V/4KykScRXfvyScSYDgHE62w+OOf4b36q3rDjz9ylukBUY+RQlAAT37wB3HHjBjyNNVg+Ky57Hzxi3Dw1psj9a0wDd/9m9kTf+2O3DuIJfzNmOxM4qiteh6bL+XXnpgg+y2xYZHRsHW3wDEWNlth53gLux0W15T/4wpLmKJ2bHp578nO66jjz5jlG3jHdd1hstumzGGRGKQzFsudymmK7j23Ok4dF//LsLclZ41/w5Pt4kKpoj31hoXHnTqVb+RGBr5DEoACuz39/xs74P3qnp9txHlcsvc5cE1c3BNb2V+V29xce3ij+HxxGBeHMeCaeZfQa4viqKYqho//uWXH3xZdtti1eP7QhGvAijMgnAYCQ473Z7fC4AxocYS87TpCx+XHdacOQuOcV37T5xzuTvztkkkKqGqsUI03SfGgItOm4xT6oLP2mPjFgAAIABJREFUM4Vrw8l2ejpWbHPV/XCDWXvQqVf4ct9DqaIEwAdL771p0PjRQ17bb2rVjEACEAJOrgvc9jDLzRhefLsLdz6+TlpY+bBtA5ZVqFo7TGha7KZlyx6+XnbLYs3jxwPiTwB8uao4UELAznTkt+7LAEVP/UCfcf7/kx3WkUcuuNmyrGtk7/TvFY+XQ9Mk3Racp9rZI3DlgimIx4L5mPXMMHpL0jtzSnpTi7PnrC9f1iAvMrIjlAD46C+P3Hb3wXsPvzgZV3377y64AyfT6WkqznIZbnlkI/75cThKkRY2CQBUVX83mVRqn332Yal1HcSapVcA7Bcy2wwjJ9uZd7KpxpJLtBkLpW7MPPTQ+UNUVSzn3J4ps93PisXK+n3DX6HtMaoc1547DePHyK6l0QfB4eS6PQ0yBBg2tornJh196XESIyN9oATAZ0vvueXgffasemrSbpVDC92Xa2bhmmlPM+YrNtv4f79cDcMKV3kD287Byvcu+X5gTMkpCpu3fPmj/yezXVH/2DUQKNoNTU6uK/9iP3r8GX2vC6Xe637EEWeeJARfKoRbsKF5GEb+29NUBWedMA6nHbU7tAKPN7hjwc15qyRqOKr17trs6bVfvfppiaGRXaAEICB/uv8XPzp4r6HX1QyJSd8txF0Lbi7tafdtxlLwi6Xr8c+Pw3vXhuMYMM3Clt7XNO0Py5ZNmQvIu29crHnsewAWyWovLJxcd95lXhU9/qK+14XHSAyH1dUteMh1zfkyb/PbXphG/jsyelgSl8zdE/tNq5beds+Vzmlvo36hoKHNfX7cUZceX8hCT2THKAEI0B9+d2d1dVL8Zp8pVSdWlsU8HxcUrrOtrG9+N60BgOkqeOKVZjz6UjSW3wq9HAD0nBJQVe3LL7/8kLQSv6L+sRshiufeAE8v/1j8L/qMC4+SFcucOfMP55z/wXUd+W+9z4jHywpRrbIg9p9eg7NOGIfJu0u4Z0PwbbOL+Z/OFGBoaOcftHXox84+7eIt3oMi+aAEIAT+7+G7hpSp7r17jhv05ZE1yQFvIeaOBW7lPGXiXTmGp19vwdK/ROPF/1l+JAEAoGn6M0JsOW358uX5zXFvR6x57LsAfoSIfw+dbBe4nee0fzz+Z336hSfKiGP69LmxoUP1Ja5rn1boIoxhnPbfFcYY9ptahS/XjcV+U6sx0LuJBHfBrSxcy8i7qqMrFLGlnb9jmDhx+gmXyrk8hOQt0g+eYiOEYC8+dNdFQ6u1yyeOrZzaVyVBwd1tN2sZeW/wczjDik0mlrywBR/WR/Ieo085jrltOaCwD37GlKyu69/4y18e/p2M9kT90tMh2IMAovU2AQAIOJmuPC+SYlBjiTu1GQsvkxFJbe38Czh37hCCF3xIHsWX//ZG1iRx1EEjcdi+wzF2RB8nlIUAd0xw0wB385tZFIyhI4OuzS3WQ/udcuU3QSWyQ4MSgJC6d9Gi1G7jB188uCJ26vCa1MyxwxKVinAgXBvcNvN66QswdOUE/r0hh5febA3Nrn5ZXNeGaXZBFHLRdxtVjX2gaYlTXnrpN/Ve2xKrH/sSGJ4CUCMhNF8Ivq2+O89nnwkTWjxxuTp94Z1e4zj++HMmZzLWk5w7U722tSuMMcTjFYGc8y+k3UeWYd8pVdhnzyGYPmEwyuIAd2wIxwJ3bOTzvrZcxe3Kis1t3c6f6z/KffvL3/62t0tHSEFQAjAAix98faLpqCPjmjLG776Za1SMrWg9tCZhzkzqfFQyJipiqtA1lTFFYQzgTAgAAnA5YLpAzuBoz3BsaTWxYoOJDU1SZq4HLJvuguvY6O4s/IZCzl0YRmdBygbvgFDV2EuAmL98+SMtnhpa+/gUcPEEgGmSYisY4Wwr9JLHf2OmagZTYifre53/opcYjj12bpVp6r/l3DpRiMI/xxhTkEhU+lLhr2JwFVRNQ6rMx2N8nzF2WAITRycwuiaG6goFqYQCTQE0lYExsW3pgAnOIVwOYTiwbYeluy3W2JGNv1/fVfUK01O+v/Adi21Ewmm8YsFBq/zuO6ooAfiM2x5452xVT54MPTkNSnKky1LlORHXbVeF5YaupH8k6apAUjWhiSyE1QGruw0tm9dg7SfvINMlZxlCCA7T7ILrqQZ5/zGmuIqi/t40na/9/e+P5bcTDoBYe38CovwnYb5AyLVycPO8QZJp8Xo9njqQ7Tk/72Sptva8BGP27a5rLRRC+FLthjENyWSltIt9yisHYdz0WageNQGxsiqw+CA4ShmydgwOp0eyDLrKEVe5SDDDUUU2DZ7bIuzcR4qT/uOlZ+//SNDxhUXJftqWLRPa6tZPLrZZ6nxXqZzazStSOdu/+t3k8xQGlOsGVLsF6cZV+Pgfy9DRmv+13z1JQDdcD7eQDRRjiqWq+v2TJpVddt999+XdsVjz+GmA+BWAwRLD80QIDjfbnd96P1OEosVv1/daeGW+/V900UX6ypWZm13X/gbAfZuDV9UYEokKeHlUVg0djqn716J8+EQ4saHotuL57qEjEiR1B2VKV46Z7au42f7QqGTqtnnzpud/dCrCSioBmLt0qXqoNeWHWqrmwk4xtIZe+OGlMGCQ3g27dSVWvLUcDetXD7gNIQDbzsC28x6U54UxxWJM+73r4srXXluS10YLser3E6CodwGQeTY+L9wy4Bjdee38VlStCfH4qfqU8/6WT99HHvmVas6Tt7muM08I7uulWrqeRCxWltfvjhk/CRP3rUWsehI67QpweuGHVkp3UMlamni26ZevxlZ877F58wp/xWlIlEQCsPjBN89E+aifpjFsZNrc+c56El5DYt3oXPcG3ln+f7CtgSXrfp0Q2B5jjCuK9rqmaRe99NKDn+TThqh//CQILA7iNkHBOdxcfqN+xlRX0WO/1mYsvDifvo8//pzJuZyz2HWdOUJwX9ffGGOIxSqgaQObaNDjccyuPREVux+IdiuY9XviTXnMEWWicYuTbrj6ynMPeDToeAqtqF+Gdy/9+IdObMRVLeaQFGXgxSGhu0hkV+O9ZU+guWFjv39PCBeG0Q2e1651bxgDFEVfpSj48csvP3L/QH9frHqoEkp8EYBL4MdxQSHgmhm4Vi6/UX8s/g+tJnYyG3FO0wB/ldXVLThfCP4d17UnDbhjCRRFRTxeCUXp//aC4aN3w8y605FLjIfpFP9dT6VAYUC13maI9IZbrzhnX+mXg4VFUSYAi5d8vMRK7j6vzUzRt7FIqYpApV2Pt557CG3N/asnIoTYtiQQzGkIoHefgLbctnH9a68teXsgvytW/2EYmHs1gMsByD/vLkTPJj8zk9+LX4u9y2M4Lz7la/8ayO8dfviCvRRF/IBz57+EKMw1vf2haQnE4/2/sbl6+Ejsd+xZ6FLHwS3MBYMkBKriWTdurFvyjTOnnxN0LLIV1af2ziXvXe0mJ9zUYpb7ulZIgqOrAmXGSrzx5wfQ3dHWr9/x4w6BXWEMYExrYUx9NBZTbnzhhQf7PVoW654YCVdcA4jzAFR5jaWnwlsuvxG/wriixt7iirYwPv28j/r7a8ccc/Yw2xaLhHDmcu7UBLspjm0r69u/yZVBQ6pxwAnnIh2bSLv2S0h1vNtiXauvueLcWXcEHYssRfHp/cWv/na4Wj3pqRZr6GCa6i9NSc2FueFl/OOFP/Tr54XgMIw0OA/D5l8GRVFbAeVlIZRfvPpq/+4cEKueiUPNHgMhzgbwFQD939UqAO6a4JbRs8Y/kO9Nz5JGCzT1dxoqFrHp8/qVTdXVnbsf4F4uhHOs67rDw1AQTlV1xOPlYKx/k4UHH3satN3qYNg0uViKFAYM1Zva3cz6E684+wBpd4MEJfIJwJ2P/vupDnXiybT2RgCgOt6BD1/4NTat3fWpASEA1zVgWRlfqgf2F2OKoarq+4D2qKoav3nppcc6d/U7YtUTY6CIEwFxNIA52NERQsF77o2wrW33RgzorS8UVdvMNHUZ15Wfxyaf/96ufqO29rzBgHsBY+48zt2ZnBfuSt6BYoxB13tG/f2piT9q9wnY65gL0WaH5mQmCVBM5agRa565ZN5kqddX+y2yCcDtD70zjZXt9o8ms7r/i3akJOiqgNL0Gl57ekm/fj6ImgH9x8AYyyqKuhJQljPGn1y27JFX0cfbW4ilKtap+4O7XwIXe3PbOMS1zd2F299zr0wwTe0GlAbG8AlTtD+pOethNvviPv8D1daetw9gn84YjuKcT+XclnD1nHyKoiEer+j3Rr/Dvnw2nOqDabqffMGwRGsX2tcdeNn5s/8ddCz5iOQn+o6H//XzTHLKVRmLlvpLjYCA5QjYLofDOVwh4HABl4ueUTwD3G3rQOWqgS0v3YpsZ+tO20skYqipGYIhgyvQ0dkG27KQSiWQSqWg6Sri8ThSyThUNTw1I8orUta4Pca0DxpU3p5MJroSiXi6LJVIx+K6CQAdzz8/Iv3ss+PcrVsrmGHoYtv3XK9Islh1OVMTOlNSMaYmVCYE4OYcIbKWcDKGcNKmsDqzvcmFQCJhqyNGdJefcEL94KOPbgQAy7TjmaxRnssZFUbOrOzoTA9Zv37z4O7ujKcCPUz5zwOJKQpURYHCAEVRoCoMqqpC6eeBQMd1kctZMA0Dpu0im8kik82hLJXCqFGjsLmhCfVrt6CrK7PTNlKDajDiqCuR2TZxoSoMED2zB6rCoCkMKmPQFAW6qiCmMbBoPlKJB+UxR8Qz//7plWfvdV3QsQxU5D6tdy1d/WqjGH8Yp123Rc0VAjnbhem4MBwXhsNhOS6cAW7ySOoMqbV/Qkf9O9h99xHYbbeR2G23ERg5ohpDhw5BZWV+hV7CqO3hh5H5/e+hm/lfC90XKx5H+YIFqDrjjIK031/cdcE5B3dduI7z6V/nhTHYtoPutIGtW1uxpr4B77y/EvrQKciO/zJy9sA+b5rCENdUxDUFCU1FQlOR1FQoCj2vipnCBIay+uXfnDexLuhYBiIyn8p7731Ld4aOqt9qjfT9Ih5SeLbL0W05yNoOclbPS98LXVUwooJh8jCBA8aaGDfUl8uBAsHTaWy+5BLojY2+9GePGoUxd90FlurjGlmfCSHgOg5cx4HjOOCOt3oPm9NJvLOlHKvbYmjsErDzTTC2SWgqUrqKVExDeVyD3t+pDBIpw7RNW4bzrj2iUlo4EgnAvQ++NdKqGF/fZAwJzSYi4l3actBp2MhYNkzH2wOWARhRqWLPYRyzxjqYMtz/gj9BcDs7sfmccxDL+Vvu2Corw5gHH4RSHs4tOL0JgWPbcGwbwuMLfE17Ch80lWFVq46mNPdc2jeuqiiPa6hM6CjTtX5tRCTRMDTRbvDmlXtc+bWD/MnIPQj9x+5Xv3quKlNzcEOLURlYgRAihxBA2rLRYdjoNmy4EnbeDy3TsM8YF8dMMTEoGZ6d/H7ZeOaZ0Ft3vsehkOzhwzH2wQcD6XugepMB27I8JwNpS8XfNg3Be1tiaE5zz4cZVYWhMqZjUFJHeUynZKAI1MS7bdHy8diwJwGh/qj96lfPVWWqD25oMenlH2U5x0VHzkJHzhrwGv6ODE6q2G+swFFTLFSnSubeji9ouf9+OI8Ee7Np7LzzUDV/fqAxDETvzIBtmnBt2/PLu92M4bUNg/BeQwwdhvfPoqYoGJzQMSQZQ0Kno81RVpPotOzGd0dfc3Fd3tdfF1poE4Cb7n1rUNnwiVubjEE07R9RXYaN1pyJtOl9Op4xYFSlguOnOdh/9zAe1/PfxpNPhm4EV9YYAOxUCmOffDLQGPIlhIBtmrBM0/OsAAB80lKBl9eWY22bkFLiKKmrqE7FMSTp2+3HRLKhiXYj21g/4jsXz95lLY8ghOds03bKh+2+vpFe/pHDhUBrzkJr2vS8cQoAdJVhr5EKvrK3geEVxbuRb6CsjRuhBfzyBwA9k4HV0IDYqFFBhzJgjDHEEgno8Tgc24ZlGOBu/qP4qTXdmFrTjeZsDM+srsInTQy2m38qkLNdbOrMorHbQE15HFXJGBRaH4iUZmNIYtjQ3dYBGBJ0LDsSyk/T4sfq39nqjts36DhI/3Eu0Jw10Zo1Pz2H74WmMhy4G8MZs03EVXrxb6/5rrvghmTkrZ1+OmouuijoMKRwbBtWLgfXQyLQy3QY/rRyGN5qUOB4SAR6aQpDdVkc1ak4VEoEImW4Wv/WN+dO2D/oOLYXurMody55/6dNfA96+UeEEEBbzsKKli40pQ3PL3+V9Yz4f3yiiXMPzNHLfyeslSuDDuFT5ooVQYcgjabrSFVWIlVeDkX1tgYf1wTmTmvEoiOaMHuM8PzSdrhAY7eBFc1daM6YkLPQQPzQwsfNvnPJB7cHHcf2QpVG/uLXb56cGbzvU3TRRjR0GBa2dhuwXe8vacaAPWtUnL2/iaGVpbuxr782fPWriLW3Bx0GAMCqqcFuS/pXdjlKhBBwLAtmLiflroiWXByPfVyNNS3eTw4AgK4oGFmZxKAEVUSNgqTuoiL37vGXnbX/s0HH0itUewBY9Z6PGQa9/MPOdDgaurJIW3LO2g9Kqlh4oIWpIwpTwa4o+Xzuv0/ZbNARFARjDHo8Di0Wg5XLwfJYYbEmaeKS/Rqwur0MS/41GJ0eTw3YnGNDRwZlMQ2jKpNIaPTsDLOcrSJVvueTAEJzqi00SwCLl67+a4tRQdtdQ0wIYGvawKrWLikvf1VhOGScgptOymLqiNIo3CMLs8NzEoJZkSh6ljfGGOKpFMoqKqBIqOA3cUgG/334Zhy2B5eyqS9jOVjV0o3GtIEQXWpJdqDVqIjduXTlsqDj6BWKBODW37x5VLsy7tCg4yA7l7VdrG7tRrOkh8zwchXfPcbGuQfmoIbiUxgtLERP+jDFUkiKpiFVWYl4Mgnm8cWtMOCUPZtwzSFtGFkh5wvQlDawurUbOZuW0MKsnU2oveOhN48LOg4gJAmAVjXhadMJRShkB5rSBta0dnuuzw8ACmM4ZgrDD07MYrfB9KAqCiWSAAD/OTqYLC8HkzAbMLzMxDVfasCcCXJmAwzHxZq2nkSdhJPlKuBl458IOg4gBAnAbQ/968fNVOM/lGzOUd+WRqOkh0kypuCbhzk4fR96OHkWomNgogQvtlE1DWWVldBjclYtT5jYhK/v34mU7v2/Ze9SXX1bWsoGXSJfi1mVvO2h9/836DgC/+aK8nHXlM74ITrSloPVLd3ISNroN3qQhhuPMzBjFK31yyD08Oz8DlMsfmKMIVFWhngq5XlJAAAmDMniO4c2YnSlnMdyxnKwulXed5jIJcrHXRN0DIEmAHcs+fC+VqM8VCcRCNCSNbGuPS2lbj9jwBETGb53XKYkL+spmLKyoCP4FAtRLEGIxePSlgTKYi6uPrgBh+zBpZzRdrhAfVsarVk6YRM2rUaFfseSDxcHGUOgCYCTHLcwyP7JF23uzGJLV07Ksq6qMCyYBSyYTVP+sikjRwYdwqfU0aODDiFwqqb1nBLwWDyo16l7NuH0vUxppX8bunLY3JUtpe0akeAkx10cZP+BJQB3PPzejW1mig6uhgQXAuvaM2jLyTnSpSsKvn4Ix+GTaORRCKlDDgk6hE8lDz446BBCgSkKUuXlUDU5k5oHjWrHBft1IybpmExb1sK69jS4hJk9IkebmVLvfPDd64PqP7gZgOSoywPrm3yOu22asNuUc7Y8oSv41hwbe48u7vPhQRp08slwQ7AR0GUMg04+OegwQoMpClIVFdAkbQ6cUp3GJQd2IKnL+X+dthzUS1reI5KUjQpsL0AgCcDNv31rQrtTMyiIvsnnOdt2+ss6O1yZUPA/x1oYX0MbjwpJ0XUohx8edBhQ58yBImnEW0ySZWXSTgjsVpHF1Qe3oSIu53Gds12spSQgNNrcmiGLH3x9YhB9B5IApFJDltg8+NFLqes95ifjfD8AlMcUXH+siaHldL7fD8OvuQZ2gEfwbE3DsKuvDqz/sEtITAKqkiau/lILymNy/n8btov6tjQcCVd2E29sVwHiw+4Pou9Anh52bNisIPol/+FygbWtGZiOnAdAUmf4ztEmqpL0QPGLEo9j8HXXSbmoZqA4gMqrr4ZSokcA+0tmElAZs3D5Qa1ISqgVAACm05sE0ExA0Bx9+IFB9Ot7AvDju5ft0WmW0ZxhgFwhsLY9DVPCnecAENd61vyHVdDL328Vc+YAh/pfRVs58kgMOuoo3/uNokRZmbQ9AdVJE5cd0Iq4JisJ4FjblvZ8jTfxpt0q039897I9/O7X9wSgcvDwn7iCpv+DIiCwvj0jbc1fVxVcXutgtyE07R+Ukd/7Hvi++/rWnzt9OkZ8+9u+9VcMkmVl0k4HDC83ccn+HdAlLf8YjosNHRk6IhggVzBUDKr5od/9+p4AiHgVDRsCtKkzJ60yGANwwUEuJtWE52a6UjXqJz8BnzVLyj3zOyUExEEHYfSttxayl6KVLC+XVidgbGUW587qllYnIG052NxVnNc6RwVL1Bzrd5++JwA5NmSI332SHo1pAx2SzvkDwDFTGGaNpaN+YTHqppsQv+ACOAU4HugwhvjFF2PkjTdKb7tUMMZ6KgZK+v8ztbobR06Ql3y35yy6RChAWVZV7Xefvs7FL37klbGNyuEbaKrJf12GjfUdGWntTRuu4so6GjGEkbF2LT456yypbU5fuhQxqvgnheM4yHV3S2vv3ndGYmWzvIfqHkPKUBGnzZ1+YwwYyt8dfdmZsxr86tPfGQA+6Dx6+fvPdDg2Spzeqy5TcOnh9PIPK9dxkLZtqX84kjaMEkDTNMSTSWntXbhvI6pT8h7lGzuysOgWQd8JAXCbnetnn/4mAFpZna/9EQgIbOzISCv/GdcUfKvOgk5FnEPL2LRJfpsbN0pvs5TFEgmoko5Qqozj67NbEJdUMtgVgjYFBkRLpI70sz9/EwA9taev/RFs7TKQk1ToBwBOnclRQ4V+Qi1XgJd1bsMG6W2WuqSka4QBoCpp4eRpOSltAT3VAhvT8toj/SPUMl/fkb4mAC5L0gZAH2UsBy0SrwGdWKOibjJd7hN2uQLMABQiqSh1TFGQSKWktXfQqHaMq5K3ras5Y0o7MUT6RyipKj/78zUB4IyKhvvFFQKbOuWt08dVBV8/lEYEUWAUYLRubN4svU0CaLGYtEqBAHDuzCZpRYIAYFNnFpzWAnzj9zvS1wRACImfTNKnxm5D6kae0/bhqEzQgyAKaAYgWuLJpLSlgIq4i1Omykv8LZejqZuOBvqFQ1KhiH7ydwkAAd5cUkJytotWiVP/E2oU1E6iqf8o4KYJq6VFervmli3gDk0HFwJTFMQkngo4YFQHxg2R96htyZnSLgwjfXOEpJ2c/eRrZzZXqQawD2RW9FIVhvMOpGI/UWFs2gRRgBvehOvCpGWAgonF41KvVT5jeou0KoFCAJs7afnPDw5XfH1H+rsHgO4AKLiOnCWtzj8AzBrNMLyCsv+oKORUfY4SgIJKSpwFqCmzMHOkvCW7rO2g06CS34XGhb+T5DQlX0QEBLZKXK+LawrOnE3rf1FSiPX/T9umo4AFpWiatFsDAeD0KU3QJc4ob+3OUW2AIkMJQBFpyVqwJU7/HjFRoDxO3/goKWTBnkIUGCKfF08kpLWV1DkO2V3eqN1yOdpytBeomFACUCSEEGiReJFHWUzBKTNp9B81BV0CoASg4BRVlXos8LgJzUjF5D3mm9MmRGHvnCQ+ogSgSLTlLDiSyv0CwGETBOjQZvQUdAaAjgL6QuaJAE0BDhwj7/SGzTnasrQpuFjQI75INKflTc3pioITptOXPGq4ZcFsbi5Y+wYdBfSFoijQJN0TAADHTGiBJnFzeUvGpL0ARYISgCLQkZO79j9zNBDX6DawqCnUEcBewnFgNvh2U2lJi0ncCxBTOKYPl/fGtlyOLpNOBBQDSgCKQGtO3mhdYcApM2n0H0V+TNFTSWB/qJoGVWJRuBMntUPmIWyZhcZIcCgBiLic7SIr8cKOPapUOvcfUVkfNulRSWD/6PG4tLaqkiZ2l1gdMGM5Um8ZJcGgBCDi2iWO/gHgqD1pai+q/NilTwmAf7RYDJBUzQ8ADt09I60toGfpkUQbJQAR12HI+xLGNQWzdqMEIKoKcQvg9qgYkH8YY9Albgbce3in1JsCO3IWbQaMOEoAIqzLtOFKPPo3qYY+EFHmx+ic9gD4S2ZNAAXA+Cp5zwuHC6QtGjBEGT3vI6wrJ/fLd+gEWtOLKmHbsAp4BLCX0dBARwF9pGiatKuCAeCAMWlpbQFAF90PEGmUAERYt8TsO6Er2GcsrelFVW7zZgi38AmccBxYW7cWvB/SgzEmtSbAjKHdUpcB6DhgtFECEFEZy5Fa+W9CNX0YoszPtXnaB+AvmRcEFWIZIGvTjFBU0TM/orpNuV+6GaOo8E+U+bk7n64F9peqaVLbm1wt9wx/t0EJQFRRAhBRaYln/wFgP5r+jzQ/N+fRnQD+YoxJTQJmDpe7DyBDMwCRRQlABHEhkJP4pSuPKxicpPM8UebrDAAlAL6TmQAMjlsok3hDYNZ2wOk8YCRRAhBBWUvuZq8xlTKLhJIg+Dkqp2uB/SezLDAAjKqQ15YQPRVJSfRQAhBBOcnHsPYcQev/UcYdB2Zjo2/9mZs3Q9BRQF8pkvcBTJC8D4ASgGiiBCCCDMlfthkj6WEeZYZPRwB7+Z1wkJ4rgmXWA5g6NCetLQB0L0BEUQIQQTK/bAzA2MGUAERZEJvy6Cig/2TOAoxMZaFIXPmTPSgh/qAEIIJMR96UfUpXoNCnINKC2JRHJYH9p0j8oqoKkNDkZQCmjzNQRB569EeM5cpdr69I0AbAqAsiAaCTAP6TmQAAQHlc3ndfCPnPJlJ4lABEjMzRPwBUl9HxnagLYjROCYD/FMknAaokH/2lBCB6KAGIGJvL/ZINr6AEIOqCWI/34+ph8nmyZwCGlsudtqcEIHpCGilEAAAKRUlEQVQoAYgYV/KXrLqcEoAoC2pHvtHQ4OvJAwKppwAAoCopd/OvK3lwQgqPEoCIsSVeAAQASZ0SgCgL6kw+HQUMgOQEIKnKfWHLvJyM+IMSgIhxJX/JUvJuGiUBCPJiHroTwF+MMTCJywDJmNwEwHUpAYgaSgAihkPul6w8TtN2URbkeXzaCBhtSdWW2p7sZxMpPEoAIkb2nRtlMfrSRlmQo3C6EyDaUprc5J9WAKKHEoCIkX3rVhnNAEQaLQGUFpm7AFKSv/uCbgSMHEoASlyS9gBEWqAzAJQA+E/iRsCEInfzKL3+o4cSAEIiSjgOzC1bAus/5/MlRIQQuSgBICSijIYG8ACv5RW2DaupKbD+CSHeUAJASESF4UIeWgYgJLooASAkosLw8qVrgQmJLkoACImoMCQAYZiFIITkhxIAQiIqDMfwwpCEEELyowUdACGFwjmHbZpwbBuCczDGoCgKVF2HHo9Lv1zFb2EoxBOGJMQrwTls24ZjWeCcA0JAUVWoqgo9Hpd+DS8hYUEJAClKRi4HxzQ/V5xECAHOORzHgWUYSJSVQdOjWQhBuC7Mhoagw0B20yYI1wWL6EvSsW0YmcwXiti4jgPXcWBbFvR4HPFkMqAICSkcWgIgRSeXTsM2jD4rkwkhen7OsnyMTB5zy5ZAjwD2ErYNq7k56DDyYpkmcun0Lj8nlmHAyGR8jIwQf1ACQIqKZRhw7P5fcmJkMuARLGYTprX3MMXSX67rwsrl+v3ztmXBMs0CRkSI/ygBIEVDcA7LMAb8e+YAXgRhEYb1/15GBI8CmrncgGvXW3n8DiFhRgkAKRqO4+T1gHZsO3IPdiNECUA2YkcBhRBwBzBL9LnfC8GyCyGyUAJAioaXh3MY1tMHIkwFeKK2BODlc0IJACkmlACQouFlFB+5GYAQvXTDFEt/CJ7/NbhefpeQsKEEgBQPLwmAxDAKTbgujBAcAexlbNpUMi/GqCWKhPSFEgBCIsZsbAzVkgW3LJgRPQpISCmjBICQiAnT+n+vqC0DEEIoASAkcsJ0AqBX1DYCEkIoASAkcsJUA6AXzQAQEj2UABASMWF82YYxKSGE9I0SAEIiJox7AGgJgJDooQSAkAgRnCMXoiOAvUrpKCAhxYISAEIixGpshMijjG2hcdOE1dISdBiEkAGgBICQCAnzVHuYYyOEfBElAIRESBjX/3uFcXMiIWTnKAEgJEKMEN+8RzMAhEQLJQCEREiYX7J0FJCQaKEEgJAICfM0e5iTE0LIF1ECQEhEhPUIYC9j0yZPNzISQvxFCQAhEWE2N4ObZtBh7BQ3DLoVkJAIoQSAkIgwQnwCoBftAyAkOjQ/OxuMhnrE1ISffRYbqyyWMuJC2v83wd1yygOjIQpr7MbGjcCsWUGHQfpBUxl2r7DTstpLaI4zItaVldVeSeKu4Wd3viYAl56+2wQ/+yO7dt3GTYISgGiIwug6CkkK6aEyjtsuGFYRdBwkOPTkJyQijAgkAFGIkRDSgxIAQiIiCqPrKMRICOlBCQAhUSBEJEbXuY0b6SggIRFBCQAhEWA2NYX6CGAvbhh0KyAhEUEJACEREIUNgL2iFCshpYwSAEIiIMwlgLdH+wAIiQZKAAiJgCi9VKOUrBBSyigBICQCopQARClWQkoZJQCERECU1tWjFCshpYwSAELCTgiYmzcHHUW/GXQUkJBIoASAkJAzm5vh5nJBh9Fvbi4Hq7U16DAIIbtACQAhIRfFKXXaB0BI+FECQEjIRXFXfRSTFkJKDSUAhIRcFEfTUShbTEipowSAkJCL4ss0t2FD0CEQQnaBEgBCQo5mAAghhUAJACFhJgSMCB0B7EW3AhISfpQAEBJiVksL3Gw26DAGzM1mYbW1BR0GIaQPlAAQEmJR3k0fxdMLhJQSSgAICbEoJwBRjp2QUkAJACEhFuVRNG0EJCTcKAEgJMSieAKgFx0FJCTcKAEgJMQinQBEOHZCSgElAISEWJSn0SkBICTcKAEgJKSs1tZIHgHs5WazsNvbgw6DELITlAAQElJR3gDYi/YBEBJelAAQElLFMIVORwEJCS9KAAgJqSiWAN5eMcxiEFKsKAEgJKSKYfq8GGYxCClWlAAQElLF8PIshn8HQooVJQCEhFQxLAFQAkBIeFECQEgI2W1tcNLpoMPwzM1k6CggISFFCQAhIVRMI+di+nchpJhQAkBICBXT8Tk6CUBIOFECQEgIFdNLs5iSGUKKCSUAhIRQMb00o3yfASHFjBIAQkKoGGoA9CqmfxdCigklAISEkRBBRyCN4DzoEAghO0AJACEhNO1nP0NizJigw/AsPmIEpt18c9BhEEJ2gBIAQkIoPmwYZt59NxKjRgUdSt4Sw4dj5j33ID5yZNChEEJ2gBIAQkIqHuEXaHzYMOx1zz2RTmAIKXaUABASYvERI7DXnXciNnRo0KH0m15VhRmLFyMxenTQoRBC+kAJACEhlxw7FjPvuguxmpqgQ9klfcgQ7HX33UjtvnvQoRBCdoESAEIiILn77tjrnnsQq64OOpSd0ocMwcy770bZuHFBh0II6QdKAAiJiNRuu2HG7bdDGzQo6FC+QBs8GDMXL0Zq/PigQyGE9BMlAIRESNmkSZi5eDH0ysqgQ/mUVlGBvW6/HamJE4MOhRAyAJQAEBIxZZMnY8bixdAqKoIOBVp5OWbccQfKp0wJOhRCyABRAkBIBJXvuSdm3HYb1FQqsBjUsjLMuP12VEybFlgMhJD8UQJASERVzJiBGbffHkgSoCaTmP7zn6Nixgzf+yaEyEEJACERVjlzJmb84he+JgFKIoFpt96KQfvu61ufhBD5KAEgJOIq99kH026+GUo8XvC+lHgc03/+cwyeNavgfRFCCosSAEKKwOADDsC0W26BEosVrA+m65j6k59g8OzZBeuDEOIfSgAIKRJDDjoI026+GUzXpbetaBqm/eQnqPrSl6S3TQgJBiUAhBSRIV/6Eqb+6EdQNE1am4qmYcpNN6Hq0EOltUkICR4lAIQUmeraWkz50Y/AJCQBTFUx+fvfR/Xhh0uIjBASJpQAEFKEquvqMOWHP/SUBDBVxeRFizD06KMlRkYICQtKAAgpUjVz5mDP738fTFUH/LtMVTH5e9/DsGOPLUBkhJAwoASAkCI29OijMemGG8CU/n/VmaJg8v/8D4b9138VMDJCSNAoASCkyA0/8URMvOEGgLFd/zBjmHDddRh2/PGFD4wQEihKAAgpASNOOgmTvvvdvpMAxjDx2msx8tRT/QuMEBIYSgAIKREjTjkF46+6asf/sPflf/rp/gZFCAkMJQCElJDRZ5yB8Vde+YW/P+6b36SXPyElhhIAQkrM6PnzMf7yyz/96z0uvRRjzj47wIgIIUGQVy6MEBIZo886C242CxaLYey55wYdDiGEEEIIIYQQQgghhBBCCCGEEEIIIYQQQgghhBBCCCGEEEIIIYQQQgghhBBCCCGEEEIIIYQQQgghhBBCCCGEEEIIIdHz/wEtlVJLlFfY+wAAAABJRU5ErkJggg==;" vertex="1" parent="1">
                    <mxGeometry x="574" y="626" width="32" height="32" as="geometry"/>
                </mxCell>
                <mxCell id="37" value="Top Management" style="text;html=1;strokeColor=none;fillColor=none;align=center;verticalAlign=middle;whiteSpace=wrap;rounded=0;" vertex="1" parent="1">
                    <mxGeometry x="606" y="622" width="125" height="40" as="geometry"/>
                </mxCell>
                <mxCell id="38" value="Chief Executive Officer" style="rounded=1;whiteSpace=wrap;html=1;shadow=0;glass=0;sketch=0;strokeWidth=2;" vertex="1" parent="1">
                    <mxGeometry x="590" y="670" width="120" height="60" as="geometry"/>
                </mxCell>
                <mxCell id="39" value="Chief Technology Officer" style="rounded=1;whiteSpace=wrap;html=1;shadow=0;glass=0;sketch=0;strokeWidth=2;" vertex="1" parent="1">
                    <mxGeometry x="720" y="670" width="120" height="60" as="geometry"/>
                </mxCell>
                <mxCell id="40" value="" style="ellipse;whiteSpace=wrap;html=1;aspect=fixed;rounded=1;shadow=0;glass=0;sketch=0;strokeWidth=2;" vertex="1" parent="1">
                    <mxGeometry x="880" y="685" width="30" height="30" as="geometry"/>
                </mxCell>
                <mxCell id="41" value="" style="ellipse;whiteSpace=wrap;html=1;aspect=fixed;rounded=1;shadow=0;glass=0;sketch=0;strokeWidth=2;" vertex="1" parent="1">
                    <mxGeometry x="920" y="685" width="30" height="30" as="geometry"/>
                </mxCell>
                <mxCell id="42" value="" style="ellipse;whiteSpace=wrap;html=1;aspect=fixed;rounded=1;shadow=0;glass=0;sketch=0;strokeWidth=2;" vertex="1" parent="1">
                    <mxGeometry x="960" y="685" width="30" height="30" as="geometry"/>
                </mxCell>
            </root>
        </mxGraphModel>
    </diagram>
</mxfile>